<svg id="Layer_1" viewBox="0 0 512 512" xmlns="http://www.w3.org/2000/svg" data-name="Layer 1"><g fill-rule="evenodd"><path d="m264.611 294.273v-166.148c0-2.675 1.912-4.904 4.443-5.395l79.521-22.195v-46.141c0-3.035 2.461-5.496 5.496-5.496h136.432c3.035 0 5.496 2.461 5.496 5.496v378.073c0 3.035-2.461 5.496-5.496 5.496h-34.159v4.912c0 3.261-1.336 6.228-3.489 8.381l-.011.011.011.011c-2.152 2.152-5.126 3.489-8.402 3.489h-125.697c-3.261 0-6.228-1.336-8.381-3.489l-.011-.011-.011.011c-.786-.786-1.463-1.681-2.005-2.661-9.824 8.996-22.91 14.486-37.279 14.486-15.247 0-29.052-6.181-39.044-16.174-2.722-2.722-5.16-5.727-7.269-8.967h-203.26c-3.035 0-5.496-2.461-5.496-5.496v-41.628c0-27.088 10.451-51.871 27.524-70.52 16.658-18.195 39.611-30.533 65.303-33.459l13.909-13.262.005.005c2.037-1.942 5.256-2.033 7.402-.134l2.911 2.585 3.357-6.559c-2.395-1.708-4.643-3.612-6.718-5.687-6.5-6.5-11.315-14.686-13.716-23.826-4.184-1.326-8.474-5.116-12.078-10.204-3.221-4.546-6.08-10.168-7.732-15.636-1.82-6.021-2.27-12.102-.401-16.981 1.641-4.285 4.732-7.507 9.711-8.932-3.226-16.759-3.83-31.138-1.81-43.134 1.984-11.782 6.469-21.335 13.456-28.656 6.98-7.315 16.334-12.27 28.06-14.863 13.311-2.943 29.716-2.827 49.214.349 17.823-5.113 31.102-.638 39.836 13.428 7.998 12.883 11.572 34.22 10.721 64.01.259 3.172-1.053 6.564-3.075 9.641 3.74 1.658 6.172 4.526 7.563 8.157 1.868 4.879 1.418 10.96-.402 16.981-1.653 5.467-4.512 11.09-7.732 15.636-3.644 5.143-7.988 8.959-12.215 10.245-2.404 9.123-7.215 17.294-13.705 23.784-2.075 2.076-4.323 3.979-6.718 5.687l3.425 6.691 3.06-2.717c2.146-1.899 5.366-1.808 7.402.134l.005-.005 13.962 13.312c9.836 1.144 19.265 3.666 28.088 7.363z"/><path d="m267.957 307.964c-.268-.114-.525-.249-.769-.402-9.453-4.891-19.826-8.218-30.774-9.632l-28.316 51.482c-1.458 2.656-4.794 3.627-7.45 2.168-.449-.247-.85-.547-1.2-.889l-7.573-6.978-2.716 4.151 19.471 79.106h10.609c-2.191-5.948-3.388-12.377-3.388-19.085 0-15.247 6.181-29.052 16.174-39.044 9.993-9.993 23.797-16.174 39.044-16.174 13.657 0 26.157 4.96 35.796 13.176v-19.362c-7.291-13.451-17.786-24.949-30.445-33.453-2.725-1.831-5.55-3.522-8.464-5.064z" fill="#2da2dc"/><path d="m359.568 97.467 28.249-7.884c2.917-.806 5.935.905 6.741 3.822.135.487.199.978.199 1.46h.016v163.943h49.682c3.275 0 6.25 1.336 8.402 3.489.13.13.253.266.367.405 1.936 2.115 3.121 4.926 3.121 7.997v156.273h28.662v-367.082h-125.439zm86.73 116.488h19.292v19.292h-19.292zm-36.801 0h19.292v19.292h-19.292zm36.801-35.98h19.292v19.292h-19.292zm-36.801 0h19.292v19.292h-19.292zm36.801-35.98h19.292v19.292h-19.292zm-36.801 0h19.292v19.292h-19.292zm36.801-35.98h19.292v19.292h-19.292zm-36.801 0h19.292v19.292h-19.292z" fill="#c8c9ca"/><path d="m383.781 258.807v-156.72l-27.805 7.761c-.274.101-.558.181-.85.237l-79.521 22.195v167.379c2.363 1.335 4.669 2.758 6.915 4.266 9.261 6.221 17.486 13.884 24.348 22.661v-55.888c0-3.261 1.336-6.228 3.489-8.381l.022-.021c2.153-2.153 5.12-3.489 8.381-3.489h65.023z" fill="#eeeeef"/><path d="m317.859 437.218v5.657c0 .242.103.466.268.631l-.011.011c.164.159.391.257.641.257h125.697c.241 0 .465-.103.63-.268l.011.011c.159-.164.257-.391.257-.641v-172.177c0-.199-.062-.384-.168-.533l-.1-.097c-.165-.165-.389-.268-.63-.268h-125.697c-.251 0-.477.098-.641.257-.159.164-.257.391-.257.641v107.854c5.34 8.499 8.429 18.556 8.429 29.333s-3.089 20.834-8.429 29.333zm19.441-155.097h89.267c3.035 0 5.496 2.461 5.496 5.496v32.541c0 3.035-2.461 5.496-5.496 5.496h-89.267c-3.035 0-5.496-2.461-5.496-5.496v-32.541c0-3.035 2.461-5.496 5.496-5.496zm72.495 92.407h19.084v51.164h-19.084zm-37.404 33.693h19.084v17.471h-19.084zm-37.404 0h19.084v17.471h-19.084zm37.404-33.693h19.084v17.471h-19.084zm-37.404 0h19.084v17.471h-19.084zm74.808-33.693h19.084v17.471h-19.084zm-37.404 0h19.084v17.471h-19.084zm-37.404 0h19.084v17.471h-19.084z" fill="#008dce"/><path d="m302.343 376.612c-8.002-8.003-19.059-12.953-31.272-12.953s-23.27 4.95-31.273 12.953-12.953 19.06-12.953 31.273 4.95 23.27 12.953 31.272c8.003 8.003 19.06 12.953 31.273 12.953s23.27-4.95 31.272-12.953c2.024-2.024 3.852-4.243 5.454-6.626l.011-.017c4.728-7.039 7.487-15.512 7.487-24.629s-2.757-17.585-7.482-24.622l-.028-.042c-1.6-2.377-3.424-4.59-5.443-6.609zm-13.167 19.675c0 3.035-2.461 5.496-5.496 5.496s-5.496-2.461-5.496-5.496c0-2.818-1.687-4.628-3.845-5.423-1.006-.371-2.126-.556-3.269-.556s-2.263.186-3.268.556c-2.159.796-3.845 2.605-3.845 5.423 0 4.395 4.124 5.295 8.251 6.196 8.479 1.85 16.968 3.703 16.968 17 0 8.198-4.85 13.44-11.059 15.729-.509.188-1.027.354-1.551.499v2.405c0 3.035-2.461 5.496-5.496 5.496s-5.496-2.461-5.496-5.496v-2.405c-.524-.145-1.042-.312-1.551-.499-6.208-2.289-11.059-7.531-11.059-15.729 0-3.035 2.461-5.496 5.496-5.496s5.496 2.461 5.496 5.496c0 2.818 1.687 4.628 3.845 5.423 1.006.371 2.125.556 3.268.556s2.263-.186 3.269-.556c2.159-.796 3.845-2.605 3.845-5.423 0-4.456-4.15-5.361-8.295-6.266-8.467-1.848-16.925-3.693-16.925-16.93 0-8.198 4.851-13.44 11.059-15.729.509-.188 1.027-.354 1.551-.499v-2.405c0-3.035 2.461-5.496 5.496-5.496s5.496 2.461 5.496 5.496v2.405c.524.145 1.042.312 1.551.499 6.208 2.288 11.059 7.53 11.059 15.729z" fill="#f5bd53"/><path d="m26.993 426.97h109.945l19.471-79.106-2.817-4.306-7.742 7.133c-.349.342-.75.643-1.2.889-2.656 1.458-5.992.487-7.45-2.168l-28.32-51.49c-22.538 2.854-42.64 13.789-57.283 29.782-15.262 16.67-24.604 38.856-24.604 63.134v36.132z" fill="#2da2dc"/><path d="m148.231 426.97h49.107l-17.734-72.047h-13.64z" fill="#eeeeef"/><path d="m166.955 343.93h11.658l.056-.087 5.02-7.673-11.04-10.172-10.872 10.017 5.122 7.828z" fill="#eeeeef"/><path d="m193.474 330.269c.156.082.309.171.46.27.681.445 1.23 1.016 1.637 1.662l6.285 5.791 24.89-45.255-8.101-7.724-37.828 33.594 12.656 11.661z" fill="#eeeeef"/><path d="m150.738 331.269c.115-.116.235-.227.361-.333l13.38-12.329-37.828-33.594-8.101 7.724 24.89 45.255 7.297-6.723z" fill="#eeeeef"/><path d="m203.641 283.694-4.504-8.798c-6.399 2.788-13.451 4.338-20.848 4.338h-11.497c-7.397 0-14.45-1.549-20.849-4.338l-4.436 8.666 31.141 27.655 30.992-27.523z" fill="#f6cfb6"/><path d="m219.822 193.319c-.373-7.044-1.435-14.07-3.186-21.075-1.288-5.152-2.938-10.26-4.951-15.323-11.194 6.988-22.584 11.418-34.166 13.288-11.907 1.922-23.929 1.123-36.068-2.397-1.978 4.545-4.706 8.945-8.185 13.2-2.326 2.844-4.994 5.63-8.005 8.357v37.341c0 11.415 4.674 21.797 12.204 29.327s17.912 12.204 29.327 12.204h11.497c11.415 0 21.797-4.675 29.327-12.204 7.53-7.53 12.204-17.912 12.204-29.326v-33.265l.002-.126z" fill="#f7dbc9"/><path d="m112.33 198.363c-.139.008-.277.01-.414.008-3.473-.017-5.26 1.059-5.888 2.698-.921 2.405-.513 6.017.659 9.897 1.34 4.434 3.61 8.925 6.144 12.501.496.701.979 1.368 1.438 1.989v-27.56l-.012.005-.062.027-.024.011-.007.003-.026.011-.005.002c-.461.191-.953.323-1.468.382h-.004s-.033.004-.033.004l-.037.004-.037.004h-.005s-.032.003-.032.003l-.037.003-.037.003-.037.003-.037.002-.037.002z" fill="#3e3a39"/><path d="m232.215 198.287c-.476.275-.945.521-1.402.736v26.601c.496-.668 1.021-1.393 1.563-2.157 2.534-3.577 4.804-8.067 6.144-12.501 1.173-3.88 1.58-7.492.659-9.897-.632-1.651-2.44-2.731-5.963-2.698-.342.003-.677-.026-1.002-.084z" fill="#3e3a39"/><path d="m230.235 186.109c2.17-1.964 4.009-4.273 3.803-5.789-.05-.374-.062-.745-.037-1.107.802-27.658-2.226-47.013-9.085-58.062-5.971-9.616-15.494-12.407-28.569-8.371-.842.259-1.698.304-2.511.168v.004c-18.689-3.147-34.12-3.375-46.291-.683-9.536 2.109-17.029 6.018-22.478 11.728-5.442 5.703-8.968 13.338-10.579 22.903-1.691 10.045-1.294 22.136 1.191 36.272 3.52-2.975 6.549-6.013 9.086-9.115 3.892-4.76 6.593-9.64 8.102-14.64.865-2.905 3.922-4.558 6.827-3.693.131.039.26.083.386.131 12.109 4.246 24.017 5.424 35.723 3.534 11.814-1.907 23.539-6.962 35.175-15.164 2.478-1.743 5.9-1.147 7.643 1.331.268.381.48.783.639 1.199 3.442 7.586 6.118 15.196 8.026 22.827 1.366 5.464 2.35 10.974 2.95 16.527z" fill="#595857"/></g><path d="m342.796 293.113h78.274v21.548h-78.274z" fill="#c9e8f9"/></svg>