<svg id="Capa_1" enable-background="new 0 0 512 512" height="512" viewBox="0 0 512 512" width="512" xmlns="http://www.w3.org/2000/svg"><g><g><path d="m454.321 511.462h-438.876c-8.53 0-15.445-6.915-15.445-15.444v-382.629l234.883-10.01 234.883 10.01v382.629c0 8.529-6.915 15.444-15.445 15.444z" fill="#d8ecfe"/><path d="m469.764 113.385v382.636c0 8.526-6.909 15.445-15.445 15.445h-20.593c8.536 0 15.445-6.919 15.445-15.445v-382.636z" fill="#b3dafe"/><path d="m469.766 113.389h-469.766v-38.662c0-8.53 6.915-15.445 15.445-15.445h438.876c8.53 0 15.445 6.915 15.445 15.445z" fill="#3c87d0"/><path d="m469.764 74.732v38.653h-151.121c-1.884-8-2.883-16.351-2.883-24.938 0-10.101 1.38-19.882 3.974-29.16h134.585c8.536 0 15.445 6.909 15.445 15.445z" fill="#0078c8"/><path d="m420.347 373.34h-370.929c-4.043 0-7.321-3.278-7.321-7.321v-210.138c0-4.043 3.278-7.321 7.321-7.321h370.929c4.043 0 7.321 3.278 7.321 7.321v210.137c.001 4.044-3.277 7.322-7.321 7.322z" fill="#6ed5a1"/><path d="m427.672 155.878v210.14c0 4.046-3.285 7.321-7.321 7.321h-20.593c4.036 0 7.321-3.274 7.321-7.321v-210.14c0-4.036-3.285-7.321-7.321-7.321h20.593c4.037 0 7.321 3.285 7.321 7.321z" fill="#46cc8d"/><circle cx="76.642" cy="442.001" fill="#fe7c66" r="34.29"/><path d="m110.933 442.006c0 18.935-15.352 34.287-34.287 34.287-7.393 0-14.25-2.337-19.852-6.322.175.01.34.01.515.01 18.935 0 34.287-15.352 34.287-34.287 0-11.542-5.704-21.756-14.436-27.975 18.699.267 33.773 15.516 33.773 34.287z" fill="#fe6c55"/><path d="m511.996 88.451c0 48.553-39.36 87.912-87.912 87.912-6.95 0-13.711-.806-20.196-2.331-38.818-9.125-67.716-43.979-67.716-85.581 0-47.598 37.827-86.36 85.058-87.867.948-.03 1.899-.045 2.854-.045 48.552 0 87.912 39.36 87.912 87.912z" fill="#ffd15b"/><path d="m512 88.447c0 48.558-39.363 87.921-87.921 87.921-6.631 0-13.127-.731-19.346-2.141 47.971-.669 86.674-39.776 86.674-87.891 0-41.927-29.363-77.014-68.655-85.787.432-.02.884-.013 1.326-.013 48.559 0 87.922 39.363 87.922 87.911z" fill="#ffc344"/></g><g><path d="m427.669 434.501h-169.124v-3.985c0-4.142-3.357-7.5-7.5-7.5s-7.5 3.358-7.5 7.5v3.985h-89.304c-4.143 0-7.5 3.358-7.5 7.5s3.357 7.5 7.5 7.5h89.304v3.985c0 4.142 3.357 7.5 7.5 7.5s7.5-3.358 7.5-7.5v-3.985h169.124c4.143 0 7.5-3.358 7.5-7.5s-3.357-7.5-7.5-7.5z" fill="#8ac9fe"/><g fill="#08b865"><path d="m191.26 305.869c1.133 3.003 3.987 4.854 7.018 4.854.88 0 1.775-.156 2.647-.485 3.875-1.463 5.831-5.79 4.368-9.665l-31.457-83.355c-.025-.068-.052-.136-.08-.204-1.457-3.545-4.875-5.835-8.708-5.835h-.007c-3.836.003-7.255 2.298-8.708 5.849-.023.058-.047.115-.068.173l-31.745 83.351c-1.475 3.871.469 8.204 4.34 9.678 3.864 1.476 8.203-.468 9.678-4.339l6.067-15.928h40.653zm-40.943-30.907 14.707-38.614 14.573 38.614z"/><path d="m322.11 309.929c11.683 0 21.499-7.485 23.34-17.797 1.392-7.792-2.105-17.955-16.091-23.114-6.446-2.378-12.458-4.965-14.444-5.833-1.021-.876-1.037-2.035-.943-2.685.113-.794.702-2.738 3.7-3.641 7.116-2.14 13.793 3.09 14.012 3.264 3.17 2.625 7.87 2.204 10.523-.951 2.665-3.171 2.256-7.902-.915-10.567-.521-.437-12.898-10.643-27.946-6.107-7.7 2.32-13.149 8.401-14.223 15.872-1.009 7.029 2.039 13.791 7.953 17.647.332.216.68.406 1.042.567.311.139 7.715 3.434 16.05 6.509 1.686.622 7.138 2.921 6.516 6.404-.477 2.67-3.814 5.433-8.573 5.433-5.104 0-10.008-2.049-13.118-5.481-2.782-3.07-7.526-3.301-10.594-.521-3.069 2.781-3.303 7.524-.521 10.594 5.994 6.613 14.826 10.407 24.232 10.407z"/><path d="m246.623 309.929c7.282 0 14.044-2.268 19.616-6.135.642 3.49 3.699 6.135 7.376 6.135 4.143 0 7.5-3.358 7.5-7.5v-80.499c0-4.142-3.357-7.5-7.5-7.5s-7.5 3.358-7.5 7.5v25.063c-5.549-3.815-12.264-6.05-19.492-6.05-19.02 0-34.492 15.473-34.492 34.492 0 19.021 15.473 34.494 34.492 34.494zm0-53.985c10.748 0 19.492 8.744 19.492 19.492 0 10.749-8.744 19.493-19.492 19.493s-19.492-8.744-19.492-19.493c0-10.748 8.744-19.492 19.492-19.492z"/></g><path d="m435.569 82.049c-2.223-.82-4.554-1.542-6.808-2.239-7.521-2.328-14.626-4.526-17.284-9.831-1.491-2.977-.949-5.585-.232-7.25 1.21-2.808 3.833-5.056 7.017-6.015 12.704-3.824 24.215 5.383 24.461 5.583 3.171 2.64 7.882 2.223 10.539-.939 2.665-3.17 2.256-7.901-.915-10.567-.496-.416-8.827-7.287-20.764-9.406v-8.523c0-4.142-3.357-7.5-7.5-7.5s-7.5 3.358-7.5 7.5v8.796c-.875.195-1.758.424-2.647.692-7.479 2.253-13.481 7.517-16.466 14.442-2.796 6.488-2.584 13.557.598 19.905 5.522 11.024 17.021 14.583 26.26 17.441 2.161.669 4.203 1.3 6.051 1.982 8.717 3.215 13.149 8.236 12.16 13.775-.986 5.522-7.443 11.234-16.543 11.234-8.694 0-17.085-3.532-22.446-9.448-2.783-3.07-7.526-3.301-10.594-.521-3.069 2.782-3.303 7.525-.521 10.594 6.142 6.777 14.772 11.497 24.149 13.417v8.867c0 4.142 3.357 7.5 7.5 7.5s7.5-3.358 7.5-7.5v-8.356c13-2.096 23.615-11.351 25.722-23.15 1.818-10.189-2.937-23.548-21.737-30.483z" fill="#feb237"/><path d="m75.18 434.651c-3.518.71-6.04 3.726-6.04 7.35 0 1.269.347 2.526.965 3.632 1.343 2.403 3.796 3.868 6.535 3.868 1.98 0 3.91-.8 5.3-2.2 1.385-1.395 2.2-3.331 2.2-5.3.001-4.65-4.427-8.265-8.96-7.35z" fill="#fd544c"/></g></g></svg>