<svg id="Line" enable-background="new 0 0 496 496" height="512" viewBox="0 0 496 496" width="512" xmlns="http://www.w3.org/2000/svg"><g><g><g><path d="m456 104h-416c-8.84 0-16 7.16-16 16v304h448v-304c0-8.84-7.16-16-16-16z" fill="#ccd1d9"/></g><g><path d="m56 136h384v256h-384z" fill="#69d6f4"/></g><g><path d="m480 424c4.42 0 8 3.58 8 8 0 15.46-6.27 29.46-16.4 39.6-10.14 10.13-24.14 16.4-39.6 16.4h-368c-30.93 0-56-25.07-56-56 0-2.21.9-4.21 2.34-5.66 1.45-1.44 3.45-2.34 5.66-2.34h8 448z" fill="#969faa"/></g><g><path d="m312 222.5c-1.14-.29-2.29-.56-3.45-.79l-28.55-5.71v-21.46c-10.01 3.54-20.78 5.46-32 5.46s-21.99-1.92-32-5.46v21.46l-28.55 5.71c-1.16.23-2.31.5-3.45.79-28.11 7.24-48 32.65-48 61.97v107.53h32 160 32v-107.53c0-29.32-19.89-54.73-48-61.97z" fill="#f0d0b4"/></g><g><path d="m325.06 281.22c1.92 4.64 2.94 9.66 2.94 14.78 0 10.24-4.07 20.07-11.31 27.31l-4.69 4.69h-128l-4.69-4.69c-7.24-7.24-11.31-17.07-11.31-27.31 0-5.12 1.02-10.14 2.94-14.78s4.75-8.91 8.37-12.53l4.69-4.69h128l4.69 4.69c3.62 3.62 6.45 7.89 8.37 12.53z" fill="#ef7385"/></g><g><path d="m344 104c0 11.22-1.92 21.99-5.46 32-9.64 27.28-31.26 48.9-58.54 58.54-10.01 3.54-20.78 5.46-32 5.46s-21.99-1.92-32-5.46c-27.28-9.64-48.9-31.26-58.54-58.54-3.54-10.01-5.46-20.78-5.46-32 0-53.02 42.98-96 96-96s96 42.98 96 96z" fill="#ffeaa7"/></g><g><path d="m294.19 97c1.17 2.11 1.81 4.51 1.81 7 0 4.98-2.56 9.6-6.78 12.24l-54.2 33.87c-1.97 1.24-4.26 1.89-6.59 1.89-6.86 0-12.43-5.57-12.43-12.43v-71.14c0-3.43 1.39-6.54 3.64-8.79s5.36-3.64 8.79-3.64c2.33 0 4.62.65 6.59 1.89l54.2 33.87c2.11 1.32 3.8 3.14 4.97 5.24z" fill="#ef7385"/></g></g><g><path d="m480 416v-296c0-13.233-10.767-24-24-24h-104.305c-4.098-53.622-49.041-96-103.695-96s-99.597 42.378-103.695 96h-104.305c-13.233 0-24 10.767-24 24v296c-8.822 0-16 7.178-16 16 0 35.29 28.71 64 64 64h368c35.29 0 64-28.71 64-64 0-8.822-7.178-16-16-16zm-272-216.005v9.446l-22.121 4.424c-33.537 6.708-57.879 36.4-57.879 70.603v99.532h-64v-240h88.005c10.551 25.228 30.767 45.444 55.995 55.995zm103.029 117.661-2.343 2.344h-121.372l-2.344-2.344c-5.784-5.784-8.97-13.475-8.97-21.656s3.186-15.872 8.971-21.656l2.344-2.344h121.372l2.344 2.344c5.783 5.784 8.969 13.475 8.969 21.656s-3.186 15.872-8.971 21.656zm-7.029-61.656h-112v-27.042l32-6.399v-17.359c7.707 1.828 15.742 2.8 24 2.8s16.293-.973 24-2.8v17.359l32 6.4zm-160 28.468c0-21.927 12.87-41.462 32-50.575v26.794l-2.344 2.343c-8.806 8.806-13.656 20.515-13.656 32.97s4.85 24.164 13.656 32.971l2.344 2.343v7.842c0 15.879-4.288 31.291-12.417 44.845h-19.583zm48 54.687v-3.155h112v3.155c0 15.648 3.521 30.912 10.251 44.845h-132.502c6.73-13.932 10.251-29.197 10.251-44.845zm140.417 44.845c-8.129-13.554-12.417-28.966-12.417-44.845v-7.842l2.344-2.343c8.806-8.806 13.656-20.515 13.656-32.97s-4.85-24.164-13.656-32.971l-2.344-2.342v-26.793c19.13 9.113 32 28.647 32 50.575v99.531zm-22.297-170.135-22.12-4.424v-9.446c25.228-10.552 45.444-30.767 55.996-55.995h88.004v240h-64v-99.532c0-34.202-24.342-63.895-57.88-70.603zm-62.12-197.865c48.523 0 88 39.477 88 88s-39.477 88-88 88-88-39.477-88-88 39.477-88 88-88zm-216 104c0-4.411 3.589-8 8-8h104.305c.417 5.462 1.264 10.805 2.496 16h-98.801v272h400v-272h-98.8c1.232-5.195 2.078-10.538 2.496-16h104.304c4.411 0 8 3.589 8 8v296h-432zm400 360h-368c-26.467 0-48-21.533-48-48h464c0 26.467-21.533 48-48 48z"/><path d="m228.434 160c3.832 0 7.576-1.073 10.831-3.105l54.19-33.87c6.604-4.127 10.545-11.239 10.545-19.025s-3.941-14.898-10.544-19.024l-54.194-33.871c-3.252-2.032-6.996-3.105-10.828-3.105-11.268 0-20.434 9.166-20.434 20.434v71.133c0 11.267 9.166 20.433 20.434 20.433zm-4.434-91.566c0-2.444 1.989-4.434 4.434-4.434.832 0 1.646.233 2.351.674l54.192 33.87c1.892 1.184 3.023 3.223 3.023 5.456s-1.131 4.272-3.024 5.456l-54.188 33.869c-.707.441-1.521.675-2.354.675-2.444 0-4.434-1.989-4.434-4.434z"/><circle cx="376" cy="456" r="8"/><circle cx="408" cy="456" r="8"/><circle cx="344" cy="456" r="8"/></g></g></svg>