<svg id="Layer_5" enable-background="new 0 0 62 62" height="512" viewBox="0 0 62 62" width="512" xmlns="http://www.w3.org/2000/svg"><g><g><g><path d="m30 57h6v4h-1-34v-4h9 18z" fill="#d3a06c"/></g><g><path d="m28 53v4h-18v-2c0-1.1.9-2 2-2h4 8z" fill="#969faa"/></g><g><path d="m30 45v4h-2-2c-1.1 0-2 .9-2 2v2h-8v-8z" fill="#aab2bd"/></g><g><path d="m42.12 41c.19 0 .37 0 .56-.01v.01c-1.1 0-2.16.34-3.02.94-.88.61-1.56 1.47-1.95 2.51l-.21.55h-7.5-14-11c-2.21 0-4-1.79-4-4v-4h29.05c.56.63 1.19 1.19 1.86 1.69 1.99 1.45 4.44 2.31 7.09 2.31h1 1z" fill="#ccd1d9"/></g><g><path d="m30.05 37h-29.05v-16c0-2.21 1.79-4 4-4h8 12c0 1.1.9 2 2 2v10c0 1.4.24 2.75.68 4h.01c.52 1.49 1.33 2.85 2.36 4z" fill="#69d6f4"/></g><g><path d="m48 46.32v14.68h-12v-4h1.32c5.9 0 10.68-4.78 10.68-10.68z" fill="#fcd770"/></g><g><path d="m36 49 1.5-4 .21-.55c.39-1.04 1.07-1.9 1.95-2.51.86-.6 1.92-.94 3.02-.94 1.47 0 2.8.6 3.76 1.56s1.56 2.29 1.56 3.76c0 5.9-4.78 10.68-10.68 10.68h-1.32-6-2v-4-4h2z" fill="#fcd770"/></g><g><path d="m28 49v4h-4v-2c0-1.1.9-2 2-2z" fill="#f0d0b4"/></g><g><path d="m47 31v9.35.01c-1.41.38-2.86.59-4.32.63-.19.01-.37.01-.56.01h-1.12-1-1c-2.65 0-5.1-.86-7.09-2.31v-.01c1.86-.84 3.09-2.71 3.09-4.8v-.88h-7.31-.01c-.44-1.25-.68-2.6-.68-4h7.19c4.95 0 9.64-2.2 12.81-6h2c2.21 0 4 1.79 4 4 0 1.1-.45 2.1-1.17 2.83-.73.72-1.73 1.17-2.83 1.17z" fill="#f0d0b4"/></g><g><path d="m49 23h11.97c-.36 7.9-5.62 14.77-13.22 17.14-.25.08-.5.15-.75.21v-9.35h2c1.1 0 2.1-.45 2.83-1.17.72-.73 1.17-1.73 1.17-2.83 0-2.21-1.79-4-4-4z" fill="#b27946"/></g><g><path d="m47 19h-1-19c-1.1 0-2-.9-2-2 0-3.86 1.57-7.36 4.1-9.9 2.54-2.53 6.04-4.1 9.9-4.1h3.03c9.47 0 17.31 6.93 18.74 16z" fill="#b27946"/></g><g><path d="m60.77 19c.15.97.23 1.96.23 2.97v.15c0 .3-.01.59-.03.88h-11.97-2v-4z" fill="#aab2bd"/></g><g><path d="m35 33.88c0 2.09-1.23 3.96-3.09 4.8v.01c-.67-.5-1.3-1.06-1.86-1.69-1.03-1.15-1.84-2.51-2.36-4h7.31z" fill="#ff826e"/></g><g><path d="m27 19h19 1v4c-3.17 3.8-7.86 6-12.81 6h-7.19z" fill="#4fc1e9"/></g><g><path d="m31 22h8c-.62 1.22-1.55 2.22-2.67 2.92-1.12.69-2.43 1.08-3.8 1.08h-1.53z" fill="#d3a06c"/></g><g><path d="m5 21h18v12h-18z" fill="#fcd770"/></g><g><path d="m13 1c4.42 0 8 3.58 8 8s-3.58 8-8 8-8-3.58-8-8 3.58-8 8-8z" fill="#e6e9ed"/></g><g><path d="m17 9-7 4v-8z" fill="#ff826e"/></g></g><g><path d="m42.027 2h-3.027c-7.933 0-14.431 6.195-14.949 14h-5.406c2.043-1.651 3.355-4.174 3.355-7 0-4.963-4.038-9-9-9s-9 4.037-9 9c0 2.826 1.312 5.349 3.356 7h-2.356c-2.757 0-5 2.243-5 5v20c0 2.757 2.243 5 5 5h10v6h-3c-1.654 0-3 1.346-3 3v1h-9v6h35 2 12v-15.684c0-1.952-.891-3.7-2.287-4.859.448-.107.894-.225 1.336-.362 8.345-2.609 13.951-10.235 13.951-18.977v-.146c0-11.012-8.96-19.972-19.973-19.972zm6.973 20h-1v-2h11.886c.071.649.114 1.305.114 1.973v.027zm3 5c0 1.654-1.346 3-3 3h-3v9.569c-1.274.283-2.573.431-3.881.431h-1.119-1-1c-1.894 0-3.677-.481-5.235-1.328 1.39-1.175 2.235-2.921 2.235-4.795v-1.877h-7.574c-.183-.645-.313-1.313-.376-2h6.139c5.096 0 9.887-2.191 13.244-6h1.567c1.654 0 3 1.346 3 3zm-6-4.391c-2.98 3.423-7.258 5.391-11.81 5.391h-6.19v-8h18zm-13.987 14.881c-1.157-.954-2.109-2.144-2.799-3.49h4.784c-.041 1.427-.796 2.735-1.985 3.49zm6.987-33.49h3.027c8.544 0 15.701 5.998 17.516 14h-8.568c.634-.838 1.025-1.87 1.025-3 0-2.757-2.243-5-5-5h-.586c-1.18 0-2.288.459-3.122 1.293l1.415 1.414c.456-.456 1.062-.707 1.707-.707h.586c1.654 0 3 1.346 3 3s-1.346 3-3 3h-1-19c-.551 0-1-.448-1-1 0-7.168 5.832-13 13-13zm-33 5c0-3.859 3.14-7 7-7s7 3.141 7 7-3.14 7-7 7-7-3.141-7-7zm-1 9h19.184c.302.847.969 1.514 1.816 1.816v9.184c0 2.578.764 4.977 2.063 7h-26.063v-15c0-1.654 1.346-3 3-3zm-3 23v-3h27.641c2.18 2.266 5.17 3.737 8.501 3.956-.561.582-1.019 1.267-1.326 2.044h-31.816c-1.654 0-3-1.346-3-3zm33.307 7h-4.307v-2h5.057zm-8.307 4h-2v-1c0-.552.449-1 1-1h1zm-10-6h12v2h-3c-1.654 0-3 1.346-3 3v1h-6zm-6 9c0-.552.449-1 1-1h15v2h-16zm-9 5v-2h28 5v2zm45 0h-10v-2h.32c4.024 0 7.579-2.045 9.68-5.151zm-9.68-4h-.32-7-1v-6h6.279l.772 2.316 1.897-.633-.888-2.664 1.582-4.219c.629-1.675 2.253-2.8 4.042-2.8 2.38 0 4.316 1.937 4.316 4.32 0 5.337-4.342 9.68-9.68 9.68zm10.68-17.009v-6.991h1c2.757 0 5-2.243 5-5 0-1.13-.391-2.162-1.026-3h6.916c-.713 6.867-5.289 12.694-11.89 14.991z"/><path d="m46.211 27.342-.105.211 1.789.895.105-.212c.381-.762 1.147-1.236 2-1.236v-2c-1.615 0-3.067.897-3.789 2.342z"/><path d="m31 27h1.528c3.14 0 5.962-1.744 7.367-4.553.155-.31.138-.678-.044-.973s-.504-.474-.851-.474h-8c-.552 0-1 .447-1 1v4c0 .553.448 1 1 1zm1-4h5.109c-1.161 1.262-2.804 2-4.582 2h-.527z"/><circle cx="18" cy="41" r="1"/><circle cx="22" cy="41" r="1"/><circle cx="26" cy="41" r="1"/><path d="m17.496 8.132-7-4c-.309-.176-.689-.175-.998.003-.308.179-.498.509-.498.865v8c0 .356.19.686.498.865.155.09.329.135.502.135.171 0 .342-.044.496-.132l7-4c.312-.178.504-.51.504-.868s-.192-.69-.504-.868zm-6.496 3.144v-4.552l3.984 2.276z"/><path d="m24 20h-20v14h20zm-2 12h-16v-10h16z"/></g></g></svg>