<svg height="496pt" viewBox="0 -3 496 496" width="496pt" xmlns="http://www.w3.org/2000/svg"><path d="m192 378.046875 8 104h-48l8-104zm0 0" fill="#ef7385"/><path d="m176 322.046875 32.558594 23.28125-.558594.71875-16 32h-32l-16-32-.558594-.71875zm0 0" fill="#ef7385"/><path d="m329.441406 321.167969v.878906c-.480468 0-.960937 0-1.441406 0-44.160156 0-80 35.839844-80 80s35.839844 80 80 80h-128l-8-104 16-32 .558594-.71875 23.441406 16.71875 16-72 .320312-1.519531 49.121094 9.839844c13.839844 2.722656 25.277344 11.28125 32 22.800781zm0 0" fill="#e6e9ed"/><path d="m64 482.046875h-56v-136.640625c0-22.878906 16.160156-42.558594 38.558594-47.039062l56.800781-11.359376.640625 3.039063 16 72 23.441406-16.71875.558594.71875 16 32-8 104zm0 0" fill="#e6e9ed"/><path d="m248.320312 288.527344-.320312 1.519531-16 72-23.441406-16.71875-32.558594-23.28125 46.480469-38.71875zm0 0" fill="#aab2bd"/><path d="m176 322.046875-32.558594 23.28125-23.441406 16.71875-16-72-.640625-3.039063 24.640625-4.960937zm0 0" fill="#aab2bd"/><g fill="#f0d0b4"><path d="m222.480469 283.328125-46.480469 38.71875-48-40v-32l1.199219-1.359375c12.5625 10.800781 28.960937 17.359375 46.800781 17.359375 14.800781 0 28.558594-4.480469 40-12.160156v28.160156zm0 0"/><path d="m248 146.046875c17.679688 0 32 14.320313 32 32s-14.320312 32-32 32l-1.679688-.398437c1.121094-5.039063 1.679688-10.242188 1.679688-15.601563v-38.640625c0-3.117188-.398438-6.160156-1.28125-9.039062zm0 0"/><path d="m104 194.046875c0 5.359375.558594 10.5625 1.679688 15.601563l-1.679688.398437c-17.679688 0-32-14.320313-32-32s14.320312-32 32-32l1.28125.320313c-.882812 2.878906-1.28125 5.921874-1.28125 9.039062zm0 0"/><path d="m216 253.886719c-11.441406 7.679687-25.199219 12.160156-40 12.160156-17.839844 0-34.238281-6.558594-46.800781-17.359375-1.4375-1.199219-2.800781-2.480469-4.078125-3.757812-9.519532-9.441407-16.402344-21.683594-19.441406-35.28125-1.121094-5.039063-1.679688-10.242188-1.679688-15.601563v-38.640625c0-3.117188.398438-6.160156 1.28125-9.039062 3.917969-14 16.796875-24.320313 32.078125-24.320313 14.480469 0 28.402344 5.761719 38.640625 16 10.238281-10.238281 24.160156-16 38.640625-16 9.199219 0 17.519531 3.761719 23.597656 9.761719 3.921875 4 6.960938 8.960937 8.480469 14.558594.882812 2.878906 1.28125 5.921874 1.28125 9.039062v38.640625c0 5.359375-.558594 10.5625-1.679688 15.601563-4.082031 18.398437-15.199218 34.160156-30.320312 44.238281zm0 0"/></g><path d="m102.480469 56.527344c-9.519531 9.519531-17.199219 20.878906-22.480469 33.519531l-6.960938-4.640625c-10.640624-7.117188-17.039062-19.039062-17.039062-31.757812 0-7.601563 2.238281-14.960938 6.398438-21.199219l9.601562-14.402344c5.039062 15.121094 16.878906 26.960937 32 32l2.398438 2.722656c-1.359376 1.277344-2.636719 2.476563-3.917969 3.757813zm0 0" fill="#e6e9ed"/><path d="m248 50.046875c15.121094-5.039063 26.960938-16.878906 32-32l9.601562 14.402344c4.160157 6.238281 6.398438 13.597656 6.398438 21.199219 0 12.71875-6.398438 24.640624-17.039062 31.757812l-6.960938 4.640625c-5.921875-14.320313-15.039062-27.039063-26.398438-37.277344zm0 0" fill="#e6e9ed"/><path d="m280 130.046875v48c0-17.679687-14.320312-32-32-32l-1.28125.320313c-1.519531-5.597657-4.558594-10.558594-8.480469-14.558594-6.078125-6-14.398437-9.761719-23.597656-9.761719-14.480469 0-28.402344 5.761719-38.640625 16-10.238281-10.238281-24.160156-16-38.640625-16-15.28125 0-28.160156 10.320313-32.078125 24.320313l-1.28125-.320313c-17.679688 0-32 14.320313-32 32v-48c0-14.160156 2.878906-27.679687 8-40 5.28125-12.640625 12.960938-24 22.480469-33.519531 1.28125-1.28125 2.558593-2.480469 3.917969-3.757813 18.402343-16.5625 42.800781-26.722656 69.601562-26.722656s51.199219 10.160156 69.601562 26.722656c11.359376 10.238281 20.476563 22.957031 26.398438 37.277344 5.121094 12.320313 8 25.839844 8 40zm0 0" fill="#b27946"/><path d="m488 282.046875v-16c0-4.398437-3.601562-8-8-8h-144c-4.398438 0-8 3.601563-8 8v16c0 4.402344 3.601562 8 8 8-4.398438 0-8 3.601563-8 8v16c0 4.402344 3.601562 8 8 8h-6.558594c25.597656.480469 48.238282 12.960937 62.558594 32 7.039062 9.359375 12.078125 20.320313 14.480469 32.242187.960937 5.039063 1.519531 10.320313 1.519531 15.757813 0 18-6 34.640625-16 48-14.640625 19.441406-37.839844 32-64 32h152c4.398438 0 8-3.597656 8-8v-16c0-4.398437-3.601562-8-8-8 4.398438 0 8-3.597656 8-8v-16c0-4.398437-3.601562-8-8-8 4.398438 0 8-3.597656 8-8v-16c0-4.398437-3.601562-8-8-8 4.398438 0 8-3.597656 8-8v-16c0-4.398437-3.601562-8-8-8 4.398438 0 8-3.597656 8-8v-16c0-4.398437-3.601562-8-8-8 4.398438 0 8-3.597656 8-8v-16c0-4.398437-3.601562-8-8-8 4.398438 0 8-3.597656 8-8zm0 0" fill="#ffc729"/><path d="m329.441406 322.046875c25.597656.480469 48.238282 12.960937 62.558594 32 7.039062 9.359375 12.078125 20.320313 14.480469 32.242187.960937 5.039063 1.519531 10.320313 1.519531 15.757813 0 18-6 34.640625-16 48-14.640625 19.441406-37.839844 32-64 32-44.160156 0-80-35.839844-80-80s35.839844-80 80-80zm0 0" fill="#fcd770"/><path d="m496 266.046875c0-8.824219-7.175781-16-16-16h-144c-8.824219 0-16 7.175781-16 16v16c0 2.929687.847656 5.640625 2.222656 8-1.375 2.359375-2.222656 5.074219-2.222656 8v1.441406c-6.257812-4.359375-13.382812-7.472656-21.015625-9l-74.984375-14.992187v-17.601563c13.296875-10.023437 23.433594-24.023437 28.449219-40.292969 19.941406-2.25 35.550781-19.027343 35.550781-39.554687v-48c0-12.910156-2.3125-25.269531-6.34375-36.824219l1.777344-1.183594c12.878906-8.574218 20.566406-22.941406 20.566406-38.429687 0-9.144531-2.679688-18-7.761719-25.617187l-18.652343-27.992188-5.171876 15.511719c-4.207031 12.617187-14.246093 22.671875-26.855468 26.914062-19.125-15.21875-43.277344-24.378906-69.558594-24.378906s-50.433594 9.160156-69.558594 24.378906c-12.609375-4.242187-22.648437-14.289062-26.855468-26.914062l-5.171876-15.511719-18.652343 27.992188c-5.082031 7.617187-7.761719 16.480468-7.761719 25.617187 0 15.488281 7.6875 29.847656 20.566406 38.429687l1.777344 1.183594c-4.03125 11.554688-6.34375 23.914063-6.34375 36.824219v48c0 20.527344 15.609375 37.304687 35.550781 39.554687 3.960938 12.839844 11.089844 24.285157 20.449219 33.476563v24.417969l-74.984375 14.992187c-26.085937 5.214844-45.015625 28.320313-45.015625 54.910157v144.648437h480c8.824219 0 16-7.175781 16-16v-16c0-2.925781-.847656-5.640625-2.222656-8 1.375-2.359375 2.222656-5.070313 2.222656-8v-16c0-2.925781-.847656-5.640625-2.222656-8 1.375-2.359375 2.222656-5.070313 2.222656-8v-16c0-2.925781-.847656-5.640625-2.222656-8 1.375-2.359375 2.222656-5.070313 2.222656-8v-16c0-2.925781-.847656-5.640625-2.222656-8 1.375-2.359375 2.222656-5.070313 2.222656-8v-16c0-2.925781-.847656-5.640625-2.222656-8 1.375-2.359375 2.222656-5.070313 2.222656-8v-16c0-2.925781-.847656-5.640625-2.222656-8 1.375-2.359375 2.222656-5.070313 2.222656-8zm-160 0h144v16h-16v16h16v16h-144v-16h112v-16h-112zm144 80h-84.167969c-5.039062-6.085937-10.910156-11.445313-17.390625-16h101.558594zm0 32h-67.40625c-1.585938-5.582031-3.707031-10.925781-6.304688-16h73.710938zm0 32h-16v16h16v16h-73.710938c2.597657-5.070313 4.71875-10.414063 6.304688-16h35.40625v-16h-32.40625c.238281-2.640625.40625-5.292969.40625-8 0-2.703125-.167969-5.359375-.40625-8h64.40625zm-312.59375-24h17.1875l6.765625 88h-30.71875zm19.648438-16h-22.109376l-11.152343-22.304687 22.207031-15.863282 22.207031 15.863282zm2.023437-48.480469 35.5625-29.628906 14.113281 2.824219-11.945312 53.75zm66.585937-120.886718c.183594-2.191407.335938-4.390626.335938-6.632813v-38.527344c9.289062 3.3125 16 12.113281 16 22.527344 0 10.539063-6.871094 19.417969-16.335938 22.632813zm25.390626-166.625 1.875 2.816406c3.316406 4.976562 5.070312 10.761718 5.070312 16.738281 0 9.847656-4.785156 18.964844-12.800781 24.621094-4.582031-8.734375-10.3125-16.742188-16.941407-23.933594 9.246094-4.664063 17.148438-11.625 22.796876-20.242187zm-217.054688 19.554687c0-5.976563 1.753906-11.769531 5.070312-16.746094l1.875-2.816406c5.648438 8.617187 13.550782 15.585937 22.789063 20.242187-6.628906 7.191407-12.359375 15.199219-16.941406 23.933594-8.007813-5.636718-12.792969-14.765625-12.792969-24.613281zm16 124.4375c0-10.414063 6.710938-19.214844 16-22.527344v38.527344c0 2.242187.152344 4.441406.335938 6.632813-9.464844-3.214844-16.335938-12.09375-16.335938-22.632813zm19.71875-39.566406c-7.367188.800781-14.101562 3.519531-19.71875 7.765625v-16.199219c0-52.933594 43.0625-96 96-96s96 43.066406 96 96v16.210937c-5.617188-4.257812-12.351562-6.976562-19.71875-7.769531-6.496094-14.375-20.890625-24.441406-37.65625-24.441406-13.960938 0-27.671875 4.800781-38.625 13.34375-10.953125-8.542969-24.664062-13.34375-38.625-13.34375-16.765625 0-31.160156 10.066406-37.65625 24.433594zm12.28125 55.566406v-38.621094c0-13.992187 11.382812-25.378906 25.375-25.378906 12.273438 0 24.289062 4.976563 32.96875 13.65625l5.65625 5.65625 5.65625-5.65625c8.679688-8.679687 20.695312-13.65625 32.96875-13.65625 13.992188 0 25.375 11.386719 25.375 25.378906v38.621094c0 35.289063-28.710938 64-64 64s-64-28.710937-64-64zm64 80c11.375 0 22.191406-2.421875 32-6.726563v17.640626l-32 26.664062-40-33.335938v-15.074218c11.785156 6.847656 25.425781 10.832031 40 10.832031zm-50.191406 16.59375 37.101562 30.917969-37.726562 26.945312-12.289063-55.289062zm-109.808594 54.757813c0-19 13.519531-35.496094 32.160156-39.222657l49.046875-9.808593 17.609375 79.226562 25.800782-18.433594 11.238281 22.488282-7.261719 94.398437h-72.59375v-104h-16v104h-40zm191.40625 128.648437-7.261719-94.398437 11.238281-22.488282 25.800782 18.433594 17.265625-77.699219 41.390625 8.28125c6.824218 1.367188 12.96875 4.648438 18.136718 9.105469-41.863281 6.742188-73.976562 43.023438-73.976562 86.765625 0 29.761719 14.886719 56.066406 37.558594 72zm48.59375-72c0-39.703125 32.296875-72 72-72s72 32.296875 72 72c0 39.707031-32.296875 72-72 72s-72-32.292969-72-72zm224 72h-101.558594c6.480469-4.550781 12.351563-9.910156 17.390625-16h84.167969zm0 0"/><path d="m336 354.457031v-8.410156h-16v8.410156c-13.535156 1.957031-24 13.527344-24 27.589844 0 15.441406 12.558594 28 28 28h8c6.617188 0 12 5.386719 12 12 0 6.617187-5.382812 12-12 12h-8c-6.617188 0-12-5.382813-12-12v-4h-16v4c0 14.066406 10.464844 25.632813 24 27.59375v8.40625h16v-8.40625c13.535156-1.960937 24-13.527344 24-27.59375 0-15.4375-12.558594-28-28-28h-8c-6.617188 0-12-5.382813-12-12 0-6.613281 5.382812-12 12-12h8c6.617188 0 12 5.386719 12 12v4h16v-4c0-14.0625-10.464844-25.632813-24-27.589844zm0 0"/><path d="m224 162.046875c0 4.417969-3.582031 8-8 8s-8-3.582031-8-8 3.582031-8 8-8 8 3.582031 8 8zm0 0"/><path d="m144 162.046875c0 4.417969-3.582031 8-8 8s-8-3.582031-8-8 3.582031-8 8-8 8 3.582031 8 8zm0 0"/><path d="m176 234.046875c17.648438 0 32-14.351563 32-32h-16c0 8.824219-7.175781 16-16 16s-16-7.175781-16-16h-16c0 17.648437 14.351562 32 32 32zm0 0"/></svg>