<svg id="Capa_1" enable-background="new 0 0 512 512" height="512" viewBox="0 0 512 512" width="512" xmlns="http://www.w3.org/2000/svg"><g><path d="m397.423 94.374c-.559 0-1.11.031-1.666.042-6.357-26.669-30.324-46.507-58.939-46.509-18.43-24.535-47.77-40.407-80.818-40.407s-62.388 15.872-80.818 40.407c-28.615.002-52.582 19.84-58.939 46.509-.556-.011-1.108-.042-1.666-.042-44.632 0-80.813 36.181-80.813 80.813s36.181 80.813 80.813 80.813h282.846c44.632 0 80.813-36.181 80.813-80.813s-36.181-80.813-80.813-80.813z" fill="#deecf1"/><path d="m397.423 94.374c-.559 0-1.11.031-1.666.042-5.466-22.931-23.956-40.798-47.22-45.362.258 4.367.405 8.765.405 13.197 0 83.766-46.82 156.591-115.715 193.749h164.197c44.632 0 80.813-36.181 80.813-80.813-.001-44.632-36.182-80.813-80.814-80.813z" fill="#cbe5e8"/><g><path d="m320.65 133.127c0-36.018-29.454-65.157-65.589-64.644-34.053.483-62.222 27.831-63.653 61.857-.516 12.259 2.389 23.799 7.833 33.753 1.652 3.021 1.177 6.756-1.257 9.191l-1.207 1.207c-2.997 2.997-2.997 7.855 0 10.852l12.005 12.005c2.997 2.997 7.855 2.997 10.852 0v21.185h72.732v-21.186l.001.001c2.997 2.997 7.855 2.997 10.852 0l12.005-12.005c2.997-2.997 2.997-7.855 0-10.852l-1.209-1.209c-2.429-2.429-2.915-6.157-1.266-9.169 5.036-9.201 7.901-19.758 7.901-30.986z" fill="#fe646f"/><path d="m314.015 173.282c-2.428-2.429-2.915-6.157-1.266-9.169 5.036-9.2 7.902-19.757 7.902-30.985 0-24.626-13.774-46.03-34.033-56.946 2.337 7.802 3.609 16.064 3.609 24.626 0 47.334-38.372 85.706-85.705 85.706-2.316 0-4.603-.118-6.873-.299l11.135 11.135c2.997 2.997 7.855 2.997 10.852 0v21.185h72.732v-21.186l.001.001c2.997 2.997 7.855 2.997 10.852 0l12.005-12.005c2.997-2.997 2.997-7.855 0-10.852z" fill="#fd4755"/></g><g><path d="m240.848 474.195h30.305v30.305h-30.305z" fill="#b6c4cf"/><path d="m296.406 474.195h-80.813c-5.579 0-10.102-4.523-10.102-10.102v-44.447c0-5.579 4.523-10.102 10.102-10.102h80.813c5.579 0 10.102 4.523 10.102 10.102v44.447c0 5.579-4.523 10.102-10.102 10.102z" fill="#60b7ff"/><path d="m296.406 409.545h-18.024c0 25.66-11.11 48.721-28.776 64.65h46.8c5.579 0 10.102-4.523 10.102-10.102v-44.447c0-5.579-4.522-10.101-10.102-10.101z" fill="#26a6fe"/></g><g><path d="m438.839 474.195h30.305v30.305h-30.305z" fill="#b6c4cf"/><path d="m494.398 474.195h-80.813c-5.579 0-10.102-4.523-10.102-10.102v-44.447c0-5.579 4.523-10.102 10.102-10.102h80.813c5.579 0 10.102 4.523 10.102 10.102v44.447c0 5.579-4.523 10.102-10.102 10.102z" fill="#60b7ff"/><path d="m494.398 409.545h-18.024c0 25.66-11.11 48.721-28.776 64.65h46.8c5.579 0 10.102-4.523 10.102-10.102v-44.447c0-5.579-4.523-10.101-10.102-10.101z" fill="#26a6fe"/></g><g><path d="m42.856 474.195h30.305v30.305h-30.305z" fill="#b6c4cf"/><path d="m98.415 474.195h-80.813c-5.579 0-10.102-4.523-10.102-10.102v-44.447c0-5.579 4.523-10.102 10.102-10.102h80.813c5.579 0 10.102 4.523 10.102 10.102v44.447c-.001 5.579-4.523 10.102-10.102 10.102z" fill="#60b7ff"/><path d="m98.415 409.545h-18.024c0 25.66-11.11 48.721-28.776 64.65h46.8c5.579 0 10.102-4.523 10.102-10.102v-44.447c-.001-5.579-4.523-10.101-10.102-10.101z" fill="#26a6fe"/></g><g><path d="m114.58 263.5h282.84c48.7 0 88.32-39.615 88.32-88.31 0-47.356-37.464-86.127-84.311-88.23-8.784-26.517-32.797-44.938-60.866-46.449-3.594-4.459-7.529-8.623-11.732-12.412-3.078-2.772-7.818-2.527-10.593.55-2.772 3.077-2.526 7.819.55 10.593 4.386 3.953 8.436 8.386 12.038 13.176 1.416 1.885 3.637 2.993 5.994 2.993 24.687 0 45.923 16.757 51.644 40.749.829 3.477 4.008 5.874 7.562 5.756l.465-.018c.308-.013.616-.027.929-.027 40.429 0 73.32 32.892 73.32 73.32 0 40.423-32.892 73.31-73.32 73.31h-282.84c-40.429 0-73.32-32.887-73.32-73.31 0-40.429 32.892-73.32 73.32-73.32.312 0 .621.015.929.027l.465.018c3.587.102 6.733-2.281 7.562-5.756 5.721-23.992 26.957-40.749 51.644-40.749 2.359 0 4.58-1.109 5.997-2.996 17.857-23.778 45.13-37.415 74.823-37.415 12.125 0 23.927 2.286 35.086 6.798.969.456 2.052.712 3.194.712 3.033 0 5.775-1.828 6.937-4.631s.512-6.037-1.633-8.183c-.705-.704-1.543-1.261-2.465-1.639-13.074-5.346-26.909-8.057-41.119-8.057-33.232 0-63.848 14.717-84.568 40.511-28.067 1.513-52.077 19.935-60.861 46.449-46.847 2.104-84.311 40.874-84.311 88.23 0 48.695 39.62 88.31 88.32 88.31z"/><path d="m288.226 124.644-23.797 14.73c-3.522 2.18-4.61 6.803-2.43 10.324 1.419 2.293 3.872 3.554 6.384 3.554 1.347 0 2.711-.363 3.94-1.124l.451-.279v.611c0 4.143 3.357 7.5 7.5 7.5s7.5-3.357 7.5-7.5v-9.896l8.346-5.166c3.522-2.18 4.61-6.803 2.43-10.324-2.18-3.522-6.802-4.61-10.324-2.43z"/><path d="m243.617 153.252c2.511 0 4.965-1.261 6.384-3.554 2.181-3.521 1.093-8.145-2.43-10.324l-23.797-14.73c-3.52-2.181-8.143-1.094-10.324 2.43-2.181 3.521-1.093 8.145 2.43 10.324l8.346 5.166v9.896c0 4.143 3.357 7.5 7.5 7.5s7.5-3.357 7.5-7.5v-.611l.451.279c1.229.762 2.593 1.124 3.94 1.124z"/><path d="m261.303 166.065c-2.928-2.928-7.678-2.928-10.605 0l-7.348 7.347c-2.93 2.929-2.93 7.678-.001 10.606 2.93 2.929 7.679 2.93 10.606.001l2.045-2.045 2.045 2.045c1.464 1.464 3.384 2.196 5.303 2.196s3.839-.732 5.304-2.197c2.929-2.929 2.929-7.678-.001-10.606z"/><path d="m328.15 133.127c0-19.466-7.635-37.713-21.497-51.38-13.86-13.665-32.212-21.033-51.699-20.763-38.23.542-69.435 30.869-71.039 69.04-.554 13.169 2.471 26.194 8.746 37.669.062.112.07.236.019.287l-1.207 1.208c-5.914 5.916-5.914 15.542.001 21.459l12.005 12.005c2.371 2.371 5.389 3.86 8.655 4.305v11.576c0 4.143 3.357 7.5 7.5 7.5h72.732c4.142 0 7.5-3.357 7.5-7.5l.001-11.576c3.267-.444 6.284-1.934 8.654-4.305l12.007-12.006c5.914-5.916 5.914-15.542-.003-21.461l-1.207-1.207c-.051-.051-.047-.162.01-.266 5.772-10.545 8.822-22.504 8.822-34.585zm-19.436 45.461 1.207 1.206c.067.068.067.179.001.246l-12.007 12.006c-.059.06-.187.058-.245-.001-2.145-2.145-5.371-2.787-8.173-1.627-2.804 1.161-4.631 3.896-4.631 6.93v13.686h-8.234v-2.602c0-4.143-3.357-7.5-7.5-7.5s-7.5 3.357-7.5 7.5v2.602h-11.264v-2.602c0-4.143-3.357-7.5-7.5-7.5s-7.5 3.357-7.5 7.5v2.602h-8.234v-13.685c0-3.033-1.827-5.769-4.631-6.93-2.803-1.159-6.028-.518-8.173 1.627-.059.06-.187.058-.245-.001l-12.005-12.004c-.067-.068-.067-.179 0-.246l1.207-1.207c4.807-4.807 5.824-12.078 2.534-18.093-4.966-9.08-7.358-19.398-6.92-29.84 1.271-30.228 25.986-54.243 56.266-54.673.279-.004.558-.006.837-.006 15.119 0 29.338 5.824 40.118 16.452 10.98 10.826 17.028 25.279 17.028 40.698 0 9.571-2.414 19.04-6.979 27.384-3.236 5.911-2.192 13.344 2.543 18.078z"/><path d="m248.5 286.305v92.936c0 4.143 3.357 7.5 7.5 7.5s7.5-3.357 7.5-7.5v-92.936c0-4.143-3.357-7.5-7.5-7.5s-7.5 3.357-7.5 7.5z"/><path d="m446.492 379.24c0 4.143 3.357 7.5 7.5 7.5s7.5-3.357 7.5-7.5v-31.574c0-4.143-3.357-7.5-7.5-7.5h-109.679v-53.861c0-4.143-3.357-7.5-7.5-7.5s-7.5 3.357-7.5 7.5v61.361c0 4.143 3.357 7.5 7.5 7.5h109.679z"/><path d="m296.406 402.045h-80.812c-9.705 0-17.602 7.896-17.602 17.602v44.447c0 9.705 7.896 17.602 17.602 17.602h17.754v15.304h-2.602c-4.143 0-7.5 3.357-7.5 7.5s3.357 7.5 7.5 7.5h50.508c4.143 0 7.5-3.357 7.5-7.5s-3.357-7.5-7.5-7.5h-2.602v-15.305h17.754c9.705 0 17.602-7.896 17.602-17.602v-44.447c0-9.705-7.897-17.601-17.602-17.601zm-32.754 94.955h-15.305v-15.305h15.305zm35.356-32.906c0 1.435-1.167 2.602-2.602 2.602h-80.812c-1.435 0-2.602-1.167-2.602-2.602v-44.447c0-1.435 1.167-2.602 2.602-2.602h80.812c1.435 0 2.602 1.167 2.602 2.602z"/><path d="m494.4 402.04h-29.3c-4.143 0-7.5 3.357-7.5 7.5s3.357 7.5 7.5 7.5h29.3c1.434 0 2.6 1.171 2.6 2.61v44.439c0 1.439-1.166 2.61-2.6 2.61h-80.81c-1.438 0-2.609-1.171-2.609-2.61v-44.439c0-1.439 1.171-2.61 2.609-2.61h16.51c4.143 0 7.5-3.357 7.5-7.5s-3.357-7.5-7.5-7.5h-16.51c-9.71 0-17.609 7.9-17.609 17.61v44.439c0 9.71 7.899 17.61 17.609 17.61h17.75v15.301h-2.602c-4.143 0-7.5 3.357-7.5 7.5s3.357 7.5 7.5 7.5h50.508c4.143 0 7.5-3.357 7.5-7.5s-3.357-7.5-7.5-7.5h-2.602v-15.3h17.756c9.704 0 17.6-7.9 17.6-17.61v-44.44c0-9.71-7.896-17.61-17.6-17.61zm-32.755 94.96h-15.305v-15.3h15.305z"/><path d="m175.187 278.805c-4.143 0-7.5 3.357-7.5 7.5v53.861h-109.679c-4.143 0-7.5 3.357-7.5 7.5v31.574c0 4.143 3.357 7.5 7.5 7.5s7.5-3.357 7.5-7.5v-24.074h109.679c4.143 0 7.5-3.357 7.5-7.5v-61.361c0-4.143-3.358-7.5-7.5-7.5z"/><path d="m98.41 402.04h-38.05c-4.143 0-7.5 3.357-7.5 7.5s3.357 7.5 7.5 7.5h38.05c1.438 0 2.609 1.171 2.609 2.61v44.439c0 1.439-1.171 2.61-2.609 2.61h-80.81c-1.434 0-2.6-1.171-2.6-2.61v-44.439c0-1.439 1.166-2.61 2.6-2.61h7.761c4.143 0 7.5-3.357 7.5-7.5s-3.357-7.5-7.5-7.5h-7.761c-9.704 0-17.6 7.9-17.6 17.61v44.439c0 9.71 7.896 17.61 17.6 17.61h17.756v15.301h-2.602c-4.143 0-7.5 3.357-7.5 7.5s3.357 7.5 7.5 7.5h50.508c4.143 0 7.5-3.357 7.5-7.5s-3.357-7.5-7.5-7.5h-2.602v-15.3h17.75c9.71 0 17.609-7.9 17.609-17.61v-44.44c.001-9.71-7.899-17.61-17.609-17.61zm-32.75 94.96h-15.305v-15.3h15.305z"/></g></g></svg>