<svg height="512" viewBox="0 0 256 256" width="512" xmlns="http://www.w3.org/2000/svg"><path d="m185.948 65.9h-4.28v-13.214h-84.72v13.214h-4.28a12.19 12.19 0 0 0 0 24.38h4.932c2.62 14.777 12.811 26.1 23.41 30.82v17.4l18.3 18.6 18.3-18.58v-17.43a42.3 42.3 0 0 0 23.41-30.81h4.93a12.19 12.19 0 0 0 0-24.38z" fill="#ffb69f"/><path d="m65.631 251.763 4.18-9.43a34.848 34.848 0 0 0 -6.24-37.76l-9.26-10.04a9.928 9.928 0 0 1 -6.93 2.8h-13a9.892 9.892 0 0 1 -6.93-2.8l-9.27 10.04a34.867 34.867 0 0 0 -6.24 37.76l4.18 9.43z" fill="#13bf6d"/><path d="m54.852 145.67-4.241 13.373a9.861 9.861 0 0 0 -3.23-.54h-13a9.876 9.876 0 0 0 -3.24.54l-4.241-13.373a3 3 0 0 1 2.859-3.907h22.233a3 3 0 0 1 2.86 3.907z" fill="#13bf6d"/><path d="m54.318 161.313a9.973 9.973 0 0 0 -3.71-2.27 9.861 9.861 0 0 0 -3.23-.54h-13a9.876 9.876 0 0 0 -3.24.54 9.983 9.983 0 0 0 -6.76 9.46v18.83a10.016 10.016 0 0 0 10 10h13a10.016 10.016 0 0 0 10-10v-18.833a10.026 10.026 0 0 0 -3.06-7.187z" fill="#ffb69f"/><path d="m69.808 242.333a34.848 34.848 0 0 0 -6.24-37.76l-9.26-10.04a9.947 9.947 0 0 0 3.07-7.2v-18.833a10.026 10.026 0 0 0 -3.06-7.19 30.571 30.571 0 0 1 7.13-3.04l18.45-4.96h.02v-.01h-.01v-.01l18.21-4.82.01-.01 13.47-13.88a3.861 3.861 0 0 1 5.53-.02l3.88 3.94 18.3 18.6 18.3-18.581 3.9-3.96a3.861 3.861 0 0 1 5.53.02l13.46 13.89 18.21 4.82v.02h.02l18.44 4.96a30.953 30.953 0 0 1 22.33 26.35c.02.12 7.45 67.01 7.47 67.14h-181.34z" fill="#4c4945"/><path d="m180.5 148.473-13.46-13.89a3.861 3.861 0 0 0 -5.53-.02l-3.9 3.96-18.3 18.58-18.3-18.6-3.88-3.94a3.861 3.861 0 0 0 -5.53.02l-13.47 13.88-.01.01-18.21 4.82v.01h.01v.02l46.66 77.32 12.73 21.11 12.73-21.11c.011-.018 46.655-77.315 46.67-77.33v-.02z" fill="#fff"/><path d="m152.448 180.173-13.14-23.069-13.14 23.08 6.1 6.939-5.69 43.521 12.73 21.109 12.73-21.109-5.69-43.521z" fill="#13bf6d"/><path d="m176.158 4.233a14.54 14.54 0 0 1 -14.28 11.83h-45.7a19.237 19.237 0 0 0 -19.23 19.23v17.393h84.72c13.041-11.144 17.974-32.378-5.51-48.453z" fill="#fc5d3d"/><path d="m124.735 100.915a14.476 14.476 0 0 0 28.951 0z" fill="#fc5d3d"/><path d="m54.852 145.67-4.241 13.373a9.861 9.861 0 0 0 -3.23-.54h-13a9.876 9.876 0 0 0 -3.24.54l-4.241-13.373a3 3 0 0 1 2.859-3.907h22.233a3 3 0 0 1 2.86 3.907z" fill="#13bf6d"/><path d="m63.568 204.573-9.26-10.04a9.928 9.928 0 0 1 -6.93 2.8h-13a9.892 9.892 0 0 1 -6.93-2.8l-9.27 10.04a34.867 34.867 0 0 0 -6.24 37.76l4.18 9.43h49.51l4.18-9.43a34.848 34.848 0 0 0 -6.24-37.76z" fill="#13bf6d"/><path d="m181.668 52.686v13.44a20.105 20.105 0 0 1 -20.105 20.106h-9.94a7.9 7.9 0 0 1 -6.153-2.948 7.894 7.894 0 0 0 -12.305 0 7.893 7.893 0 0 1 -6.152 2.948h-9.951a20.106 20.106 0 0 1 -20.105-20.106v-13.44z" fill="#4c4945"/><path d="m111.209 63.871a9.429 9.429 0 1 0 18.571 3.275z" fill="#fff"/><path d="m167.417 63.871a9.429 9.429 0 0 1 -18.572 3.275z" fill="#fff"/><path d="m176.24 45.6a2.5 2.5 0 0 1 -.3-3.523c.506-.6.985-1.213 1.424-1.823a2.5 2.5 0 1 1 4.06 2.916c-.514.717-1.075 1.435-1.666 2.135a2.5 2.5 0 0 1 -3.518.295zm6.731-10.5a2.5 2.5 0 0 1 -2.076-2.861 14.224 14.224 0 0 0 .176-2.223c0-3.55-1.383-7.18-4.111-10.788a2.5 2.5 0 0 1 3.988-3.016c3.4 4.5 5.123 9.141 5.123 13.8a19.25 19.25 0 0 1 -.238 3.008 2.5 2.5 0 0 1 -2.862 2.08z" fill="#ffcbc2"/><path d="m230.067 239.138-.384-3.448a2.5 2.5 0 0 1 4.97-.553l.384 3.458a2.5 2.5 0 0 1 -4.97.543zm-1.494-13.424-4.383-39.388a15.555 15.555 0 0 0 -4.645-9.481 2.5 2.5 0 0 1 3.466-3.6 20.552 20.552 0 0 1 6.149 12.531l4.383 39.387a2.5 2.5 0 0 1 -4.97.553z" fill="#afafaf"/><path d="m107.956 234.977-2.226-3.969a2.5 2.5 0 0 1 4.361-2.445l2.226 3.969a2.5 2.5 0 1 1 -4.361 2.445zm-7.116-12.692-27.39-48.844a2.5 2.5 0 0 1 4.362-2.441l27.388 48.84a2.5 2.5 0 1 1 -4.361 2.445z" fill="#afafaf"/><path d="m249.447 251.468-7.46-67.12a33.45 33.45 0 0 0 -24.14-28.48c-26.66-7.17-11.5-3.139-36.037-9.634l-12.976-13.39a6.352 6.352 0 0 0 -8.726-.388v-9.842a44.894 44.894 0 0 0 22.945-29.83h2.9a14.69 14.69 0 1 0 0-29.38h-1.78v-9.604c15.2-13.868 16-36.161-6.6-51.627a2.5 2.5 0 0 0 -3.868 1.6 12.045 12.045 0 0 1 -11.824 9.8h-45.7a21.755 21.755 0 0 0 -21.73 21.73v28.097h-1.78a14.69 14.69 0 1 0 0 29.38h2.9c2.939 12.873 11.719 24.3 22.938 29.881v9.772a6.357 6.357 0 0 0 -8.71.411l-12.99 13.386c-27.66 7.324-4.947 1.281-36.01 9.624l-.03.01a33.064 33.064 0 0 0 -6.18 2.455c-.3-.214-.612-.419-.934-.607l3.581-11.29a5.5 5.5 0 0 0 -5.243-7.163h-22.234a5.5 5.5 0 0 0 -5.242 7.163l3.576 11.278a12.5 12.5 0 0 0 -6.215 10.807v18.82a12.509 12.509 0 0 0 2.24 7.134l-7.771 8.416a37.108 37.108 0 0 0 -7.54 12.26 2.5 2.5 0 0 0 1.471 3.22 2.545 2.545 0 0 0 3.209-1.47 32.218 32.218 0 0 1 6.531-10.62l7.71-8.35a12.563 12.563 0 0 0 6.639 1.91h13.02a12.518 12.518 0 0 0 6.641-1.91l7.7 8.35a32.333 32.333 0 0 1 5.8 35.05l-4.181 9.43a2.5 2.5 0 1 0 4.571 2.03v-.02l4.179-9.41a37.338 37.338 0 0 0 -6.69-40.47l-7.766-8.421a12.522 12.522 0 0 0 2.237-7.129v-18.827c0-.01 0-.02 0-.031a12.827 12.827 0 0 0 -1.748-6.319 28.612 28.612 0 0 1 4-1.47h.009l16.606-4.463 58.424 96.829a2.5 2.5 0 0 0 4.282 0l58.425-96.831 16.6 4.465h.009a28.341 28.341 0 0 1 20.531 24.22c0 .088 7.468 67.178 7.48 67.25a2.516 2.516 0 0 0 2.849 2.091 2.49 2.49 0 0 0 2.102-2.773zm-219.688-107.205h22.233a.5.5 0 0 1 .477.651l-3.547 11.186a14.675 14.675 0 0 0 -1.544-.1h-13a14.325 14.325 0 0 0 -1.548.1l-3.547-11.185a.5.5 0 0 1 .476-.652zm17.619 50.565h-13a7.511 7.511 0 0 1 -7.5-7.5v-18.82a7.482 7.482 0 0 1 7.5-7.5h13a7.516 7.516 0 0 1 7.5 7.5v1.992h-14a2.5 2.5 0 0 0 0 5h14v4.83h-14a2.5 2.5 0 0 0 0 5h14v2a7.51 7.51 0 0 1 -7.5 7.498zm36.386-39.969 13.261-3.511 20.153 30.893a6.35 6.35 0 0 0 9 1.741c2.876 3.268 2.138 2.429 3.462 3.936l-4.614 35.319zm31.561-18.559a.231.231 0 0 1 .019.014l20.856 21.195-12.494 21.947a1.366 1.366 0 0 1 -2.334.061l-20.058-30.746c8.512-8.771 5.826-6 12.084-12.443a1.353 1.353 0 0 1 1.927-.028zm8.183 1.178v-12.59a44.708 44.708 0 0 0 31.6-.01v12.622l-15.8 16.04c-4.696-4.774-.781-.795-15.8-16.062zm9.893 47.14-4.173-4.75 10.079-17.709c4.461 7.824 2.258 3.957 10.087 17.7l-4.177 4.756zm5.906 62.291-10.139-16.809 5.295-40.47h9.69l5.294 40.47zm15.607-67.464-12.5-21.936 20.875-21.194a1.36 1.36 0 0 1 1.951.009l12.07 12.455-20.058 30.747a1.368 1.368 0 0 1 -2.338-.081zm-55.457-124.259h79.711v10.94a17.625 17.625 0 0 1 -17.605 17.606h-9.94a5.368 5.368 0 0 1 -4.2-2.015 10.4 10.4 0 0 0 -16.2 0 5.367 5.367 0 0 1 -4.2 2.015h-9.95a17.626 17.626 0 0 1 -17.616-17.606zm96.181 22.907a9.7 9.7 0 0 1 -9.69 9.691h-2.048c.109-1 .265-3.118.265-4.88v-14.504h1.78a9.7 9.7 0 0 1 9.693 9.693zm-96.19-42.8a16.749 16.749 0 0 1 16.73-16.73h45.7a17.058 17.058 0 0 0 15.622-10.248c17.222 13.5 15.317 30.921 3.222 41.871h-81.274zm-6.78 52.491a9.69 9.69 0 1 1 0-19.38h1.78v14.496c0 1.737.154 3.879.264 4.88zm7.39 2.053a38.921 38.921 0 0 1 -.61-6.933v-2.633a22.569 22.569 0 0 0 17.615 8.461h9.95a10.342 10.342 0 0 0 8.1-3.882 5.394 5.394 0 0 1 8.409 0 10.343 10.343 0 0 0 8.1 3.882h9.94a22.569 22.569 0 0 0 17.605-8.449c0 2.808.012 3.255-.046 4.485a39.862 39.862 0 0 1 -79.064 5.069zm53.535 133.4-4.615-35.321 3.458-3.943a6.354 6.354 0 0 0 9.006-1.716l20.163-30.907 13.247 3.507z"/><path d="m213.472 216.951a2.478 2.478 0 0 0 -2.686 2.3l-2.5 32.32a2.5 2.5 0 0 0 4.986.384l2.5-32.319a2.5 2.5 0 0 0 -2.3-2.685z"/><path d="m139.211 117.88a17 17 0 0 0 16.975-16.963 2.5 2.5 0 0 0 -2.5-2.5h-28.95a2.5 2.5 0 0 0 -2.5 2.5 17 17 0 0 0 16.975 16.963zm11.711-14.465a11.977 11.977 0 0 1 -23.422 0z"/><path d="m11.528 225.928a2.5 2.5 0 1 0 -2.67 2.32 2.5 2.5 0 0 0 2.67-2.32z"/><path d="m14.228 241.318a31.894 31.894 0 0 1 -2.02-6.159 2.543 2.543 0 0 0 -2.98-1.911 2.5 2.5 0 0 0 -1.91 2.98 37.769 37.769 0 0 0 2.339 7.12l4.181 9.43a2.5 2.5 0 1 0 4.569-2.03z"/><path d="m37.452 220.992h11.206a2.5 2.5 0 0 0 0-5h-5.28v-2.824a2.5 2.5 0 0 0 -5 0v2.824h-.926a6.856 6.856 0 0 0 0 13.712h6.848a1.856 1.856 0 1 1 0 3.711h-11.2a2.5 2.5 0 0 0 0 5h5.281v2.827a2.5 2.5 0 0 0 5 0v-2.827h.919a6.856 6.856 0 1 0 0-13.711h-6.85a1.856 1.856 0 0 1 0-3.712z"/><path d="m139.313 95.5a2.5 2.5 0 0 0 2.5-2.5v-3.5a2.5 2.5 0 1 0 -5 0v3.5a2.5 2.5 0 0 0 2.5 2.5z"/><path d="m118.423 77.256a11.942 11.942 0 0 0 13.819-9.676 2.5 2.5 0 0 0 -2.028-2.9l-18.571-3.275a2.5 2.5 0 0 0 -2.9 2.028 11.921 11.921 0 0 0 9.68 13.823zm8-8.163a6.932 6.932 0 0 1 -12.732-2.245z"/><path d="m160.2 77.256a11.921 11.921 0 0 0 9.677-13.819 2.5 2.5 0 0 0 -2.9-2.028l-18.572 3.275a2.5 2.5 0 0 0 -2.028 2.9 11.942 11.942 0 0 0 13.823 9.672zm4.731-10.408a6.932 6.932 0 0 1 -12.731 2.245z"/></svg>