<svg viewBox="0 0 512 512" xmlns="http://www.w3.org/2000/svg"><path d="m512 256c0 141.386719-114.613281 256-256 256s-256-114.613281-256-256 114.613281-256 256-256 256 114.613281 256 256zm0 0" fill="#ffb456"/><path d="m93.605469 453.902344c44.1875 36.300781 100.746093 58.097656 162.394531 58.097656s118.207031-21.796875 162.394531-58.097656zm0 0" fill="#ad3825"/><path d="m242.609375 453.902344h-149.003906c40.378906 33.171875 91.089843 54.222656 146.578125 57.605468-36.617188-2.675781-34.621094-57.605468 2.425781-57.605468zm0 0" fill="#9b3126"/><path d="m247.246094 109.664062c-37.066406-22.972656-84.261719-22.972656-121.328125 0-19.066407 11.816407-35.246094 29.394532-35.246094 55.011719 0 33.257813 15.078125 58.277344 33.277344 76.378907h125.269531c18.195312-18.097657 33.277344-43.121094 33.277344-76.378907 0-25.617187-16.179688-43.195312-35.25-55.011719zm0 0" fill="#eab883"/><path d="m184.734375 92.464844c-43.019531.683594-94.0625 28.285156-94.0625 72.210937 0 33.257813 15.078125 58.277344 33.277344 76.378907h51.390625c-18.199219-19.832032-33.28125-47.25-33.28125-83.6875 0-28.871094 17.386718-50.46875 42.675781-64.902344zm0 0" fill="#dda36f"/><path d="m282.46875 166.671875c.460938-25.566406-13.65625-43.644531-35.222656-57.007813-63.296875-39.234374-141.320313-4.929687-154.316406 39.085938 46.972656 24.371094 106.019531 12.59375 139.808593-30.992188 2.222657-2.863281 6.691407-2.328124 8.199219.96875 9.011719 19.707032 23.511719 36.339844 41.53125 47.945313zm0 0" fill="#bf462e"/><path d="m184.734375 92.464844h-.003906c-47.308594.753906-83.792969 29.15625-91.800781 56.285156 14.785156 7.671875 31.488281 12.121094 49.191406 12.457031-.917969-31.199219 15.609375-53.328125 42.613281-68.742187zm0 0" fill="#ad3825"/><path d="m373.320312 447.75c0-1.253906-1.289062-2.269531-2.878906-2.269531h-16.695312c.738281-1.542969 1.226562-3.234375 1.390625-5.03125l12.632812-139.421875 89.703125 99.875c27.664063 30.804687 5.800782 79.828125-35.601562 79.828125h-81.527344c18.210938 0 32.976562-14.765625 32.976562-32.980469zm0 0" fill="#6d6d7c"/><path d="m410.519531 400.902344-47.050781-52.390625-8.332031 91.9375c-.164063 1.796875-.652344 3.488281-1.390625 5.03125h16.695312c1.589844 0 2.878906 1.015625 2.878906 2.269531 0 18.214844-14.765624 32.980469-32.976562 32.980469h34.574219c41.40625 0 63.269531-49.023438 35.601562-79.828125zm0 0" fill="#58596c"/><path d="m204.398438 2.859375c-11.570313-3.8125-24.0625-3.8125-35.632813 0-34.730469 11.4375-108.128906 46.21875-108.128906 135.882813 0 48.503906 21.480469 80.9375 46.699219 102.3125h17.617187c-17.902344-17.808594-32.742187-42.429688-32.742187-75.152344 0-25.207032 15.921874-42.5 34.683593-54.128906 36.46875-22.601563 82.90625-22.601563 119.378907 0 18.761718 11.628906 34.679687 28.921874 34.679687 54.128906 0 32.722656-14.835937 57.34375-32.742187 75.152344h17.621093c25.21875-21.375 46.699219-53.808594 46.699219-102.3125 0-89.664063-73.398438-124.445313-108.132812-135.882813zm0 0" fill="#6d6d7c"/><path d="m180.214844 95.015625c-18.320313-8.464844-31.042969-26.996094-31.042969-48.503906 0-18.964844 9.894531-35.609375 24.789063-45.085938-1.746094.398438-3.480469.867188-5.195313 1.429688-34.730469 11.441406-108.128906 46.222656-108.128906 135.886719 0 48.503906 21.480469 80.9375 46.699219 102.3125h17.617187c-17.902344-17.808594-32.742187-42.429688-32.742187-75.152344 0-41.4375 46.746093-68.582032 88.003906-70.886719zm0 0" fill="#58596c"/><path d="m373.320312 447.75c0-1.253906-1.289062-2.269531-2.878906-2.269531h-16.695312c.738281-1.542969 1.226562-3.234375 1.390625-5.03125l3.304687-36.496094h41.25c21.203125 0 38.390625 17.1875 38.390625 38.386719 0 21.203125-17.1875 38.390625-38.390625 38.390625h-59.347656c18.210938 0 32.976562-14.765625 32.976562-32.980469zm0 0" fill="#eab883"/><path d="m399.691406 442.175781h-44.832031c-.246094 1.160157-.617187 2.265625-1.113281 3.304688h16.695312c1.589844 0 2.878906 1.015625 2.878906 2.269531 0 18.214844-14.765624 32.980469-32.976562 32.980469h59.347656c21.203125 0 38.390625-17.1875 38.390625-38.390625 0-7.027344-1.898437-13.609375-5.195312-19.273438-6.652344 11.421875-19.019531 19.109375-33.195313 19.109375zm0 0" fill="#dda36f"/><path d="m280.84375 162.523438c.980469-26.515626-8.203125-49.320313-34.570312-68.34375-36.472657-26.320313-82.910157-26.320313-119.382813 0-26.296875 18.976562-35.550781 41.738281-34.570313 68.34375 1.355469-23.378907 16.660157-39.648438 34.570313-50.75 36.472656-22.601563 82.910156-22.601563 119.382813 0 17.910156 11.101562 33.21875 27.367187 34.570312 50.75zm0 0" fill="#58596c"/><path d="m92.320312 162.523438v-.003907c2.328126-40.132812 48.441407-65.304687 87.894532-67.503906-8.207032-3.792969-15.285156-9.609375-20.605469-16.804687-11.398437 3.238281-22.453125 8.558593-32.71875 15.964843-26.296875 18.976563-35.554687 41.742188-34.570313 68.347657zm0 0" fill="#484a5e"/><path d="m374.410156 445.480469h-290.554687c14.96875 13.609375 31.566406 25.460937 49.449219 35.246093h211.003906c18.214844 0 32.980468-14.761718 32.980468-32.976562 0-1.253906-1.289062-2.269531-2.878906-2.269531zm0 0" fill="#d4d1da"/><path d="m135.777344 447.75c0-1.253906 1.289062-2.269531 2.882812-2.269531h-54.804687c14.96875 13.609375 31.566406 25.460937 49.453125 35.246093h35.449218c-18.214843.003907-32.980468-14.761718-32.980468-32.976562zm0 0" fill="#bcb7c6"/><path d="m361.101562 239.777344h-349.039062c-4.871094 0-9.152344 2.347656-11.839844 5.933594-.1328122 3.414062-.222656 6.84375-.222656 10.289062 0 79.734375 36.457031 150.949219 93.605469 197.902344h250.773437c7.648438 0 14.035156-5.835938 14.726563-13.453125l16.722656-184.546875c.785156-8.660156-6.03125-16.125-14.726563-16.125zm0 0" fill="#ecebed"/><path d="m60.648438 255.902344c-.785157-8.660156 6.035156-16.125 14.726562-16.125h-63.308594c-4.875 0-9.15625 2.347656-11.84375 5.933594-.1328122 3.414062-.222656 6.84375-.222656 10.289062 0 71.839844 29.605469 136.753906 77.261719 183.246094zm0 0" fill="#d4d1da"/><path d="m240.640625 428.511719c-.710937 0-1.433594-.097657-2.148437-.296875l-119.285157-33.65625c-4.195312-1.183594-6.636719-5.542969-5.453125-9.742188 1.183594-4.195312 5.542969-6.636718 9.738282-5.453125l119.285156 33.65625c4.195312 1.183594 6.636718 5.542969 5.453125 9.742188-.980469 3.476562-4.144531 5.75-7.589844 5.75zm0 0" fill="#ff5856"/><path d="m213.324219 415.21875c0-4.289062 3.15625-7.828125 7.265625-8.457031l-97.09375-27.398438c-4.195313-1.183593-8.558594 1.257813-9.742188 5.453125-1.183594 4.199219 1.257813 8.558594 5.453125 9.742188l97.589844 27.535156c-2.101563-1.5625-3.472656-4.058594-3.472656-6.875zm0 0" fill="#db4040"/><path d="m132.527344 428.511719c-3.445313 0-6.613282-2.273438-7.59375-5.75-1.183594-4.199219 1.257812-8.558594 5.453125-9.742188l119.285156-33.65625c4.191406-1.183593 8.554687 1.257813 9.738281 5.453125 1.183594 4.199219-1.257812 8.558594-5.453125 9.742188l-119.28125 33.65625c-.71875.199218-1.441406.296875-2.148437.296875zm0 0" fill="#ff8080"/><path d="m217 394.59375c0-2.933594 1.476562-5.519531 3.722656-7.0625l-90.335937 25.488281c-4.195313 1.183594-6.636719 5.542969-5.453125 9.738281.980468 3.480469 4.148437 5.753907 7.59375 5.753907.707031 0 1.429687-.097657 2.148437-.296875l89.316407-25.203125c-3.976563-.738281-6.992188-4.222657-6.992188-8.417969zm0 0" fill="#ff5856"/><path d="m234.664062 352.289062c-1.777343-2.03125-2.226562-4.917968-1.121093-7.378906 2.652343-5.898437 4.121093-12.398437 4.121093-19.226562 0-26.949219-22.871093-48.792969-51.082031-48.792969-28.210937 0-51.082031 21.84375-51.082031 48.789063 0 6.828124 1.46875 13.328124 4.121094 19.230468 1.105468 2.460938.65625 5.34375-1.121094 7.375-3.964844 4.53125-4.410156 11.148438-1.09375 16.171875l2.773438 4.199219c2.851562 4.316406 7.296874 7.328125 12.367187 8.375l6.003906 1.238281c2.253907.464844 3.871094 2.449219 3.871094 4.75v5.804688c0 1.949219.890625 3.785156 2.417969 4.992187 12.746094 10.066406 30.734375 10.066406 43.480468 0 1.527344-1.207031 2.417969-3.042968 2.417969-4.992187v-5.804688c0-2.300781 1.617188-4.285156 3.871094-4.75l6.007813-1.238281c5.066406-1.046875 9.515624-4.058594 12.367187-8.375l2.773437-4.199219c3.316407-5.023437 2.871094-11.640625-1.09375-16.167969zm0 0" fill="#ff5856"/><path d="m185.746094 397.816406c-1.089844-1.207031-1.726563-3.042968-1.726563-4.988281v-5.808594c0-2.300781-1.15625-4.285156-2.765625-4.75l-4.289062-1.238281c-3.617188-1.046875-6.796875-4.058594-8.832032-8.375l-1.980468-4.199219c-2.367188-5.023437-2.046875-11.640625.78125-16.171875 1.269531-2.03125 1.59375-4.914062.800781-7.378906-1.894531-5.898438-2.941406-12.398438-2.941406-19.226562 0-24.15625 13.128906-44.199219 30.359375-48.09375-2.789063-.449219-5.644532-.699219-8.566406-.699219-28.214844 0-51.082032 21.847656-51.082032 48.792969 0 6.828124 1.46875 13.328124 4.117188 19.226562 1.109375 2.464844.660156 5.347656-1.117188 7.378906-3.964844 4.53125-4.414062 11.148438-1.097656 16.171875l2.773438 4.199219c2.851562 4.316406 7.300781 7.328125 12.367187 8.375l6.007813 1.238281c2.253906.464844 3.871093 2.449219 3.871093 4.75v5.808594c0 1.945313.890625 3.785156 2.417969 4.988281 8.761719 6.917969 20 9.082032 30.308594 6.488282-3.347656-1.179688-6.558594-3.339844-9.40625-6.488282zm0 0" fill="#db4040"/><path d="m195.914062 373.535156-7.039062-9.179687c-1.199219-1.5625-3.386719-1.5625-4.585938 0l-7.039062 9.179687c-2.132812 2.78125.050781 6.988282 3.300781 6.355469l3.851563-1.570313c1.40625-.574218 2.953125-.574218 4.359375 0l3.855469 1.570313c3.246093.632813 5.433593-3.574219 3.296874-6.355469zm0 0" fill="#cc3636"/><path d="m183.972656 374.738281 3.167969-11.125c.035156-.121093.089844-.222656.136719-.332031-1.054688-.277344-2.222656.078125-2.988282 1.078125l-7.039062 9.175781c-2.132812 2.78125.050781 6.988282 3.300781 6.355469l3.851563-1.570313c.0625-.023437.128906-.035156.191406-.054687-.679688-.960937-.992188-2.222656-.621094-3.527344zm0 0" fill="#db4040"/><path d="m197.363281 349.15625c-3.28125 2.671875-3.988281 7.429688-1.761719 11.027344 2.203126 3.558594 7.226563 7.84375 18.660157 7.84375 19.535156 0 14.855469-26.007813 1.238281-24.699219-8.339844.804687-14.5625 2.917969-18.136719 5.828125zm0 0" fill="#db4040"/><path d="m217.628906 343.363281c-.683594-.082031-1.390625-.105469-2.128906-.035156-8.339844.804687-14.5625 2.917969-18.136719 5.828125-3.28125 2.671875-3.984375 7.429688-1.757812 11.027344 2.199219 3.554687 7.226562 7.84375 18.65625 7.84375 1.214843 0 2.335937-.101563 3.367187-.289063-14.65625-2.675781-11.140625-23.058593 0-24.375zm0 0" fill="#cc3636"/><path d="m175.804688 349.15625c3.28125 2.671875 3.984374 7.429688 1.757812 11.027344-2.203125 3.558594-7.226562 7.84375-18.660156 7.84375-19.535156 0-14.855469-26.007813-1.238282-24.699219 8.339844.804687 14.566407 2.917969 18.140626 5.828125zm0 0" fill="#db4040"/><path d="m167.890625 345.257812c-2.914063-.894531-6.335937-1.554687-10.226563-1.929687-13.617187-1.308594-18.296874 24.699219 1.238282 24.699219 2.632812 0 4.910156-.238282 6.90625-.628906-8.476563-5.128907-5.945313-18.945313 2.082031-22.140626zm0 0" fill="#cc3636"/><path d="m507.195312 239.660156h-168.644531c-2.652343 0-4.804687-2.152344-4.804687-4.804687v-104.113281c0-2.652344 2.152344-4.804688 4.804687-4.804688h168.640625c2.65625 0 4.808594 2.152344 4.808594 4.804688v104.113281c0 2.652343-2.152344 4.804687-4.804688 4.804687zm0 0" fill="#ecebed"/><path d="m487.730469 149.195312h-153.984375v85.660157c0 2.652343 2.152344 4.804687 4.804687 4.804687h153.984375v-85.65625c0-2.65625-2.148437-4.808594-4.804687-4.808594zm0 0" fill="#d4d1da"/><path d="m364.378906 234.855469v-104.113281c0-2.65625 2.152344-4.804688 4.804688-4.804688h-30.632813c-2.652343 0-4.804687 2.152344-4.804687 4.804688v104.113281c0 2.65625 2.152344 4.804687 4.804687 4.804687h30.632813c-2.652344 0-4.804688-2.148437-4.804688-4.804687zm0 0" fill="#d4d1da"/><path d="m333.746094 149.195312h178.253906v23.261719h-178.253906zm0 0" fill="#58596c"/><path d="m333.746094 172.457031h158.789062v-18.453125c0-2.65625-2.148437-4.808594-4.804687-4.808594h-153.984375zm0 0" fill="#484a5e"/><path d="m466.941406 262.921875h-168.644531c-2.65625 0-4.804687-2.152344-4.804687-4.808594v-104.109375c0-2.65625 2.152343-4.808594 4.804687-4.808594h168.644531c2.652344 0 4.804688 2.152344 4.804688 4.808594v104.109375c0 2.65625-2.152344 4.808594-4.804688 4.808594zm0 0" fill="#5085fe"/><path d="m324.125 258.113281v-104.109375c0-2.65625 2.152344-4.808594 4.804688-4.808594h-30.632813c-2.65625 0-4.804687 2.152344-4.804687 4.808594v104.109375c0 2.65625 2.152343 4.808594 4.804687 4.808594h30.632813c-2.652344 0-4.804688-2.152344-4.804688-4.808594zm0 0" fill="#3c78ef"/><path d="m444.5625 182.433594h-21.679688c-3.566406 0-6.460937-2.890625-6.460937-6.460938 0-3.570312 2.894531-6.460937 6.460937-6.460937h21.679688c3.566406 0 6.460938 2.890625 6.460938 6.460937 0 3.570313-2.894532 6.460938-6.460938 6.460938zm0 0" fill="#a4c7ff"/><path d="m401.207031 182.433594h-21.679687c-3.566406 0-6.460938-2.890625-6.460938-6.460938 0-3.570312 2.894532-6.460937 6.460938-6.460937h21.679687c3.566407 0 6.460938 2.890625 6.460938 6.460937 0 3.570313-2.894531 6.460938-6.460938 6.460938zm0 0" fill="#a4c7ff"/><g fill="#7da8ff"><path d="m433.726562 175.972656c0-3.570312 2.890626-6.460937 6.460938-6.460937h-17.304688c-3.566406 0-6.460937 2.890625-6.460937 6.460937 0 3.570313 2.894531 6.460938 6.460937 6.460938h17.304688c-3.570312 0-6.460938-2.890625-6.460938-6.460938zm0 0"/><path d="m390.371094 175.972656c0-3.570312 2.890625-6.460937 6.460937-6.460937h-17.304687c-3.566406 0-6.460938 2.890625-6.460938 6.460937 0 3.570313 2.894532 6.460938 6.460938 6.460938h17.304687c-3.570312 0-6.460937-2.890625-6.460937-6.460938zm0 0"/><path d="m379.527344 204.546875c-3.476563 0-6.460938-2.8125-6.460938-6.460937 0-4.050782 3.746094-7.152344 7.726563-6.332032 2.957031.550782 5.195312 3.222656 5.195312 6.332032 0 3.542968-2.859375 6.460937-6.460937 6.460937zm0 0"/><path d="m401.203125 204.546875c-3.597656 0-6.453125-2.9375-6.453125-6.460937 0-4.183594 3.851562-7.128907 7.71875-6.332032 2.949219.550782 5.195312 3.21875 5.195312 6.332032 0 3.5625-2.886718 6.460937-6.460937 6.460937zm0 0"/><path d="m421.621094 204.417969c-2.921875-.546875-5.195313-3.199219-5.195313-6.332031 0-4.113282 3.792969-7.152344 7.71875-6.332032 2.859375.53125 5.203125 3.117188 5.203125 6.332032 0 4.019531-3.710937 7.148437-7.726562 6.332031zm0 0"/><path d="m444.5625 204.546875c-3.554688 0-6.460938-2.882813-6.460938-6.460937 0-4.105469 3.792969-7.152344 7.71875-6.332032 3.433594.640625 5.800782 4.089844 5.074219 7.589844-.539062 2.871094-3.136719 5.203125-6.332031 5.203125zm0 0"/></g><path d="m349.039062 168.089844h-30.589843c-2.027344 0-3.6875 1.660156-3.6875 3.691406v30.589844c0 2.027344 1.660156 3.6875 3.6875 3.6875h30.589843c2.03125 0 3.691407-1.660156 3.691407-3.6875v-30.589844c0-2.03125-1.660157-3.691406-3.691407-3.691406zm0 0" fill="#fc974d"/><path d="m324.125 202.371094v-30.589844c0-2.03125 1.660156-3.691406 3.6875-3.691406h-9.363281c-2.027344 0-3.6875 1.660156-3.6875 3.691406v30.589844c0 2.027344 1.660156 3.6875 3.6875 3.6875h9.363281c-2.027344 0-3.6875-1.660156-3.6875-3.6875zm0 0" fill="#f47f31"/><path d="m341.34375 189.582031c-1.101562-1.503906-1.101562-3.507812 0-5.011719 1.265625-1.726562 2.023438-3.898437 2.023438-6.257812 0-5.644531-4.308594-10.222656-9.621094-10.222656s-9.621094 4.578125-9.621094 10.222656c0 2.359375.753906 4.527344 2.019531 6.257812 1.105469 1.503907 1.105469 3.507813 0 5.011719-1.265625 1.726563-2.019531 3.894531-2.019531 6.257813 0 5.644531 4.304688 10.21875 9.621094 10.21875 5.3125 0 9.621094-4.574219 9.621094-10.21875 0-2.363282-.757813-4.53125-2.023438-6.257813zm0 0" fill="#ffb456"/></svg>