<svg enable-background="new 0 0 256 256" viewBox="0 0 256 256" xmlns="http://www.w3.org/2000/svg"><g id="Layer_1"/><g id="Layer_2"/><g id="Layer_3"/><g id="Layer_4"/><g id="Layer_5"/><g id="Layer_6"/><g id="Layer_7"/><g id="Layer_8"/><g id="Layer_9"/><g id="Layer_10"/><g id="Layer_11"/><g id="Layer_12"/><g id="Layer_13"/><g id="Layer_14"/><g id="Layer_15"/><g id="Layer_16"/><g id="Layer_17"/><g id="Layer_18"/><g id="Layer_19"/><g id="Layer_20"/><g id="Layer_21"/><g id="Layer_22"/><g id="Layer_23"/><g id="Layer_24"/><g id="Layer_25"/><g id="Layer_26"/><g id="Layer_27"/><g id="Layer_28"/><g id="Layer_29"/><g id="Layer_30"/><g id="Layer_31"/><g id="Layer_32"/><g id="Layer_33"/><g id="Layer_34"/><g id="Layer_35"/><g id="Layer_36"/><g id="Layer_37"/><g id="Layer_38"/><g id="Layer_39"/><g id="Layer_40"/><g id="Layer_41"/><g id="Layer_42"/><g id="Layer_43"/><g id="Layer_44"/><g id="Layer_45"/><g id="Layer_46"/><g id="Layer_47"/><g id="Layer_48"/><g id="Layer_49"/><g id="Layer_50"/><g id="Layer_51"/><g id="Layer_52"/><g id="Layer_53"/><g id="Layer_54"/><g id="Layer_55"><g><g><g><path d="m87.9316 182.1125-12.478-12.478c-5.4294-5.4294-14.2324-5.4294-19.662 0l-47.6534 47.6533c-5.4294 5.4294-5.4294 14.2324 0 19.6619l12.478 12.478c5.4294 5.4297 14.2324 5.4297 19.662 0l47.6534-47.6533c5.4295-5.4294 5.4295-14.2324 0-19.6619z" fill="#fc657e"/></g></g><g><g><ellipse cx="165.19" cy="92.377" fill="#6cadef" rx="86.744" ry="86.744" transform="matrix(.707 -.707 .707 .707 -16.937 143.863)"/></g></g><g><g><path d="m103.8521 153.7139c-2.0681-2.0679-4.0059-4.217-5.8214-6.4326l-22.4652 22.4651 12.2542 12.2542 22.4653-22.4651c-2.2157-1.8158-4.3648-3.7533-6.4329-5.8216z" fill="#5290db"/></g></g><g><g><path d="m214.9547 42.6116c-27.4413-27.4402-72.09-27.4402-99.5302 0s-27.4402 72.0896 0 99.5295c27.5078 27.5078 72.0254 27.5039 99.5302 0 27.4403-27.4399 27.4403-72.0893 0-99.5295z" fill="#5290db"/></g></g><g><g><path d="m206.245 51.3213c-22.6372-22.6372-59.4723-22.6384-82.1107 0-22.6377 22.6379-22.6377 59.4724 0 82.1104 22.689 22.6899 59.417 22.6938 82.1107 0 22.6378-22.638 22.6378-59.4725 0-82.1104z" fill="#f5c84c"/></g></g><g><g><path d="m201.913 99.6453-24.9348-41.4038c-5.3492-8.8823-18.2277-8.8823-23.577 0l-24.9348 41.4038c-5.5234 9.1719 1.0819 20.8606 11.7886 20.8606h49.8696c10.7065 0 17.3119-11.6888 11.7884-20.8606z" fill="#fc657e"/></g></g><g><g><path d="m23.0131 158.2c-3.1-.5999-5.6-3-6.2001-6.0999 0-.1001-.2999-.1001-.2999 0-.6 3.0999-3.1 5.5-6.2001 6.0999-.0999 0-.0999.2 0 .3 3.1001.6001 5.6001 3 6.2001 6.1001 0 .0999.2999.0999.2999 0 .6001-3.1001 3.1001-5.5 6.2001-6.1001.0999-.1001.0999-.3 0-.3z" fill="#87d147"/></g></g><g><g><path d="m45.113 89.1001h-2.3999v-2.3c0-1.8-1.4001-3.2-3.2001-3.2-1.7 0-3.2 1.3999-3.2 3.0999v2.4001h-2.2999c-1.7999 0-3.2001 1.3999-3.2001 3.2-.0999 1.7 1.3 3.2 3.2001 3.2h2.2999v2.3c0 1.8 1.4001 3.2 3.2001 3.2 1.7001 0 3.2001-1.3999 3.2001-3.1001v-2.4h2.2999c1.7999 0 3.2001-1.3999 3.2001-3.2-.0001-1.6999-1.4002-3.1999-3.1002-3.1999z" fill="#70d6f9"/></g></g><g><g><circle cx="128.413" cy="208.9" fill="#fc657e" r="3.4"/></g></g><g><g><circle cx="94.413" cy="3.4" fill="#f5c84c" r="3.4"/></g></g><g><g><path d="m202.0131 209.2c-4.5-.8-8-4.3-8.9-8.7 0-.2-.3999-.2-.3999 0-.9 4.3999-4.4 7.8999-8.9 8.7-.2001 0-.2001.3-.0001.4001 4.5.7998 8 4.2998 8.9001 8.7 0 .2.3999.2.3999 0 .9-4.4001 4.4-7.9001 8.9-8.7.2-.1001.2-.4001 0-.4001z" fill="#f5c84c"/></g></g><g><g><path d="m82.2324 206.7637-31.4023-31.4033c-.9766-.9766-2.5586-.9766-3.5352 0s-.9766 2.5586 0 3.5352l31.4023 31.4033c.4883.4883 1.1279.7324 1.7676.7324s1.2793-.2441 1.7676-.7324c.9766-.9766.9766-2.5587 0-3.5352z"/></g></g><g><g><path d="m165.1895 70.7607c-1.3809 0-2.5 1.1191-2.5 2.5v19.0264c0 1.3809 1.1191 2.5 2.5 2.5s2.5-1.1191 2.5-2.5v-19.0264c0-1.3808-1.1192-2.5-2.5-2.5z"/></g></g><g><g><path d="m165.1895 102.959c-1.3809 0-2.5 1.1191-2.5 2.5v.626c0 1.3809 1.1191 2.5 2.5 2.5s2.5-1.1191 2.5-2.5v-.626c0-1.3809-1.1192-2.5-2.5-2.5z"/></g></g><g><g><g><path d="m89.6992 180.3447-12.4785-12.4775c-3.0977-3.0986-7.2168-4.8047-11.5986-4.8047-4.3809 0-8.5 1.7061-11.5977 4.8047l-47.6533 47.6533c-3.0986 3.0977-4.8047 7.2168-4.8047 11.5986s1.7061 8.501 4.8047 11.5986l12.4775 12.4775c3.0977 3.0987 7.2168 4.8048 11.5987 4.8048s8.501-1.7061 11.5986-4.8047l47.6533-47.6533c3.0986-3.0977 4.8047-7.2168 4.8047-11.5986s-1.706-8.501-4.8047-11.5987zm-3.5351 19.6621-47.6533 47.6533c-4.4473 4.4453-11.6797 4.4453-16.127 0l-12.4776-12.4775c-4.4463-4.4463-4.4463-11.6807 0-16.127l47.6533-47.6533c2.1533-2.1533 5.0166-3.3398 8.0625-3.3398 3.0469 0 5.9102 1.1865 8.0635 3.3398l12.4785 12.4775c4.4464 4.4464 4.4464 11.6807.0001 16.127z"/></g></g></g><g><g><g><path d="m228.2949 29.2715c-16.8554-16.8565-39.2676-26.1397-63.1054-26.1397s-46.249 9.2832-63.1045 26.1396c-34.7969 34.7959-34.7969 91.4141 0 126.21 16.8555 16.8564 39.2666 26.1396 63.1045 26.1396s46.25-9.2832 63.1055-26.1396c34.7968-34.7959 34.7968-91.414-.0001-126.2099zm-3.5351 122.6748c-15.9121 15.9111-37.0674 24.6748-59.5703 24.6748-22.502 0-43.6582-8.7637-59.5693-24.6748-32.8467-32.8467-32.8467-86.293 0-119.1396 15.9111-15.9111 37.0674-24.6748 59.5693-24.6748 22.5029 0 43.6582 8.7637 59.5703 24.6748 32.8466 32.8466 32.8466 86.2929 0 119.1396z"/></g></g></g><g><g><g><path d="m111.8691 157.6016c-2.1846-1.79-4.2871-3.6924-6.249-5.6553-1.9648-1.9648-3.8682-4.0684-5.6562-6.25-.4473-.5459-1.1055-.877-1.8105-.9121-.71-.0303-1.3916.2305-1.8906.7295l-22.4648 22.4648c-.9766.9766-.9766 2.5586 0 3.5352l12.2539 12.2549c.4688.4688 1.1045.7324 1.7676.7324s1.2988-.2637 1.7676-.7324l22.4658-22.4658c.499-.499.7646-1.1865.7295-1.8916s-.3664-1.3624-.9133-1.8096zm-24.0498 20.8642-8.7188-8.7197 18.7754-18.7754c1.3584 1.5596 2.7676 3.0693 4.207 4.5107h.001c1.4395 1.4395 2.9502 2.8486 4.5107 4.208z"/></g></g></g><g><g><g><g><path d="m216.7227 40.8438c-28.416-28.4131-74.6514-28.415-103.0654 0-28.415 28.415-28.415 74.6504 0 103.0654 14.207 14.208 32.8701 21.3115 51.5322 21.3115 18.6631 0 37.3252-7.1035 51.5332-21.3115 28.414-28.4151 28.414-74.6504 0-103.0654zm-3.5352 99.5302c-13.2354 13.2344-30.6133 19.8506-47.998 19.8486-17.3799-.001-34.7656-6.6182-47.9971-19.8486-26.4658-26.4658-26.4658-69.5293 0-95.9951 13.2344-13.2334 30.6133-19.8477 47.9971-19.8477 17.3799 0 34.7666 6.6172 47.998 19.8477 26.4648 26.4658 26.4648 69.5293 0 95.9951z"/></g></g></g></g><g><g><g><path d="m208.0127 49.5537c-23.6143-23.6143-62.0352-23.6123-85.6455 0-11.4219 11.4209-17.7119 26.6289-17.7119 42.8232 0 16.1934 6.29 31.4014 17.7119 42.8223 11.4453 11.4463 26.6523 17.751 42.8213 17.751h.001c16.167 0 31.376-6.3037 42.8232-17.751 23.6133-23.6123 23.6133-62.0332 0-85.6455zm-3.5352 82.1104c-10.5039 10.5029-24.457 16.2871-39.29 16.2861-14.832 0-28.7832-5.7842-39.2852-16.2861-10.4766-10.4766-16.2471-24.4287-16.2471-39.2871 0-14.8594 5.7705-28.8115 16.2471-39.2881 10.8311-10.8311 25.0586-16.2471 39.2871-16.2471 14.2275 0 28.4561 5.416 39.2881 16.2471 10.4766 10.4766 16.2461 24.4287 16.2461 39.2881 0 14.8584-5.7695 28.8105-16.2461 39.2871z"/></g></g></g><g><g><g><path d="m204.0547 98.3555-24.9346-41.4043c-2.9688-4.9287-8.1768-7.8711-13.9316-7.8711-5.7539 0-10.9609 2.9424-13.9287 7.8711l-24.9346 41.4043c-3.0654 5.0898-3.1504 11.2168-.2275 16.3896s8.2148 8.2607 14.1572 8.2607h49.8691c5.9414 0 11.2344-3.0879 14.1572-8.2607 2.9239-5.1728 2.8389-11.2998-.2265-16.3896zm-4.126 13.9297c-2.0244 3.582-5.6895 5.7207-9.8047 5.7207h-49.8691c-4.1152 0-7.7803-2.1387-9.8047-5.7207-2.0234-3.582-1.9648-7.8252.1582-11.3496l24.9346-41.4043c2.0557-3.4131 5.6611-5.4512 9.6465-5.4512 3.9844 0 7.5918 2.0371 9.6475 5.4512l24.9346 41.4043c2.1229 3.5244 2.1815 7.7675.1571 11.3496z"/></g></g></g></g></g><g id="Layer_56"/><g id="Layer_57"/><g id="Layer_58"/><g id="Layer_59"/><g id="Layer_60"/><g id="Layer_61"/><g id="Layer_62"/><g id="Layer_63"/><g id="Layer_64"/><g id="Layer_65"/><g id="Layer_66"/><g id="Layer_67"/><g id="Layer_68"/><g id="Layer_69"/><g id="Layer_70"/></svg>