<svg enable-background="new 0 0 512 512.001" viewBox="0 0 512 512.001" xmlns="http://www.w3.org/2000/svg"><g id="Layer_12"><g><path d="m57.428 430.406v-228.369c0-8.56 6.961-15.526 15.518-15.526h21.775v-10.046h-21.775c-14.096 0-25.564 11.474-25.564 25.572v228.369z"/><path d="m454.572 202.037v228.369h10.046v-228.369c0-14.098-11.469-25.572-25.567-25.572h-29.506v10.046h29.506c8.558 0 15.521 6.966 15.521 15.526z"/><path d="m453.67 504.65h-395.342c-17.654 0-32.017-14.544-32.017-32.42v-33.798c0-7.059 5.693-12.803 12.69-12.803h148.748c6.998 0 12.69 5.744 12.69 12.803v12.538c0 1.521 1.187 2.757 2.644 2.757h105.831c1.457 0 2.644-1.236 2.644-2.757v-12.538c0-7.059 5.693-12.803 12.69-12.803h148.748c6.998 0 12.693 5.744 12.693 12.803v33.798c0 17.875-14.363 32.42-32.019 32.42zm-414.669-68.975c-1.457 0-2.644 1.236-2.644 2.757v33.798c0 12.337 9.857 22.373 21.971 22.373h395.342c12.116 0 21.974-10.036 21.974-22.373v-33.798c0-1.521-1.187-2.757-2.646-2.757h-148.749c-1.457 0-2.644 1.236-2.644 2.757v12.538c0 7.059-5.693 12.803-12.69 12.803h-105.832c-6.998 0-12.69-5.744-12.69-12.803v-12.538c0-1.521-1.187-2.757-2.644-2.757z"/><path d="m368.988 54.819c-30.942-30.641-71.83-47.468-115.23-47.468h-.954c-67.12.386-124.724 41.343-149.697 99.488-1.441 3.355.944 7.103 4.595 7.103h.03c2.014 0 3.802-1.217 4.594-3.068 23.392-54.635 77.506-93.081 140.528-93.476h.904c40.738 0 79.114 15.823 108.148 44.555 29.235 28.933 45.459 67.561 45.66 108.75.503 84.991-68.163 154.511-152.953 154.963h-.904c-40.788 0-79.164-15.773-108.198-44.505-29.184-28.933-45.409-67.561-45.66-108.75-.04-7.621.485-15.149 1.55-22.507.444-3.065-1.847-5.823-4.944-5.823-2.494 0-4.658 1.814-5.01 4.283-1.118 7.849-1.685 15.901-1.643 24.098.31 54.221 26.654 104.294 73.049 135.884 26.825 18.264 58.848 27.367 91.3 27.367h.509c90.014-.502 162.95-73.99 162.95-164.055v-1.005c-.201-43.853-17.481-84.992-48.624-115.834z"/><g fill="#24ea60"><path d="m238.483 276.093c-1.97 0-3.841-1.163-4.643-3.1-16.325-39.341-19.082-79.835-8.192-120.368 6.752-25.125 21.515-32.14 32.714-33.602 11.878-1.565 23.453 2.737 31.735 11.773 8.383 9.149 11.815 21.75 9.178 33.705-.356 1.619-.797 3.223-1.327 4.812-5.418 16.247-6.448 33.425-3.063 51.06.964 5.018 4.081 9.276 8.55 11.675 4.385 2.359 9.529 2.615 14.12.701l1.15-.481c7.123-2.963 11.044-10.576 9.541-18.523-2.225-11.763-1.555-23.114 1.992-33.734 1.042-3.149 1.901-6.397 2.551-9.629 4.658-23.104-2.541-47.097-19.254-64.182-16.563-16.924-40.133-24.561-63.071-20.431-28.105 5.087-49.118 26.229-57.648 57.996-6.784 25.233-9.122 50.717-6.948 75.739.24 2.767-1.805 5.2-4.569 5.44-2.752.294-5.2-1.805-5.438-4.567-2.276-26.2.164-52.851 7.253-79.222 9.58-35.672 33.477-59.463 65.563-65.276 26.202-4.709 53.142 3.978 72.04 23.296 19.04 19.465 27.235 46.822 21.922 73.188-.728 3.625-1.695 7.265-2.865 10.811-3.005 8.992-3.559 18.645-1.658 28.706 2.396 12.661-3.998 24.856-15.55 29.658l-1.148.481c-7.39 3.081-15.678 2.669-22.739-1.123-7.145-3.836-12.124-10.63-13.659-18.631-3.713-19.347-2.57-38.233 3.397-56.127.417-1.251.765-2.521 1.047-3.797 1.933-8.766-.601-18.022-6.774-24.757-6.036-6.588-14.417-9.693-23.028-8.604-11.869 1.55-20.048 10.385-24.311 26.254-10.446 38.88-7.905 76.136 7.77 113.913 1.062 2.561-.152 5.499-2.715 6.563-.631.261-1.283.383-1.923.383z"/><path d="m168.25 140.254c-.432 0-.868-.054-1.305-.172-2.681-.721-4.268-3.478-3.549-6.156 12.241-45.561 44.813-76.063 87.127-81.586 4.292-.559 8.656-.844 12.975-.844 28.385 0 55.735 12.106 75.04 33.219 1.874 2.046 1.732 5.224-.316 7.098-2.053 1.864-5.227 1.727-7.096-.319-20.051-21.922-50.013-32.989-79.305-29.197-38.142 4.984-67.572 32.734-78.722 74.238-.603 2.242-2.632 3.719-4.849 3.719z"/><path d="m218.408 291.594c-1.97 0-3.841-1.163-4.643-3.1-19.153-46.16-22.376-93.703-9.58-141.314 10.716-39.866 37.34-49.088 52.259-51.036 2.489-.329 5.043-.495 7.584-.495 16.722 0 32.871 7.167 44.3 19.666 13.485 14.75 18.986 35.108 14.721 54.45-.53 2.413-1.194 4.827-1.974 7.181-4.616 13.828-5.479 28.515-2.57 43.658.525 2.722-1.261 5.357-3.986 5.882-2.715.5-5.357-1.266-5.879-3.988-3.238-16.855-2.261-33.249 2.902-48.72.667-2.016 1.241-4.096 1.697-6.171 3.564-16.158-1.045-33.17-12.325-45.512-9.531-10.419-22.977-16.399-36.886-16.399-2.104 0-4.219.137-6.279.407-12.435 1.624-34.664 9.458-43.861 43.687-12.207 45.419-9.126 90.789 9.158 134.859 1.062 2.561-.152 5.499-2.715 6.563-.631.26-1.283.382-1.923.382z"/><path d="m269.372 275.838c-1.972 0-3.841-1.167-4.643-3.1-20.72-49.966-15.283-91.549-7.069-117.636.834-2.649 3.657-4.111 6.299-3.287 2.646.834 4.116 3.654 3.282 6.299-7.709 24.497-12.796 63.598 6.769 110.778 1.062 2.561-.155 5.499-2.715 6.563-.63.261-1.283.383-1.923.383z"/></g><path d="m183.535 401.014h-21.123c-2.774 0-5.023-2.247-5.023-5.023v-42.319c0-2.776 2.249-5.023 5.023-5.023s5.023 2.247 5.023 5.023v37.296h16.099c2.774 0 5.023 2.247 5.023 5.023.001 2.776-2.248 5.023-5.022 5.023z"/><path d="m222.499 400.101c-13.907 0-25.219-11.346-25.219-25.287 0-13.926 11.312-25.253 25.219-25.253 13.924 0 25.253 11.327 25.253 25.253 0 13.941-11.329 25.287-25.253 25.287zm0-40.494c-8.366 0-15.172 6.823-15.172 15.207 0 8.403 6.806 15.241 15.172 15.241 8.386 0 15.207-6.838 15.207-15.241-.001-8.383-6.822-15.207-15.207-15.207z"/><path d="m286.325 400.101c-13.907 0-25.219-11.346-25.219-25.287 0-13.926 11.312-25.253 25.219-25.253 4.466 0 8.847 1.182 12.671 3.419 2.394 1.403 3.198 4.479 1.795 6.872-1.4 2.394-4.471 3.198-6.872 1.8-2.283-1.339-4.91-2.046-7.594-2.046-8.366 0-15.172 6.823-15.172 15.207 0 8.403 6.806 15.241 15.172 15.241 2.678 0 5.305-.706 7.601-2.046 2.399-1.408 5.472-.584 6.87 1.805 1.398 2.394.589 5.47-1.808 6.868-3.828 2.238-8.209 3.42-12.663 3.42z"/><path d="m324.491 401.014c-2.774 0-5.023-2.247-5.023-5.023v-42.319c0-2.776 2.249-5.023 5.023-5.023s5.023 2.247 5.023 5.023v42.319c0 2.776-2.249 5.023-5.023 5.023z"/><path d="m325.416 382.158c-1.31 0-2.619-.51-3.603-1.526-1.933-1.992-1.886-5.17.103-7.103l24.169-23.462c1.989-1.933 5.173-1.884 7.103.108 1.933 1.992 1.886 5.17-.103 7.103l-24.169 23.462c-.976.947-2.239 1.418-3.5 1.418z"/><path d="m347.353 401.014c-1.474 0-2.933-.647-3.927-1.889l-16.857-21.093c-1.732-2.168-1.378-5.327.787-7.059 2.166-1.732 5.327-1.378 7.061.79l16.857 21.093c1.732 2.168 1.378 5.327-.787 7.059-.927.741-2.033 1.099-3.134 1.099z"/></g></g><g id="Layer_1"/></svg>