<svg id="Layer_1" enable-background="new 0 0 512 512" height="512" viewBox="0 0 512 512" width="512" xmlns="http://www.w3.org/2000/svg"><g clip-rule="evenodd" fill-rule="evenodd"><g><path d="m307.752 437.721-152.098 1.95-33.791 57.986c-1.484 2.547.523 5.341 3.069 5.341h214.678c2.546 0 4.553-2.793 3.069-5.341z" fill="#004960"/><path d="m428.328 128.901c12.571 0 22.857 10.285 22.857 22.857v275.151c0 12.573-10.286 22.857-22.857 22.857h-392.116c-12.571 0-22.857-10.285-22.857-22.857v-275.151c0-12.572 10.286-22.857 22.857-22.857z" fill="#e6f8ff"/><path d="m451.186 411.494h-437.831v15.415c0 12.572 10.286 22.857 22.857 22.857h392.116c12.571 0 22.857-10.285 22.857-22.857v-15.415z" fill="#007ba1"/></g><g><path d="m370.067 15.229-103.787 173.197c-3.656 6.102-3.743 13.168-.236 19.357 3.506 6.189 9.612 9.747 16.725 9.747h196.581c7.113 0 13.219-3.558 16.725-9.747s3.421-13.255-.236-19.357l-103.787-173.197c-2.381-3.973-6.36-6.228-10.992-6.228-4.633 0-8.612 2.255-10.993 6.228z" fill="#eb3b48"/><path d="m381.06 31.149-99.672 166.329c-.391.652-.394.96-.02 1.621.375.661.641.817 1.401.817h196.581c.76 0 1.026-.156 1.401-.817.374-.661.371-.97-.02-1.621z" fill="#ffe600"/><g fill="#eb3b48"><path d="m389.686 147.378c0 11.335-17.252 11.335-17.252 0l-5.295-80.655c0-18.294 27.843-18.295 27.843 0z"/><circle cx="381.06" cy="182.061" r="11.1"/></g></g><g><circle cx="232.27" cy="270.198" fill="#7ed0ed" r="112.18"/><g><ellipse cx="205.337" cy="315.218" fill="#007ba1" rx="26.934" ry="19.192"/><path d="m205.337 288.991c8.915 0 17.094 2.652 23.112 6.94 6.708 4.78 10.856 11.587 10.856 19.287s-4.149 14.507-10.856 19.287c-6.017 4.288-14.197 6.94-23.112 6.94s-17.095-2.653-23.112-6.94c-6.707-4.779-10.857-11.587-10.857-19.287s4.149-14.507 10.857-19.287c6.017-4.288 14.197-6.94 23.112-6.94zm14.978 18.371c-3.73-2.658-9.018-4.302-14.978-4.302s-11.248 1.644-14.978 4.302c-3.04 2.166-4.921 4.956-4.921 7.855s1.88 5.689 4.921 7.855c3.73 2.658 9.018 4.302 14.978 4.302s11.248-1.644 14.978-4.302c3.04-2.166 4.921-4.956 4.921-7.855 0-2.898-1.881-5.688-4.921-7.855z" fill="#004960"/><ellipse cx="259.204" cy="315.218" fill="#007ba1" rx="26.934" ry="19.192"/><path d="m259.205 303.06c-5.96 0-11.248 1.644-14.978 4.302-3.04 2.166-4.921 4.956-4.921 7.855s1.881 5.689 4.921 7.855c3.73 2.658 9.018 4.302 14.978 4.302s11.248-1.644 14.978-4.302c3.04-2.166 4.921-4.956 4.921-7.855s-1.881-5.689-4.921-7.855c-3.731-2.658-9.019-4.302-14.978-4.302zm-23.113-7.129c6.018-4.288 14.197-6.94 23.112-6.94s17.094 2.652 23.112 6.94c6.708 4.78 10.856 11.587 10.856 19.287s-4.149 14.507-10.856 19.287c-6.017 4.288-14.197 6.94-23.112 6.94s-17.095-2.652-23.112-6.94c-6.708-4.779-10.857-11.587-10.857-19.287.001-7.7 4.15-14.507 10.857-19.287z" fill="#004960"/><path d="m302.612 287.602-79.638 20.451-59.098-21.754 23.299-68.952c2.987-8.842 12.472-13.483 21.287-10.416 14.773 5.139 34.351 5.139 49.124 0 8.815-3.066 18.3 1.574 21.287 10.416z" fill="#007ba1"/><path d="m147.557 296.179c-5.405-1.959-8.199-7.93-6.239-13.335 1.959-5.405 7.93-8.199 13.335-6.239 28.331 10.249 53.023 15.374 77.617 15.374s49.286-5.125 77.618-15.374c5.405-1.959 11.376.834 13.335 6.239s-.834 11.376-6.24 13.335c-30.736 11.119-57.676 16.679-84.713 16.679-27.036 0-53.976-5.56-84.713-16.679z" fill="#004960"/></g></g></g></svg>