<svg id="Layer_1" enable-background="new 0 0 500 500" viewBox="0 0 500 500" xmlns="http://www.w3.org/2000/svg"><g clip-rule="evenodd" fill-rule="evenodd"><path d="m172.786 296.22c-7.556.974-15.77-.353-23.412-4.29-18.109-9.326-26.157-29.761-17.978-45.644 5.397-10.481 16.512-16.358 28.652-16.466z" fill="#cf8c48"/><path d="m327.315 299.016c7.556.974 15.769-.354 23.412-4.289 18.109-9.326 26.156-29.761 17.977-45.644-5.397-10.481-16.512-16.358-28.652-16.466z" fill="#cf8c48"/><path d="m335.986 194.237c5.312 17.034 8.269 35.93 8.269 55.825 0 75.151-42.177 136.072-94.204 136.072-52.028 0-94.204-60.921-94.204-136.072 0-19.895 2.957-38.791 8.268-55.825z" fill="#f0b16e"/><path d="m344.204 245.579c.25 11.208-.441 22.279-2.022 32.981-2.036 13.79-13.675 23.836-27.615 23.836h-31.829c-10.707 0-19.918-4.744-26.135-13.461l-6.554-9.189-6.554 9.189c-6.217 8.717-15.427 13.461-26.135 13.461h-31.828c-13.94 0-25.579-10.046-27.615-23.836-1.58-10.7-2.271-21.774-2.022-32.981.162-7.197 6.058-12.963 13.257-12.963h161.794c7.201 0 13.097 5.766 13.258 12.963z" fill="#685e68"/><path d="m250.051 113.989c41.781 0 77.204 30.729 89.537 73.27h-179.075c12.334-42.541 47.756-73.27 89.538-73.27z" fill="#fa6e85"/><path d="m150.612 176.792h198.876c7.676 0 13.956 6.28 13.956 13.956s-6.28 13.956-13.956 13.956h-198.876c-7.676 0-13.956-6.28-13.956-13.956s6.281-13.956 13.956-13.956z" fill="#e33f65"/><path d="m226.882 272.245c-10.096 15.649-34.884 15.663-41.554-.379-2.9-6.975-1.182-14.846 3.783-20.833z" fill="#ffe177"/><path d="m273.219 272.245c10.098 15.65 34.884 15.662 41.553-.379 2.9-6.975 1.183-14.846-3.783-20.833z" fill="#ffe177"/><path d="m308.297 269.2c-3.535 8.498-15.449 10.033-23.797 4.667l23.931-13.429c1.029 2.938 1.011 6.005-.134 8.762zm-.765-24.241-37.763 21.221c-3.504 1.964-4.625 6.469-2.442 9.842 13.219 20.423 45.013 19.758 53.832-1.478 3.768-9.089 1.91-19.79-4.86-27.95-2.137-2.587-5.835-3.276-8.767-1.635zm-95.152 30.549c-12.467 5.186-24.847-3.569-20.8-15.07l23.931 13.429c-.981.631-2.032 1.186-3.131 1.641zm17.863-9.328-37.775-21.221c-2.932-1.641-6.618-.952-8.762 1.635-15.365 18.541-3.162 44.334 21.308 44.334 10.965 0 21.705-5.638 27.67-14.906 2.178-3.384 1.055-7.888-2.441-9.842zm132.809 5.637c-2.774 7.044-8.3 12.979-15.549 16.717 2.412-12.377 3.668-25.286 3.668-38.469l-.187-8.26c11.905 5.092 16.922 17.667 12.068 30.012zm-113.049 107.353c-34.439 0-64.275-29.679-78.446-72.658 4.27 1.84 8.978 2.851 13.931 2.851h31.823c12.979 0 24.276-5.818 31.805-16.384l.888-1.244.882 1.244c7.541 10.566 18.837 16.384 31.805 16.384h31.828c4.953 0 9.667-1.01 13.937-2.851-14.177 42.98-44.02 72.658-78.453 72.658zm-112.471-129.696c2.465-4.772 6.548-8.388 11.618-10.52-.876 15.46.123 31.562 2.774 46.472-14.251-7.687-20.712-23.674-14.392-35.952zm195.759-37.809c1.022 4.796 1.828 9.679 2.453 14.609-1.565-.391-3.178-.619-4.842-.619h-161.798c-1.67 0-3.283.228-4.836.619.625-4.93 1.431-9.813 2.442-14.609zm-189.719-20.917c0-3.849 3.137-6.986 6.998-6.986h198.872c3.855 0 6.992 3.137 6.992 6.986 0 3.855-3.137 6.992-6.992 6.992h-198.872c-3.861 0-6.998-3.137-6.998-6.992zm106.431-69.796c30.987 0 59.533 18.872 75.117 48.884h-150.228c15.572-30.011 44.13-48.884 75.111-48.884zm85.245 156.589c1.347-9.199 2.351-22.271 1.933-32.062-.204-3.277-2.973-5.905-6.279-5.905h-161.798c-3.312 0-6.069 2.64-6.273 5.917-.418 9.786.573 22.858 1.934 32.05 1.53 10.368 10.245 17.897 20.724 17.897h31.823c8.475 0 15.549-3.645 20.467-10.543l6.554-9.188c2.778-3.879 8.569-3.884 11.338 0l6.554 9.188c4.918 6.898 11.998 10.543 20.467 10.543h31.828c10.477 0 19.198-7.529 20.728-17.897zm14.591-50.672c-.584-5.122-1.384-10.193-2.354-15.204h1.957c11.536 0 20.917-9.375 20.917-20.917 0-11.536-9.381-20.911-20.917-20.911h-8.884c-17.044-38.312-52.12-62.809-90.555-62.809s-73.51 24.498-90.561 62.809h-8.873c-11.542 0-20.923 9.375-20.923 20.911 0 11.542 9.381 20.917 20.923 20.917h1.957c-.8 4.065-1.466 8.178-2.003 12.325-11.063 2.564-20.368 9.41-25.362 19.112-9.924 19.264-.508 43.949 20.981 55.023 3.032 1.56 6.221 2.775 9.457 3.663 4.883 17.915 12.325 34.386 22.068 48.458 39.588 57.181 105.086 57.185 144.673 0 9.188-13.277 16.326-28.674 21.209-45.409 14.635-3.755 27.001-14.071 32.459-27.926 8.665-21.998-3.318-44.528-26.169-50.042zm-92.873 209.597c95.707-3.592 172.891-80.783 176.483-176.489h-22.109c-3.844 0-6.963-3.119-6.963-6.957 0-3.855 3.119-6.962 6.963-6.962h22.108c-3.58-95.712-80.777-172.903-176.483-176.495v18.119c0 3.844-3.119 6.963-6.963 6.963-3.838 0-6.957-3.119-6.957-6.963v-18.12c-95.705 3.593-172.901 80.783-176.482 176.495h22.109c3.843 0 6.963 3.107 6.963 6.962 0 3.838-3.119 6.957-6.963 6.957h-22.109c3.581 95.707 80.777 172.897 176.483 176.489v-22.115c0-3.849 3.119-6.963 6.957-6.963 3.843 0 6.963 3.113 6.963 6.963zm212.809-190.409h-22.389c-3.604-103.393-87.038-186.828-190.42-190.426v-28.417c0-3.844-3.119-6.963-6.963-6.963-3.838 0-6.957 3.119-6.957 6.963v28.417c-103.393 3.598-186.816 87.033-190.42 190.426h-22.401c-3.844 0-6.963 3.107-6.963 6.962 0 3.838 3.119 6.957 6.963 6.957h22.401c3.604 103.388 87.027 186.816 190.42 190.42v22.389c0 3.843 3.119 6.963 6.957 6.963 3.843 0 6.963-3.119 6.963-6.963v-22.389c103.382-3.604 186.816-87.033 190.42-190.42h22.389c3.849 0 6.963-3.119 6.963-6.957-.001-3.854-3.114-6.962-6.963-6.962z" fill="#2b3f4f"/></g></svg>