<svg height="512" viewBox="0 0 64 64" width="512" xmlns="http://www.w3.org/2000/svg"><g id="_18._Fraut_Alert" data-name="18. Fraut Alert"><rect fill="#96a1c3" height="36" rx="4" width="58" x="3" y="27"/><path d="m61 31v8h-18a5 5 0 0 1 -5-5v-7h19a4 4 0 0 1 4 4z" fill="#647499"/><path d="m57 60h-50a4 4 0 0 1 -4-4v3a4 4 0 0 0 4 4h50a4 4 0 0 0 4-4v-3a4 4 0 0 1 -4 4z" fill="#647499"/><path d="m57 36v18a5 5 0 0 0 -5 5h-40a5 5 0 0 0 -5-5v-18a5 5 0 0 0 5-5h40a5 5 0 0 0 5 5z" fill="#ccd3eb"/><path d="m57 36v3h-14a5 5 0 0 1 -5-5v-3h14a5 5 0 0 0 5 5z" fill="#96a1c3"/><circle cx="32" cy="45" fill="#f5f7ff" r="9"/><path d="m32 44a1 1 0 0 1 0-2h2a1 1 0 0 0 0-2h-1a1 1 0 0 0 -2 0v.18a3 3 0 0 0 1 5.82 1 1 0 0 1 0 2h-2a1 1 0 0 0 0 2h1a1 1 0 0 0 2 0v-.18a3 3 0 0 0 -1-5.82z" fill="#0074ff"/><path d="m13 47h4a2 2 0 0 0 0-4h-4a2 2 0 0 0 0 4z" fill="#f5f7ff"/><path d="m47 47h4a2 2 0 0 0 0-4h-4a2 2 0 0 0 0 4z" fill="#f5f7ff"/><rect fill="#0074ff" height="20" rx="2" width="22" x="41" y="16"/><circle cx="52" cy="26" fill="#f5f7ff" r="6"/><path d="m53.84 28.35a3 3 0 1 0 -3.68 0 5.14 5.14 0 0 0 -2.36 1.93 6 6 0 0 0 8.4 0 5.14 5.14 0 0 0 -2.36-1.93z" fill="#96a1c3"/><path d="m59 10v1a1 1 0 0 1 -1 1h-2a1 1 0 0 1 -1-1v-1a3 3 0 0 0 -6 0v6h-4v-6a7 7 0 0 1 14 0z" fill="#f5f7ff"/><path d="m45 13h4v3h-4z" fill="#ccd3eb"/><path d="m19.83 21h-15.66a3.17 3.17 0 0 1 -2.76-4.72l7.59-13.54a3.43 3.43 0 0 1 6 0l7.61 13.54a3.17 3.17 0 0 1 -2.78 4.72z" fill="#0074ff"/><g fill="#033c59"><path d="m31 32a1 1 0 0 0 0-2h-2a1 1 0 0 0 0 2z"/><path d="m61 15h-11v-5a2 2 0 0 1 4 0v1a2 2 0 0 0 2 2h2a2 2 0 0 0 2-2v-1a8 8 0 0 0 -16 0v5h-1a3 3 0 0 0 -3 3v8h-33a5 5 0 0 0 -5 5v28a5 5 0 0 0 5 5h50a5 5 0 0 0 5-5v-18a1 1 0 0 0 -2 0v18a3 3 0 0 1 -3 3h-50a3 3 0 0 1 -3-3v-28a3 3 0 0 1 3-3h33v2h-5a1 1 0 0 0 0 2h5v2a3 3 0 0 0 3 3h13v16.08a6 6 0 0 0 -4.92 4.92h-38.16a6 6 0 0 0 -4.92-4.92v-16.16a6 6 0 0 0 4.92-4.92h12.08a1 1 0 0 0 0-2h-13a1 1 0 0 0 -1 1 4 4 0 0 1 -4 4 1 1 0 0 0 -1 1v18a1 1 0 0 0 1 1 4 4 0 0 1 4 4 1 1 0 0 0 1 1h40a1 1 0 0 0 1-1 4 4 0 0 1 4-4 1 1 0 0 0 1-1v-17h3a3 3 0 0 0 3-3v-16a3 3 0 0 0 -3-3zm-15-5a6 6 0 0 1 12 0v1h-2v-1a4 4 0 0 0 -8 0v5h-2zm16 24a1 1 0 0 1 -1 1h-18a1 1 0 0 1 -1-1v-16a1 1 0 0 1 1-1h18a1 1 0 0 1 1 1z"/><path d="m52 19a7 7 0 1 0 7 7 7 7 0 0 0 -7-7zm0 12a5 5 0 1 1 5-5 5 5 0 0 1 -5 5z"/><path d="m19.83 22a4.17 4.17 0 0 0 3.63-6.21l-7.61-13.54a4.42 4.42 0 0 0 -7.7 0l-7.61 13.54a4.17 4.17 0 0 0 3.63 6.21zm-17.83-4.17c0-.82-.31 0 7.89-14.6a2.42 2.42 0 0 1 4.22 0c8.26 14.68 7.89 13.77 7.89 14.6a2.17 2.17 0 0 1 -2.17 2.17h-15.66a2.17 2.17 0 0 1 -2.17-2.17z"/></g><path d="m12 13a1 1 0 0 0 1-1v-4a1 1 0 0 0 -2 0v4a1 1 0 0 0 1 1z" fill="#f5f7ff"/><path d="m12 15a1 1 0 1 0 1 1 1 1 0 0 0 -1-1z" fill="#f5f7ff"/><path d="m37 17a1 1 0 1 0 -1-1 1 1 0 0 0 1 1z" fill="#0074ff"/><path d="m37 19a1 1 0 1 0 1 1 1 1 0 0 0 -1-1z" fill="#0074ff"/></g></svg>