<svg id="Filloutline" enable-background="new 0 0 62 62" height="512" viewBox="0 0 62 62" width="512" xmlns="http://www.w3.org/2000/svg"><g><g><g><path d="m1 55v-43.17c0-.29.06-.57.18-.83h7.82c1.1 0 2-.9 2-2v-7.82c.26-.12.54-.18.83-.18h31.17c1.1 0 2 .9 2 2v8c-1.38 0-2.72.17-4 .5v-6.5h-6v9.51c-1.62 1.3-2.99 2.91-4 4.74v-10.25h-6v18h4c0 7.73 5.48 14.18 12.76 15.68-.47.66-.76 1.45-.76 2.32v2 10h-38c-1.1 0-2-.9-2-2zm26-2c3.31 0 6-2.69 6-6s-2.69-6-6-6-6 2.69-6 6c0 1.66.67 3.16 1.76 4.24 1.08 1.09 2.58 1.76 4.24 1.76zm-6-26v-14h-6v14zm-10 26c3.31 0 6-2.69 6-6s-2.69-6-6-6-6 2.69-6 6 2.69 6 6 6zm0-26v-10h-6v10z" fill="#e6e9ed"/></g><g><path d="m33 47h-6v-6c3.31 0 6 2.69 6 6z" fill="#fcd770"/></g><g><path d="m27 47h6c0 3.31-2.69 6-6 6-1.66 0-3.16-.67-4.24-1.76z" fill="#b4dd7f"/></g><g><path d="m27 41v6l-4.24 4.24c-1.09-1.08-1.76-2.58-1.76-4.24 0-3.31 2.69-6 6-6z" fill="#ef7385"/></g><g><path d="m17 47h-6-6c0-3.31 2.69-6 6-6s6 2.69 6 6z" fill="#b4dd7f"/></g><g><path d="m11 47h6c0 3.31-2.69 6-6 6z" fill="#fcd770"/></g><g><path d="m11 47v6c-3.31 0-6-2.69-6-6z" fill="#ef7385"/></g><g><path d="m11 1.18v7.82c0 1.1-.9 2-2 2h-7.82c.1-.22.24-.42.41-.59l8.82-8.82c.17-.17.37-.31.59-.41z" fill="#fcd770"/></g><g><path d="m41 5v6.5c-2.22.58-4.26 1.61-6 3.01v-9.51z" fill="#ef7385"/></g><g><path d="m31 19.25c-.01 0 0 .01 0 .01-1.28 2.29-2 4.93-2 7.74h-4v-18h6z" fill="#ef7385"/></g><g><path d="m15 13h6v14h-6z" fill="#ef7385"/></g><g><path d="m5 17h6v10h-6z" fill="#ef7385"/></g><g><path d="m49 47v10c0 1.1-.45 2.1-1.17 2.83-.73.72-1.73 1.17-2.83 1.17-2.21 0-4-1.79-4-4v-10z" fill="#cf9e76"/></g><g><path d="m49 45v2h-8v-2c0-.87.29-1.66.76-2.32 1.05.21 2.13.32 3.24.32s2.19-.11 3.24-.32c.47.66.76 1.45.76 2.32z" fill="#b27946"/></g><g><path d="m41 11.5c1.28-.33 2.62-.5 4-.5 8.84 0 16 7.16 16 16 0 7.73-5.48 14.18-12.76 15.68-1.05.21-2.13.32-3.24.32s-2.19-.11-3.24-.32c-7.28-1.5-12.76-7.95-12.76-15.68 0-2.81.72-5.45 2-7.74 0 0-.01-.01 0-.01 1.01-1.83 2.38-3.44 4-4.74 1.74-1.4 3.78-2.43 6-3.01zm16 15.94v-4.44c0-.96-.68-1.77-1.59-1.96-2.07-3.6-5.95-6.04-10.41-6.04s-8.34 2.44-10.41 6.04c-.91.19-1.59 1-1.59 1.96v4.44c0 .13 0 .27.02.4 0 .13.02.25.04.37-.01.01 0 .01 0 .01.61 6.06 5.73 10.78 11.94 10.78s11.33-4.72 11.94-10.78c0 0 .01 0 0-.01.02-.12.04-.24.04-.37.02-.13.02-.27.02-.4z" fill="#838f9b"/></g><g><path d="m46.46 29.93c.94 1.88 2.87 3.07 4.98 3.07 1.54 0 2.92-.62 3.93-1.63.84-.84 1.4-1.92 1.57-3.15-.61 6.06-5.73 10.78-11.94 10.78s-11.33-4.72-11.94-10.78c.37 2.7 2.7 4.78 5.5 4.78 1.06 0 2.06-.3 2.93-.83.86-.53 1.58-1.3 2.05-2.24l.01-.04c.28-.54.84-.89 1.45-.89s1.17.35 1.45.89z" fill="#4fc1e9"/></g><g><path d="m55.41 21.04c-.13-.03-.27-.04-.41-.04h-20c-.14 0-.28.01-.41.04 2.07-3.6 5.95-6.04 10.41-6.04s8.34 2.44 10.41 6.04z" fill="#4fc1e9"/></g><g><path d="m57 23v4.44c0 .13 0 .27-.02.4-.01.13-.02.25-.04.37.01.01 0 .01 0 .01-.17 1.23-.73 2.31-1.57 3.15-1.01 1.01-2.39 1.63-3.93 1.63-2.11 0-4.04-1.19-4.98-3.07l-.01-.04c-.28-.54-.84-.89-1.45-.89s-1.17.35-1.45.89l-.01.04c-.47.94-1.19 1.71-2.05 2.24-.87.53-1.87.83-2.93.83-2.8 0-5.13-2.08-5.5-4.78 0 0-.01 0 0-.01-.02-.12-.03-.24-.04-.37-.02-.13-.02-.27-.02-.4v-4.44c0-.96.68-1.77 1.59-1.96.13-.03.27-.04.41-.04h20c.14 0 .28.01.41.04.91.19 1.59 1 1.59 1.96zm-4 4c0-1.1-.9-2-2-2s-2 .9-2 2 .9 2 2 2 2-.9 2-2zm-12 0c0-1.1-.9-2-2-2s-2 .9-2 2 .9 2 2 2 2-.9 2-2z" fill="#969faa"/></g><g><circle cx="51" cy="27" fill="#656d78" r="2"/></g><g><circle cx="39" cy="27" fill="#656d78" r="2"/></g></g><g><path d="m12 16h-8v12h8zm-2 10h-4v-8h4z"/><path d="m22 12h-8v16h8zm-2 14h-4v-12h4z"/><path d="m11 40c-3.86 0-7 3.141-7 7s3.14 7 7 7 7-3.141 7-7-3.14-7-7-7zm0 2c2.414 0 4.434 1.721 4.899 4h-9.798c.465-2.279 2.485-4 4.899-4zm-4.899 6h3.899v3.899c-1.956-.399-3.5-1.943-3.899-3.899zm5.899 3.899v-3.899h3.899c-.399 1.956-1.943 3.5-3.899 3.899z"/><path d="m27 40c-3.86 0-7 3.141-7 7s3.14 7 7 7 7-3.141 7-7-3.14-7-7-7zm4.899 6h-3.899v-3.899c1.956.399 3.5 1.943 3.899 3.899zm-5.899-3.899v4.485l-3.167 3.167c-.524-.791-.833-1.736-.833-2.753 0-2.414 1.721-4.434 4-4.899zm1 9.899c-1.017 0-1.962-.309-2.753-.833l3.167-3.167h4.485c-.465 2.279-2.485 4-4.899 4z"/><path d="m4 30h2v2h-2z"/><path d="m8 30h14v2h-14z"/><path d="m4 34h18v2h-18z"/><path d="m62 27c0-9.036-7.092-16.427-16-16.949v-7.051c0-1.654-1.346-3-3-3h-31.171c-.801 0-1.555.313-2.122.879l-8.828 8.828c-.567.566-.879 1.32-.879 2.121v43.172c0 1.654 1.346 3 3 3h37.101c.465 2.279 2.484 4 4.899 4 2.757 0 5-2.243 5-5v-12c0-.577-.109-1.139-.303-1.675 7.094-2.044 12.303-8.582 12.303-16.325zm-52-23.586v5.586c0 .552-.449 1-1 1h-5.586zm-8 51.586v-43h7c1.654 0 3-1.346 3-3v-7h31c.551 0 1 .448 1 1v7.051c-.678.04-1.346.114-2 .231v-6.282h-8v10.062c-.72.613-1.391 1.283-2 2.006v-8.068h-8v20h4.051c.428 7.3 5.468 13.37 12.253 15.325-.195.536-.304 1.098-.304 1.675v11h-37c-.551 0-1-.448-1-1zm38-44.247c-1.425.439-2.761 1.074-4 1.851v-6.604h4zm-11.949 15.247h-2.051v-16h4v9.017c-1.124 2.103-1.802 4.472-1.949 6.983zm16.949 34c-1.654 0-3-1.346-3-3v-9h6v9c0 1.654-1.346 3-3 3zm3-15v1h-6v-1c0-.43.1-.849.282-1.238.887.143 1.791.238 2.718.238s1.831-.095 2.718-.238c.182.389.282.808.282 1.238zm-3-3c-8.271 0-15-6.729-15-15s6.729-15 15-15 15 6.729 15 15-6.729 15-15 15z"/><path d="m58 23c0-1.278-.807-2.365-1.936-2.796-2.36-3.834-6.56-6.204-11.064-6.204s-8.704 2.37-11.064 6.204c-1.129.431-1.936 1.518-1.936 2.796v4.438c0 .184.011.362.027.533.009.114.023.227.038.339.001.004.001.009.001.013.675 6.657 6.235 11.677 12.934 11.677s12.259-5.02 12.929-11.638c.001-.007.001-.015.002-.022.041-.296.07-.596.07-.903v-4.437zm-13-7c3.288 0 6.374 1.505 8.446 4h-16.892c2.072-2.495 5.158-4 8.446-4zm0 22c-3.62 0-6.841-1.737-8.851-4.466.748.298 1.561.466 2.414.466 2.501 0 4.75-1.391 5.885-3.658.211-.422.879-.452 1.121.03 1.118 2.237 3.367 3.628 5.869 3.628.855 0 1.671-.169 2.421-.469-2.008 2.726-5.233 4.469-8.859 4.469zm6.438-6c-1.739 0-3.303-.967-4.096-2.553-.446-.892-1.344-1.447-2.342-1.447s-1.896.555-2.357 1.478c-.778 1.555-2.341 2.522-4.08 2.522-2.516 0-4.563-2.047-4.563-4.562v-4.438c0-.552.449-1 1-1h20c.551 0 1 .448 1 1v4.438c0 2.515-2.047 4.562-4.562 4.562z"/><path d="m39 24c-1.654 0-3 1.346-3 3s1.346 3 3 3 3-1.346 3-3-1.346-3-3-3zm0 4c-.551 0-1-.448-1-1s.449-1 1-1 1 .448 1 1-.449 1-1 1z"/><path d="m51 24c-1.654 0-3 1.346-3 3s1.346 3 3 3 3-1.346 3-3-1.346-3-3-3zm0 4c-.551 0-1-.448-1-1s.449-1 1-1 1 .448 1 1-.449 1-1 1z"/></g></g></svg>