<svg id="_x33_0" enable-background="new 0 0 64 64" height="512" viewBox="0 0 64 64" width="512" xmlns="http://www.w3.org/2000/svg"><g><g><g><path d="m15 26 2 6h-6l2-6z" fill="#e6e9ed"/></g><g><path d="m17 22-2 4h-2l-2-4z" fill="#ccd1d9"/></g><g><path d="m23.7 26.97c-1.04.5-1.97 1.16-2.77 1.96-.88.88-1.59 1.92-2.09 3.07h-1.84l-2-6 2-4c3.16 0 5.83 2.09 6.7 4.97z" fill="#75b1f2"/></g><g><path d="m11 22 2 4-2 6h-7v-3c0-3.87 3.13-7 7-7z" fill="#75b1f2"/></g><g><path d="m21.84 8.64-.48 1.9c-.35-.33-.83-.54-1.36-.54h-1l-3.04-.43c-1.45-.21-2.66-1.08-3.35-2.28l-3.61 2.71h-1c-.53 0-1.01.2-1.36.54l-.48-1.9c-.11-.43-.16-.86-.16-1.3 0-2.95 2.39-5.34 5.34-5.34h5.32c1.48 0 2.81.6 3.78 1.56.96.97 1.56 2.3 1.56 3.78 0 .44-.05.87-.16 1.3z" fill="#b27946"/></g><g><path d="m60 11v1.24c0 1.17-.19 2.32-.56 3.43-.11.34-.17.7-.17 1.06 0 .52.12 1.05.36 1.53.24.49.37 1.02.37 1.57 0 .86-.31 1.67-.85 2.29l-.01.01c-.91-.77-1.99-1.33-3.2-1.64l-1.94-.49-.84-2.52v-.01c.32-.16.62-.36.89-.59.83-.7 1.42-1.68 1.61-2.82l.31-1.89c.02-.11.03-.23.03-.34 0-1.06-.76-1.96-1.8-2.13-1.21-.2-2.26-.82-3.01-1.71-.2-.24-.39-.5-.54-.78-.42-.73-.65-1.58-.65-2.47v-2.68c.33-.04.66-.06 1-.06 4.97 0 9 4.03 9 9z" fill="#b27946"/></g><g><path d="m50.65 7.21-3.18 1.91c-.91.54-1.47 1.53-1.47 2.6 0 .18.02.37.05.56l.29 1.78c.25 1.51 1.21 2.75 2.5 3.41v.01l-.84 2.52-1.94.49c-1.2.3-2.29.87-3.2 1.64l-.01-.01c-.54-.62-.85-1.43-.85-2.29 0-.55.13-1.08.37-1.57.24-.48.36-1.01.36-1.53 0-.36-.06-.72-.17-1.06-.37-1.11-.56-2.26-.56-3.43v-1.24c0-.46.04-.92.1-1.37.3-1.94 1.21-3.67 2.54-4.99 1.4-1.41 3.28-2.35 5.36-2.58v2.68c0 .89.23 1.74.65 2.47z" fill="#b27946"/></g><g><path d="m58 29c0-.55-.45-1-1-1h-5c-1.1 0-2 .9-2 2v2l-1.48 3.32-3.24-4.63c-1.28-1.84-3.08-3.21-5.13-3.98.36-1.81 1.33-3.43 2.71-4.58.91-.77 2-1.34 3.2-1.64l1.94-.49c0 1.1.9 2 2 2h2c1.1 0 2-.9 2-2l1.94.49c1.21.31 2.29.87 3.2 1.64 1.77 1.47 2.86 3.69 2.86 6.12v3.75h-6.2-.8c1.66 0 3-1.34 3-3z" fill="#ff826e"/></g><g><path d="m60 36v18h-18v-.49-11.51l2.34 2.34c1.06 1.06 2.51 1.66 4.01 1.66 2.7 0 5.03-1.91 5.56-4.56l1.09-5.44z" fill="#d3a06c"/></g><g><path d="m22 53.51v.49h-18v-18h14c0 2.97 1.62 5.57 4.03 6.94l-.03.06z" fill="#d3a06c"/></g><g><path d="m62 32v3c0 .55-.45 1-1 1h-1-5l.8-4z" fill="#b27946"/></g><g><path d="m18.84 32-.84 4h-14-1c-.55 0-1-.45-1-1v-2c0-.55.45-1 1-1h1 7 6z" fill="#b27946"/></g><g><path d="m42 42v11.51c0-2.25-.89-4.4-2.49-6l-3.51-3.51-.06-.16c.45-.14.85-.39 1.18-.72.54-.54.88-1.29.88-2.12 0-1.66-1.34-3-3-3l1-3-.21-.11c-1.18-.58-2.47-.89-3.79-.89v-3l5.86-4.88c.79.11 1.56.31 2.29.59 2.05.77 3.85 2.14 5.13 3.98l3.24 4.63 1.48-3.32h5 .8l-.8 4-1.09 5.44c-.53 2.65-2.86 4.56-5.56 4.56-1.5 0-2.95-.6-4.01-1.66z" fill="#fcd770"/></g><g><path d="m24.49 47.51c-.8.8-1.42 1.74-1.85 2.76-.42 1.01-.64 2.11-.64 3.24v-10.51l.03-.06c1.17.67 2.52 1.06 3.97 1.06h2z" fill="#fcd770"/></g><g><path d="m32 31v3c-1.32 0-2.61.31-3.79.89l-.21.11 1 3h3v6h-4-2c-1.45 0-2.8-.39-3.97-1.06-2.41-1.37-4.03-3.97-4.03-6.94l.84-4c.5-1.15 1.21-2.19 2.09-3.07.8-.8 1.73-1.46 2.77-1.96.78-.37 1.62-.65 2.5-.8z" fill="#fcd770"/></g><g><path d="m37.86 26.12-5.86 4.88-5.8-4.83c.58-.11 1.18-.17 1.8-.17h8 .27c.54 0 1.07.04 1.59.12z" fill="#ffc729"/></g><g><path d="m35 22 1 4h-8l1-4z" fill="#ffc729"/></g><g><path d="m41.34 11.5c-.44 1.11-1.08 2.15-1.9 3.05.36.53.56 1.18.56 1.85 0 1.01-.46 1.97-1.25 2.6l-3.75 3h-6l-3.75-3c-.79-.63-1.25-1.59-1.25-2.6 0-.63.18-1.23.49-1.74-1.56-1.1-2.49-2.89-2.49-4.8 0-.4.04-.8.12-1.18 1.09-2.41 1.33-2.7 1.6-2.96 1.06-1.06 2.52-1.72 4.14-1.72h5.53c2.36 0 4.65-.7 6.61-2l.36.54c1.07 1.6 1.64 3.49 1.64 5.42 0 .55-.05 1.09-.14 1.63z" fill="#656d78"/></g><g><path d="m35 38c1.66 0 3 1.34 3 3 0 .83-.34 1.58-.88 2.12-.33.33-.73.58-1.18.72-.29.11-.61.16-.94.16h-3v-6z" fill="#f0d0b4"/></g><g><path d="m50 30c0-1.1.9-2 2-2h5c.55 0 1 .45 1 1 0 1.66-1.34 3-3 3h-5z" fill="#f0d0b4"/></g><g><path d="m56 11.83c0 .11-.01.23-.03.34l-.31 1.89c-.19 1.14-.78 2.12-1.61 2.82-.27.23-.57.43-.89.59-.65.34-1.38.53-2.16.53-.77 0-1.51-.19-2.16-.53-1.29-.66-2.25-1.9-2.5-3.41l-.29-1.78c-.03-.19-.05-.38-.05-.56 0-1.07.56-2.06 1.47-2.6l3.18-1.91c.15.28.34.54.54.78.75.89 1.8 1.51 3.01 1.71 1.04.17 1.8 1.07 1.8 2.13z" fill="#f0d0b4"/></g><g><path d="m48.84 17.47c.65.34 1.39.53 2.16.53.78 0 1.51-.19 2.16-.53v.01l.84 2.52c0 1.1-.9 2-2 2h-2c-1.1 0-2-.9-2-2l.84-2.52z" fill="#f0d0b4"/></g><g><path d="m21.41 10.59c.37.36.59.86.59 1.41 0 1.1-.9 2-2 2h-1.5l.5-4h1c.53 0 1.01.21 1.36.54.02.02.03.03.05.05z" fill="#f0d0b4"/></g><g><path d="m9 10 .5 4h-1.5c-1.1 0-2-.9-2-2 0-.55.22-1.05.59-1.41.02-.02.03-.03.05-.05.35-.34.83-.54 1.36-.54z" fill="#f0d0b4"/></g><g><path d="m19 10-.5 4-.17 1.37c-.16 1.28-1.13 2.3-2.35 2.56-.2.05-.41.07-.63.07h-2.7c-.22 0-.43-.02-.63-.07-1.22-.26-2.19-1.28-2.35-2.56l-.17-1.37-.5-4 3.61-2.71c.69 1.2 1.9 2.07 3.35 2.28z" fill="#f0d0b4"/></g><g><path d="m15.98 17.93 1.02 4.07h-6l1.02-4.07c.2.05.41.07.63.07h2.7c.22 0 .43-.02.63-.07z" fill="#f0d0b4"/></g><g><path d="m36 35-1 3h-3-3l-1-3 .21-.11c1.18-.58 2.47-.89 3.79-.89s2.61.31 3.79.89z" fill="#a0d468"/></g><g><path d="m36 44 3.51 3.51c1.6 1.6 2.49 3.75 2.49 6 0 2.35-.95 4.47-2.49 6-1.53 1.54-3.65 2.49-6 2.49h-3.02c-4.69 0-8.49-3.8-8.49-8.49 0-1.13.22-2.23.64-3.24.43-1.02 1.05-1.96 1.85-2.76l3.51-3.51h4 3c.33 0 .65-.05.94-.16z" fill="#b4dd7f"/></g></g><path d="m60.446 21.97c.354-.654.554-1.386.554-2.141 0-.697-.165-1.396-.477-2.018-.282-.564-.329-1.231-.129-1.83.402-1.208.606-2.464.606-3.736v-1.245c0-5.514-4.486-10-10-10-3.455 0-6.506 1.762-8.303 4.435-.294-1.221-.797-2.388-1.505-3.449l-.915-1.372-.832.555c-1.798 1.197-3.89 1.831-6.05 1.831h-5.532c-2.068 0-3.92.923-5.179 2.374-.832-2.536-3.217-4.374-6.027-4.374h-5.314c-3.497 0-6.343 2.846-6.343 6.343 0 .516.063 1.033.189 1.537l.352 1.409c-.339.486-.541 1.074-.541 1.711 0 1.654 1.346 3 3 3h.618l.062.496c.168 1.349 1.01 2.461 2.153 3.049l-.623 2.495c-4.042.398-7.21 3.816-7.21 7.96v2c-1.103 0-2 .897-2 2v2c0 1.103.897 2 2 2v18h18.128c.716 4.526 4.633 8 9.357 8h3.029c4.724 0 8.641-3.474 9.357-8h18.129v-18c1.103 0 2-.897 2-2v-6.754c0-2.415-.96-4.639-2.554-6.276zm.554 9.03h-2.556c.344-.591.556-1.268.556-2 0-1.103-.897-2-2-2h-5c-1.654 0-3 1.346-3 3v1.788l-.671 1.51-2.225-3.179c-1.224-1.749-2.884-3.096-4.767-3.975.726-2.294 2.599-4.096 4.966-4.689l.961-.24c.466 1.049 1.515 1.785 2.736 1.785h2c1.221 0 2.27-.736 2.738-1.785l.961.24c3.12.78 5.301 3.572 5.301 6.791zm-20 2v14.701c-.242-.31-.496-.611-.778-.893l-2.715-2.715c.903-.735 1.493-1.84 1.493-3.093 0-1.746-1.13-3.217-2.692-3.762l.915-2.745-.987-.493c-1.011-.505-2.113-.81-3.236-.925v-1.606l5.131-4.276c2.538.482 4.826 1.919 6.334 4.073l2.916 4.165-2.295 5.163 1.828.813 3.736-8.407h3.931l-1.649 8.244c-.436 2.177-2.363 3.756-4.582 3.756-1.248 0-2.421-.486-3.304-1.368l-2.046-2.046v-8.586zm-15.394 11.98-1.828 1.828c-.282.282-.537.583-.778.893v-3.226c.821.292 1.695.465 2.606.505zm.394-1.98c-3.859 0-7-3.141-7-7 0-4.252 2.966-7.815 6.936-8.752l5.064 4.22v1.606c-1.123.115-2.226.42-3.236.925l-.986.493.835 2.508h-1.613c-.552 0-1-.448-1-1v-3h-2v3c0 1.654 1.346 3 3 3h5v4zm-10.78-24 .5 2h-3.44l.5-2zm4.663-8h.117c.552 0 1 .448 1 1s-.448 1-1 1h-.367zm-.563 4.496.062-.496h.618c.937 0 1.764-.44 2.315-1.115.277.383.588.743.942 1.064-.163.458-.257.945-.257 1.45 0 1.323.593 2.556 1.625 3.382l3.25 2.599-.665 2.66c-1.029.074-2.017.29-2.948.628-1.179-2.586-3.619-4.325-6.465-4.604l-.629-2.518c1.143-.589 1.984-1.701 2.152-3.05zm21.68.903c0-.608-.138-1.188-.369-1.722.178-.222.345-.451.504-.685.101.673.255 1.339.472 1.989.199.599.152 1.266-.13 1.829-.312.624-.477 1.322-.477 2.019 0 .758.201 1.493.558 2.15-.946.972-1.668 2.155-2.1 3.468-.864-.239-1.758-.376-2.67-.416l-.663-2.651 3.25-2.599c1.032-.826 1.625-2.058 1.625-3.382zm-6.72 20.601h-4.56l-.489-1.468c1.758-.699 3.779-.699 5.537 0zm-2.28-7.302-3.237-2.698h6.474zm2.22-6.698.5 2h-5.44l.5-2zm-18.838 0-1 2h-.764l-1-2zm-1.662 4h.559l1.333 4h-3.226zm4.494 4h-.494l-1.641-4.923 1.514-3.028c2.113.215 3.976 1.546 4.857 3.469-1.803 1.06-3.278 2.615-4.236 4.482zm14.786 8h2c1.103 0 2 .897 2 2s-.897 2-2 2h-2zm22-8h-4v-1c0-.552.448-1 1-1h5c0 1.103-.897 2-2 2zm-4.002-14c-1.826 0-3.369-1.308-3.669-3.108l-.296-1.776c-.022-.133-.033-.266-.033-.4 0-.709.378-1.376.986-1.741l2.365-1.42c.897 1.102 2.186 1.882 3.684 2.132.559.092.965.572.965 1.139 0 .062-.006.124-.015.181l-.314 1.885c-.3 1.8-1.843 3.108-3.673 3.108zm.004 2c.533 0 1.042-.093 1.534-.23l.444 1.331c-.054.502-.464.899-.98.899h-2c-.516 0-.926-.397-.979-.899l.444-1.332c.492.137 1.002.231 1.537.231zm7.998-8v1.245c0 1.057-.169 2.101-.503 3.104-.366 1.098-.28 2.321.237 3.358.174.346.266.734.266 1.122 0 .289-.052.571-.147.839-.805-.515-1.702-.91-2.67-1.152l-1.407-.353-.423-1.266c1.179-.856 2.035-2.141 2.291-3.676l.315-1.889c.027-.167.041-.337.041-.506 0-1.549-1.109-2.858-2.636-3.112-1.949-.325-3.364-1.995-3.364-3.971v-1.743c4.411 0 8 3.589 8 8zm-10-7.737v1.48c0 .726.128 1.425.363 2.072l-2.406 1.445c-1.207.724-1.957 2.049-1.957 3.456 0 .245.021.488.061.729l.296 1.775c.256 1.535 1.111 2.821 2.291 3.676l-.423 1.267-1.407.353c-.963.24-1.853.651-2.665 1.173-.1-.274-.153-.564-.153-.86 0-.388.092-.776.266-1.123.518-1.036.604-2.26.238-3.357-.335-1.003-.504-2.047-.504-3.105v-1.244c0-3.719 2.555-6.845 6-7.737zm-21.138 1.737h5.532c2.22 0 4.379-.565 6.302-1.643.854 1.384 1.304 2.967 1.304 4.599 0 1.833-.576 3.596-1.627 5.072-.392-.314-.836-.57-1.333-.735l-.724-.241-.633 1.896.724.241c.953.319 1.593 1.207 1.593 2.21 0 .712-.318 1.375-.875 1.819l-3.476 2.782h-5.299l-3.476-2.781c-.556-.445-.874-1.108-.874-1.82 0-1.004.64-1.892 1.593-2.21l.724-.241-.633-1.896-.724.241c-.605.202-1.135.534-1.581.95-.871-.899-1.379-2.106-1.379-3.381 0-2.68 2.182-4.862 4.862-4.862zm-19.862 8c-.552 0-1-.448-1-1s.448-1 1-1h.117l.25 2zm.666-4h-.666c-.241 0-.472.036-.697.09l-.173-.694c-.086-.345-.13-.7-.13-1.053 0-2.395 1.948-4.343 4.343-4.343h5.314c2.395 0 4.343 1.948 4.343 4.343 0 .354-.044.708-.129 1.053l-.174.694c-.224-.054-.456-.09-.697-.09h-.93l-2.969-.425c-1.768-.252-3.101-1.789-3.101-3.575h-2c0 .691.129 1.359.364 1.978zm1.398 1.452 2.338-1.754c.86.979 2.056 1.663 3.416 1.857l2.067.295-.55 4.397c-.124 1-.977 1.753-1.983 1.753h-2.703c-1.007 0-1.859-.753-1.984-1.752zm-5.064 18.548c0-3.105 2.371-5.666 5.397-5.969l1.523 3.047-1.64 4.922h-5.28zm-2 4h14.426c-.183.645-.313 1.313-.376 2h-14.05zm2 4h12.059c.3 2.697 1.793 5.037 3.941 6.478v9.522h-16zm28.515 24h-3.029c-4.129 0-7.486-3.357-7.486-7.485 0-1.999.778-3.879 2.192-5.293l3.222-3.222h2.586v2h-2v3c0 1.654 1.346 3 3 3 .552 0 1 .448 1 1v1h-1c-.552 0-1-.448-1-1v-1h-2v1c0 1.302.839 2.402 2 2.816v2.184h2v-2h2v-3c0-1.654-1.346-3-3-3-.552 0-1-.448-1-1v-1h1c.552 0 1 .448 1 1v1h2v-1c0-1.302-.839-2.402-2-2.816v-2.184h2c.182 0 .356-.03.532-.054l3.276 3.276c1.414 1.414 2.192 3.294 2.192 5.293 0 4.128-3.357 7.485-7.485 7.485zm25.485-8h-16v-8.586l.632.632c1.26 1.26 2.935 1.954 4.718 1.954 3.17 0 5.922-2.256 6.543-5.363l.927-4.637h3.18zm-2.78-18 .4-2h4.38v2z"/></g></svg>