<svg xmlns="http://www.w3.org/2000/svg"  viewBox="0 0 256 256" width="256px" height="256px"><g id="Layer_60"><path fill="#c7d7e5" d="M167.816,75.704l-46.138-41.261l-8.916,7.974c0.044,0.785,0.07,1.574,0.07,2.37 c0,23.317-18.97,42.287-42.287,42.287c-2.402,0-4.755-0.212-7.049-0.599l-35.561,31.802h120.088 c0.254-0.241,0.515-0.473,0.788-0.692c-0.001,0.001-0.002,0.001-0.003,0.002v-13.66 C148.808,91.216,156.696,80.263,167.816,75.704z"/><path fill="#c7d7e5" d="M127.373,231.247H23.254c-3.062,0-5.545,2.483-5.545,5.545s2.483,5.545,5.545,5.545h103.502L127.373,231.247 z"/><path fill="#c7d7e5" d="M129.227,197.961c0.284-5.093,3.846-9.41,8.792-10.655l0.218-0.055v-48.422h-33.383 c-0.227,0-0.445-0.031-0.661-0.067v71.99c0.216-0.035,0.434-0.066,0.661-0.066h23.664L129.227,197.961z"/><path fill="#c7d7e5" d="M37.39,210.686h33.383v-71.857H37.39c-0.226,0-0.444-0.032-0.661-0.067v71.99 C36.946,210.718,37.164,210.686,37.39,210.686z"/><path fill="#dae6f1" d="M126.409,248.557l0.346-6.221H14.012c-3.062,0-5.545,2.483-5.545,5.545s2.483,5.545,5.545,5.545h116.369 C128.037,253.071,126.273,251,126.409,248.557z"/><path fill="#edf4fc" d="M127.991,220.156h-27.569c-3.062,0-5.545,2.483-5.545,5.545s2.483,5.545,5.545,5.545h26.951L127.991,220.156 z"/><path fill="#edf4fc" d="M81.014,225.701c0-3.062-2.483-5.545-5.545-5.545H32.957c-3.062,0-5.545,2.483-5.545,5.545 c0,3.062,2.483,5.545,5.545,5.545h42.512C78.531,231.246,81.014,228.764,81.014,225.701z"/><path fill="#edf4fc" d="M144.171,127.215c0-3.522,1.484-6.691,3.852-8.938h-47.601c-3.062,0-5.545,2.483-5.545,5.545 c0,3.062,2.483,5.545,5.545,5.545h43.948C144.247,128.667,144.171,127.95,144.171,127.215z"/><path fill="#edf4fc" d="M81.014,123.822c0-3.062-2.483-5.545-5.545-5.545H32.957c-3.062,0-5.545,2.483-5.545,5.545 c0,3.062,2.483,5.545,5.545,5.545h42.512C78.531,129.367,81.014,126.884,81.014,123.822z"/><path fill="#dae6f1" d="M128.518,210.687h-23.664c-2.278,0-4.125,1.847-4.125,4.125v5.345h27.261L128.518,210.687z"/><path fill="#dae6f1" d="M100.73,129.367v5.337c0,2.278,1.847,4.125,4.125,4.125h33.646c2.278,0,4.125-1.847,4.125-4.125v-5.337 H100.73z"/><path fill="#dae6f1" d="M33.265,129.367v5.337c0,2.278,1.847,4.125,4.125,4.125h33.646c2.278,0,4.125-1.847,4.125-4.125v-5.337 H33.265z"/><path fill="#dae6f1" d="M75.161,220.156v-5.345c0-2.278-1.847-4.125-4.125-4.125H37.39c-2.278,0-4.125,1.847-4.125,4.125v5.345 H75.161z"/><path fill="#3a70bf" d="M100.73,134.209v-4.841h-0.308c-3.062,0-5.545-2.483-5.545-5.545c0-3.062,2.483-5.545,5.545-5.545H75.469 c3.062,0,5.545,2.483,5.545,5.545c0,3.062-2.483,5.545-5.545,5.545h-0.308v4.841H100.73z"/><path fill="#5290db" d="M75.469,231.246h24.953c-3.062,0-5.545-2.483-5.545-5.545c0-3.062,2.483-5.545,5.545-5.545h0.308v-5.345 c0-2.278,1.847-4.125,4.125-4.125c-0.226,0-0.444,0.032-0.661,0.067v-71.99c0.216,0.035,0.435,0.067,0.661,0.067 c-2.278,0-4.125-1.847-4.125-4.125v-0.496H75.161v0.496c0,2.278-1.847,4.125-4.125,4.125h-0.263v71.857h0.263 c2.278,0,4.125,1.847,4.125,4.125v5.345h0.308c3.062,0,5.545,2.483,5.545,5.545C81.014,228.764,78.531,231.246,75.469,231.246z"/><path fill="#f2ba94" d="M219.363,114.884c-0.671,0-1.329,0.056-1.971,0.159c0.045,0.66,0.075,1.323,0.075,1.993v20.357 c0,0.666-0.03,1.325-0.074,1.981c0.643,0.103,1.298,0.172,1.97,0.172c6.81,0,12.331-5.521,12.331-12.331 C231.694,120.405,226.173,114.884,219.363,114.884z"/><path fill="#f2ba94" d="M158.397,137.393v-20.357c0-0.67,0.031-1.334,0.075-1.993c-0.642-0.103-1.3-0.159-1.971-0.159 c-6.81,0-12.331,5.521-12.331,12.331c0,6.81,5.521,12.331,12.331,12.331c0.672,0,1.327-0.068,1.97-0.172 C158.427,138.719,158.397,138.06,158.397,137.393z"/><path fill="#f9d0b4" d="M192.355,101.56c-10.788,13.566-26.702,11.652-32.052,10.532c-0.972-0.203-1.905,0.529-1.906,1.523 c0,0.007,0,0.013,0,0.02v23.759c0,16.244,13.291,29.535,29.535,29.535h0c16.244,0,29.535-13.291,29.535-29.535v-26.31 c0-0.154-0.002-0.308-0.005-0.462c-0.017-0.838-0.687-1.528-1.525-1.553c-12.27-0.36-18.735-5.223-21.219-7.658 C194.041,100.746,192.947,100.817,192.355,101.56z"/><path fill="#893c1a" d="M156.502,114.884c0.645,0,1.277,0.054,1.895,0.15v-1.399c0-0.007,0-0.013,0-0.02 c0.001-0.993,0.934-1.726,1.906-1.523c5.351,1.12,21.265,3.034,32.052-10.532c0.591-0.743,1.686-0.813,2.364-0.149 c2.484,2.435,8.949,7.298,21.219,7.658c0.837,0.025,1.508,0.715,1.525,1.553c0.003,0.154,0.005,0.308,0.005,0.462v3.95 c0.618-0.096,1.25-0.15,1.895-0.15c3.324,0,6.335,1.322,8.553,3.46v-22.18c0-9.279-7.592-16.871-16.871-16.871 c-3.147,0-6.09,0.889-8.618,2.406c-2.954-4.929-8.334-8.258-14.468-8.258h-8.663c-16.768,0-30.486,13.719-30.486,30.486v13.66 C150.918,115.899,153.589,114.884,156.502,114.884z"/><path fill="#f2ba94" d="M187.932,166.929L187.932,166.929c-4.729,0-9.204-1.133-13.177-3.131v10.931l4.649,13.366 c0.272,0.781,1.008,1.304,1.834,1.304h14.247c0.827,0,1.563-0.523,1.834-1.304l4.649-13.366v-11.373 C197.788,165.633,193.004,166.929,187.932,166.929z"/><path fill="#edf4fc" d="M247.497,197.961c-0.284-5.093-3.846-9.41-8.792-10.655l-22.938-5.773l-13.798-6.803l-4.649,13.366 c-0.272,0.781-1.008,1.304-1.834,1.304h-14.247c-0.827,0-1.563-0.523-1.834-1.304l-4.649-13.366l-13.798,6.803l-22.938,5.773 c-4.946,1.245-8.509,5.562-8.792,10.655l-2.818,50.597c-0.15,2.684,1.987,4.943,4.675,4.943H245.64 c2.688,0,4.824-2.259,4.675-4.943L247.497,197.961z"/><path fill="#5290db" d="M160.957,181.533l13.798-6.803v-10.931c-9.116-4.583-15.568-13.749-16.284-24.425c0,0,0,0.001,0,0.001 c-0.643,0.104-1.298,0.172-1.97,0.172c-4.212,0-7.927-2.115-10.151-5.338h-3.725v0.496c0,2.278-1.847,4.125-4.125,4.125h-0.263 v48.422L160.957,181.533z"/><circle cx="70.545" cy="44.787" r="42.287" fill="#70d6f9"/><path fill="#edf4fc" d="M51.359,82.451L15.92,114.144c-2.283,2.042-2.478,5.547-0.437,7.83c2.042,2.284,5.548,2.478,7.83,0.437 l40.183-35.936C59.196,85.75,55.117,84.374,51.359,82.451z"/><path fill="#edf4fc" d="M125.374,22.871c-2.105-1.882-5.288-1.882-7.393,0l-7.862,7.031c1.483,3.929,2.399,8.133,2.642,12.515 l8.916-7.974c6.116,5.469,25.856,23.123,46.138,41.261c3.548-1.455,7.423-2.263,11.479-2.263h2.627 C157.845,51.909,132.235,29.006,125.374,22.871z"/><circle cx="121.822" cy="85" r="12.5" fill="#edf4fc"/><path fill="#f5c84c" d="M84.563,38.441H56.526c-2.156,0-3.921,1.764-3.921,3.921v20.552c0,2.156,1.764,3.921,3.921,3.921h28.037 c2.156,0,3.921-1.764,3.921-3.921V42.362C88.484,40.205,86.72,38.441,84.563,38.441z"/><circle cx="70.545" cy="52.138" r="5" fill="#edb311"/><path fill="#f5c84c" d="M196.351,45.874h-2.07v-2.07c0-1.549-1.256-2.805-2.805-2.805c-1.549,0-2.805,1.256-2.805,2.805v2.07h-2.069 c-1.549,0-2.805,1.256-2.805,2.805s1.256,2.805,2.805,2.805h2.069v2.07c0,1.549,1.256,2.805,2.805,2.805 c1.549,0,2.805-1.256,2.805-2.805v-2.07h2.07c1.549,0,2.805-1.256,2.805-2.805S197.9,45.874,196.351,45.874z"/><path fill="#87d147" d="M228.423,157.819c-1.854-0.335-3.355,1.052-3.355,2.749c0,1.689,1.483,3.077,3.355,2.749 c1.254-0.237,2.255-1.37,2.255-2.749C230.678,159.216,229.7,158.06,228.423,157.819z"/><path fill="#ef4460" d="M169.423,28.819c-1.854-0.335-3.355,1.052-3.355,2.749c0,1.689,1.483,3.077,3.355,2.749 c1.311-0.248,2.255-1.428,2.255-2.749C171.678,30.216,170.7,29.06,169.423,28.819z"/><path fill="#3caadc" d="M21.423,173.819c-1.854-0.335-3.355,1.052-3.355,2.749c0,1.549,1.249,2.805,2.805,2.805 c1.589,0,2.805-1.312,2.805-2.805C23.678,175.216,22.7,174.06,21.423,173.819z"/><path fill="#87d147" d="M21.987,149.89c-3.995-0.744-7.144-3.829-7.904-7.743c-0.038-0.197-0.313-0.197-0.351,0 c-0.76,3.914-3.908,6.999-7.904,7.743c-0.201,0.037-0.201,0.306,0,0.344c3.995,0.744,7.144,3.829,7.904,7.743 c0.038,0.197,0.313,0.197,0.351,0c0.76-3.914,3.908-6.999,7.904-7.743C22.187,150.196,22.187,149.928,21.987,149.89z"/><path d="M130.381,255.927H14.012c-4.436,0-8.045-3.609-8.045-8.045c0-4.437,3.609-8.046,8.045-8.046h112.743 c0.688,0,1.344,0.283,1.816,0.782c0.472,0.499,0.718,1.17,0.68,1.856l-0.346,6.222v0.001c-0.062,1.117,0.733,2.088,1.852,2.258 c1.293,0.196,2.216,1.356,2.117,2.66S131.688,255.927,130.381,255.927z M14.012,244.836c-1.679,0-3.045,1.366-3.045,3.046 c0,1.679,1.366,3.045,3.045,3.045h110.202c-0.241-0.79-0.35-1.636-0.301-2.509l0.199-3.582H14.012z M126.409,248.558h0.01 H126.409z"/><path d="M126.755,244.836H23.254c-4.437,0-8.046-3.609-8.046-8.045s3.609-8.045,8.046-8.045h104.119 c0.688,0,1.344,0.283,1.816,0.782c0.472,0.499,0.718,1.171,0.68,1.856l-0.618,11.09 C129.177,243.8,128.081,244.836,126.755,244.836z M23.254,233.746c-1.68,0-3.046,1.366-3.046,3.045s1.366,3.045,3.046,3.045 h101.137l0.339-6.09H23.254z"/><path d="M127.373,233.746h-26.951c-4.436,0-8.045-3.609-8.045-8.045s3.609-8.045,8.045-8.045h27.568 c0.688,0,1.344,0.283,1.816,0.782c0.472,0.499,0.718,1.171,0.68,1.856l-0.617,11.09 C129.796,232.71,128.7,233.746,127.373,233.746z M100.422,222.656c-1.679,0-3.045,1.366-3.045,3.045s1.366,3.045,3.045,3.045 h24.587l0.339-6.09H100.422z"/><path d="M75.469,233.746H32.957c-4.436,0-8.045-3.609-8.045-8.045s3.609-8.045,8.045-8.045h42.512 c4.437,0,8.046,3.609,8.046,8.045S79.905,233.746,75.469,233.746z M32.957,222.656c-1.679,0-3.045,1.366-3.045,3.045 s1.366,3.045,3.045,3.045h42.512c1.68,0,3.046-1.366,3.046-3.045s-1.366-3.045-3.046-3.045H32.957z"/><path d="M144.37,131.867h-43.948c-4.436,0-8.045-3.609-8.045-8.045s3.609-8.045,8.045-8.045h47.601 c1.023,0,1.943,0.623,2.322,1.573c0.379,0.951,0.141,2.036-0.602,2.74c-1.981,1.88-3.072,4.41-3.072,7.124 c0,0.539,0.053,1.102,0.161,1.72c0.128,0.728-0.072,1.475-0.547,2.04C145.81,131.54,145.108,131.867,144.37,131.867z M100.422,120.777c-1.679,0-3.045,1.366-3.045,3.045s1.366,3.045,3.045,3.045h41.253c0.049-2.147,0.551-4.212,1.46-6.09H100.422z"/><path d="M75.469,131.867H32.957c-4.436,0-8.045-3.609-8.045-8.045s3.609-8.045,8.045-8.045h42.512 c4.437,0,8.046,3.609,8.046,8.045S79.905,131.867,75.469,131.867z M32.957,120.777c-1.679,0-3.045,1.366-3.045,3.045 s1.366,3.045,3.045,3.045h42.512c1.68,0,3.046-1.366,3.046-3.045s-1.366-3.045-3.046-3.045H32.957z"/><path d="M127.99,222.656h-27.261c-1.381,0-2.5-1.119-2.5-2.5v-5.345c0-3.653,2.972-6.625,6.625-6.625h23.664 c0.688,0,1.344,0.283,1.816,0.782c0.472,0.499,0.718,1.171,0.68,1.857l-0.528,9.47 C130.412,221.62,129.316,222.656,127.99,222.656z M103.229,217.656h22.396l0.249-4.47h-21.021c-0.896,0-1.625,0.729-1.625,1.625 V217.656z"/><path d="M138.501,141.329h-33.646c-3.653,0-6.625-2.972-6.625-6.624v-5.338c0-1.381,1.119-2.5,2.5-2.5h41.896 c1.381,0,2.5,1.119,2.5,2.5v5.338C145.126,138.357,142.154,141.329,138.501,141.329z M103.229,131.867v2.838 c0,0.896,0.729,1.624,1.625,1.624h33.646c0.896,0,1.625-0.729,1.625-1.624v-2.838H103.229z"/><path d="M71.036,141.329H37.391c-3.653,0-6.625-2.972-6.625-6.624v-5.338c0-1.381,1.119-2.5,2.5-2.5h41.896 c1.381,0,2.5,1.119,2.5,2.5v5.338C77.661,138.357,74.689,141.329,71.036,141.329z M35.766,131.867v2.838 c0,0.896,0.729,1.624,1.625,1.624h33.646c0.896,0,1.625-0.729,1.625-1.624v-2.838H35.766z"/><path d="M75.161,222.656H33.266c-1.381,0-2.5-1.119-2.5-2.5v-5.345c0-3.653,2.972-6.625,6.625-6.625h33.646 c3.653,0,6.625,2.972,6.625,6.625v5.345C77.661,221.537,76.542,222.656,75.161,222.656z M35.766,217.656h36.896v-2.845 c0-0.896-0.729-1.625-1.625-1.625H37.391c-0.896,0-1.625,0.729-1.625,1.625V217.656z"/><path d="M126.414,187.75c-1.381,0-2.5-1.119-2.5-2.5v-33.021c0-1.381,1.119-2.5,2.5-2.5s2.5,1.119,2.5,2.5v33.021 C128.914,186.631,127.795,187.75,126.414,187.75z"/><path d="M116.018,201.555c-1.381,0-2.5-1.119-2.5-2.5v-46.825c0-1.381,1.119-2.5,2.5-2.5s2.5,1.119,2.5,2.5v46.825 C118.518,200.436,117.398,201.555,116.018,201.555z"/><path d="M58.949,201.555c-1.381,0-2.5-1.119-2.5-2.5v-46.825c0-1.381,1.119-2.5,2.5-2.5s2.5,1.119,2.5,2.5v46.825 C61.449,200.436,60.33,201.555,58.949,201.555z"/><path d="M48.553,201.555c-1.381,0-2.5-1.119-2.5-2.5v-46.825c0-1.381,1.119-2.5,2.5-2.5s2.5,1.119,2.5,2.5v46.825 C51.053,200.436,49.934,201.555,48.553,201.555z"/><path d="M104.193,213.253c-0.59,0-1.165-0.209-1.62-0.596c-0.559-0.476-0.88-1.171-0.88-1.904v-71.99 c0-0.733,0.321-1.429,0.88-1.904c0.558-0.475,1.292-0.683,2.021-0.563c0.086,0.014,0.171,0.033,0.261,0.034h33.383 c1.381,0,2.5,1.119,2.5,2.5v48.423c0,1.146-0.779,2.146-1.891,2.425l-0.218,0.055c-3.906,0.982-6.682,4.346-6.906,8.368 l-0.708,12.726c-0.073,1.325-1.169,2.361-2.496,2.361h-23.664c-0.09,0.001-0.175,0.021-0.261,0.034 C104.46,213.242,104.326,213.253,104.193,213.253z M106.693,208.187h19.46l0.577-10.364c0,0,0,0,0-0.001 c0.314-5.629,3.859-10.423,9.007-12.409v-44.083h-29.044V208.187z"/><path d="M36.729,213.253c-0.589,0-1.164-0.208-1.619-0.596c-0.559-0.475-0.881-1.171-0.881-1.904v-71.99 c0-0.733,0.322-1.43,0.881-1.904c0.559-0.476,1.293-0.68,2.021-0.563c0.085,0.014,0.17,0.033,0.259,0.034h33.383 c1.381,0,2.5,1.119,2.5,2.5v71.857c0,1.381-1.119,2.5-2.5,2.5H37.391c-0.089,0.001-0.174,0.021-0.259,0.034 C36.998,213.242,36.863,213.253,36.729,213.253z M39.229,208.187h29.044v-66.857H39.229V208.187z"/><path d="M100.729,136.709H75.161c-1.381,0-2.5-1.119-2.5-2.5v-4.842c0-1.381,1.119-2.5,2.5-2.5h0.308 c1.68,0,3.046-1.366,3.046-3.045s-1.366-3.045-3.046-3.045c-1.381,0-2.5-1.119-2.5-2.5s1.119-2.5,2.5-2.5h24.953 c1.381,0,2.5,1.119,2.5,2.5s-1.119,2.5-2.5,2.5c-1.679,0-3.045,1.366-3.045,3.045s1.366,3.045,3.045,3.045h0.308 c1.381,0,2.5,1.119,2.5,2.5v4.842C103.229,135.59,102.11,136.709,100.729,136.709z M77.661,131.709h20.568v-0.146 c-3.374-0.957-5.853-4.065-5.853-7.741c0-1.077,0.213-2.105,0.599-3.045h-10.06c0.386,0.939,0.599,1.968,0.599,3.045 c0,3.676-2.479,6.784-5.854,7.741V131.709z"/><path d="M100.422,233.746H75.469c-1.381,0-2.5-1.119-2.5-2.5s1.119-2.5,2.5-2.5c1.68,0,3.046-1.366,3.046-3.045 s-1.366-3.045-3.046-3.045h-0.308c-1.381,0-2.5-1.119-2.5-2.5v-5.345c0-0.896-0.729-1.625-1.625-1.625h-0.263 c-1.381,0-2.5-1.119-2.5-2.5v-71.857c0-1.381,1.119-2.5,2.5-2.5h0.263c0.896,0,1.625-0.729,1.625-1.624v-0.496 c0-1.381,1.119-2.5,2.5-2.5h25.568c1.381,0,2.5,1.119,2.5,2.5v0.496c0,0.751,0.513,1.385,1.206,1.569 c0.053,0.005,0.105,0.012,0.158,0.021c0.086,0.014,0.171,0.033,0.261,0.034c1.381,0,2.5,1.119,2.5,2.5 c0,0.653-0.251,1.248-0.661,1.693v68.471c0.41,0.445,0.661,1.04,0.661,1.693c0,1.381-1.119,2.5-2.5,2.5 c-0.09,0.001-0.175,0.021-0.261,0.034c-0.053,0.009-0.105,0.016-0.157,0.021c-0.694,0.185-1.207,0.819-1.207,1.57v5.345 c0,1.381-1.119,2.5-2.5,2.5h-0.308c-1.679,0-3.045,1.366-3.045,3.045s1.366,3.045,3.045,3.045c1.381,0,2.5,1.119,2.5,2.5 S101.803,233.746,100.422,233.746z M82.916,228.746h10.06c-0.386-0.939-0.599-1.968-0.599-3.045c0-3.676,2.479-6.784,5.853-7.741 v-3.148c0-2.509,1.402-4.697,3.464-5.821v-68.465c-1.488-0.812-2.633-2.177-3.154-3.816H77.352 c-0.625,1.965-2.145,3.536-4.078,4.231v67.635c2.556,0.92,4.388,3.368,4.388,6.236v3.148c3.374,0.957,5.854,4.065,5.854,7.741 C83.515,226.778,83.302,227.807,82.916,228.746z"/><path d="M87.021,201.4c-1.381,0-2.5-1.119-2.5-2.5v-47.133c0-1.381,1.119-2.5,2.5-2.5s2.5,1.119,2.5,2.5V198.9 C89.521,200.281,88.402,201.4,87.021,201.4z"/><path d="M219.363,142.046c-0.742,0-1.517-0.066-2.367-0.204c-1.274-0.205-2.184-1.347-2.097-2.635 c0.04-0.601,0.068-1.204,0.068-1.813v-20.357c0-0.614-0.029-1.222-0.069-1.827c-0.086-1.287,0.822-2.429,2.096-2.634 c0.786-0.127,1.583-0.191,2.369-0.191c8.178,0,14.831,6.653,14.831,14.831S227.541,142.046,219.363,142.046z M219.968,117.402 v19.625c5.141-0.312,9.227-4.595,9.227-9.812S225.108,117.715,219.968,117.402z"/><path d="M156.502,142.046c-8.178,0-14.831-6.653-14.831-14.831s6.653-14.831,14.831-14.831c0.786,0,1.583,0.064,2.369,0.191 c1.275,0.205,2.184,1.349,2.096,2.638c-0.047,0.696-0.069,1.275-0.069,1.823v20.357c0,0.609,0.028,1.213,0.068,1.813 c0.087,1.288-0.822,2.431-2.097,2.636C158.017,141.979,157.243,142.046,156.502,142.046z M155.897,117.402 c-5.141,0.312-9.227,4.595-9.227,9.812s4.086,9.5,9.227,9.812V117.402z"/><path d="M187.933,169.429c-17.664,0-32.035-14.371-32.035-32.035v-23.759c0.001-1.244,0.548-2.388,1.5-3.161 c0.961-0.778,2.207-1.081,3.417-0.829c5.65,1.183,19.842,2.609,29.584-9.641c0.723-0.908,1.799-1.471,2.953-1.542 c1.152-0.062,2.29,0.353,3.118,1.163c2.014,1.976,7.948,6.604,19.542,6.945c2.172,0.063,3.907,1.821,3.951,4.001l0.005,0.512 v26.311C219.968,155.058,205.597,169.429,187.933,169.429z M160.897,114.751v22.643c0,14.907,12.128,27.035,27.035,27.035 s27.035-12.128,27.035-27.035v-25.859c-11.391-0.536-18.012-4.743-21.275-7.661C182.662,116.974,166.981,115.814,160.897,114.751 z M194.312,103.115L194.312,103.115c-0.001,0.001-0.003,0.003-0.003,0.004C194.311,103.118,194.312,103.116,194.312,103.115z M192.355,101.56h0.01H192.355z"/><path d="M227.917,120.844c-0.636,0-1.261-0.242-1.736-0.7c-1.846-1.779-4.267-2.76-6.817-2.76c-0.485,0-0.994,0.041-1.513,0.121 c-0.726,0.112-1.456-0.098-2.01-0.572c-0.554-0.476-0.873-1.169-0.873-1.898v-3.5c-11.391-0.536-18.012-4.743-21.275-7.661 c-11.033,13.103-26.714,11.941-32.795,10.878v0.283c0,0.729-0.319,1.423-0.873,1.898c-0.554,0.475-1.286,0.684-2.01,0.572 c-0.519-0.08-1.027-0.121-1.513-0.121c-2.249,0-4.369,0.745-6.133,2.156c-0.75,0.601-1.778,0.718-2.645,0.301 c-0.866-0.416-1.417-1.292-1.417-2.253v-13.66c0-18.189,14.798-32.987,32.987-32.987h8.663c5.961,0,11.624,2.833,15.276,7.523 c2.464-1.098,5.124-1.671,7.811-1.671c10.682,0,19.371,8.689,19.371,19.371v22.18c0,1.003-0.6,1.909-1.522,2.301 C228.578,120.778,228.246,120.844,227.917,120.844z M219.968,112.396c1.901,0.077,3.744,0.515,5.448,1.278v-17.51 c0-7.924-6.447-14.371-14.371-14.371c-2.562,0-5.098,0.709-7.334,2.05c-0.569,0.34-1.251,0.442-1.893,0.28 c-0.644-0.161-1.196-0.571-1.537-1.14c-2.603-4.345-7.324-7.043-12.323-7.043h-8.663c-15.433,0-27.987,12.555-27.987,27.987 v9.402c1.525-0.572,3.144-0.894,4.781-0.94c0.237-0.746,0.686-1.41,1.309-1.915c0.96-0.78,2.203-1.084,3.417-0.83 c5.65,1.184,19.842,2.612,29.584-9.641c0.722-0.908,1.799-1.471,2.953-1.542c1.152-0.062,2.29,0.353,3.118,1.163 c2.014,1.976,7.948,6.604,19.542,6.945c2.172,0.063,3.907,1.821,3.95,4.001L219.968,112.396z"/><path d="M188.359,208.13c-0.659,0-1.3-0.271-1.76-0.73c-0.12-0.119-0.229-0.25-0.319-0.38c-0.091-0.14-0.16-0.279-0.23-0.439 c-0.06-0.15-0.11-0.3-0.14-0.46c-0.03-0.16-0.051-0.33-0.051-0.49s0.021-0.33,0.051-0.49c0.029-0.16,0.08-0.32,0.14-0.47 c0.07-0.15,0.14-0.3,0.23-0.43c0.09-0.141,0.199-0.261,0.31-0.381c0.12-0.109,0.25-0.22,0.38-0.31c0.14-0.09,0.28-0.17,0.43-0.23 c0.16-0.06,0.311-0.109,0.471-0.14c0.33-0.07,0.66-0.07,0.979,0c0.16,0.03,0.32,0.08,0.47,0.14c0.15,0.061,0.29,0.141,0.431,0.23 c0.14,0.09,0.27,0.2,0.38,0.31c0.12,0.12,0.22,0.24,0.31,0.381c0.091,0.13,0.17,0.279,0.23,0.43c0.06,0.149,0.11,0.31,0.14,0.47 c0.04,0.16,0.05,0.32,0.05,0.49c0,0.16-0.01,0.33-0.05,0.49c-0.029,0.16-0.08,0.31-0.14,0.46c-0.061,0.16-0.14,0.3-0.23,0.439 c-0.09,0.13-0.189,0.261-0.31,0.38C189.66,207.859,189.02,208.13,188.359,208.13z"/><path d="M188.359,223.91c-0.659,0-1.3-0.271-1.76-0.73c-0.12-0.12-0.229-0.25-0.319-0.38c-0.091-0.14-0.16-0.28-0.23-0.44 c-0.06-0.149-0.11-0.3-0.14-0.46c-0.03-0.17-0.051-0.33-0.051-0.489c0-0.66,0.271-1.301,0.73-1.771 c0.12-0.12,0.25-0.22,0.38-0.31c0.14-0.09,0.28-0.17,0.43-0.23c0.16-0.06,0.311-0.109,0.471-0.14c0.33-0.07,0.66-0.07,0.979,0 c0.16,0.03,0.32,0.08,0.47,0.14c0.15,0.061,0.29,0.141,0.431,0.23c0.14,0.09,0.27,0.189,0.38,0.31 c0.47,0.47,0.729,1.11,0.729,1.771c0,0.159-0.01,0.319-0.05,0.489c-0.029,0.16-0.08,0.311-0.14,0.46 c-0.061,0.16-0.14,0.301-0.23,0.44c-0.09,0.13-0.189,0.26-0.31,0.38C189.66,223.64,189.02,223.91,188.359,223.91z"/><path d="M188.359,239.689c-0.659,0-1.3-0.27-1.76-0.729c-0.12-0.12-0.229-0.25-0.319-0.38c-0.091-0.141-0.16-0.28-0.23-0.44 c-0.06-0.149-0.11-0.3-0.14-0.46c-0.03-0.16-0.051-0.33-0.051-0.49c0-0.659,0.271-1.3,0.73-1.77c0.12-0.11,0.25-0.22,0.38-0.311 c0.14-0.09,0.28-0.17,0.43-0.229c0.16-0.061,0.311-0.11,0.471-0.14c0.33-0.07,0.66-0.07,0.979,0c0.16,0.029,0.32,0.079,0.47,0.14 c0.15,0.06,0.29,0.14,0.431,0.229c0.14,0.091,0.27,0.2,0.38,0.311c0.12,0.12,0.22,0.24,0.31,0.38c0.091,0.14,0.17,0.28,0.23,0.43 c0.06,0.15,0.11,0.311,0.14,0.471c0.04,0.159,0.05,0.33,0.05,0.489c0,0.16-0.01,0.33-0.05,0.49c-0.029,0.16-0.08,0.311-0.14,0.46 c-0.061,0.16-0.14,0.3-0.23,0.44c-0.09,0.13-0.189,0.26-0.31,0.38C189.66,239.42,189.02,239.689,188.359,239.689z"/><path d="M222.9,253.929c-1.381,0-2.5-1.119-2.5-2.5V219.96c0-1.381,1.119-2.5,2.5-2.5s2.5,1.119,2.5,2.5v31.469 C225.4,252.81,224.281,253.929,222.9,253.929z"/><path d="M152.964,253.929c-1.381,0-2.5-1.119-2.5-2.5V219.96c0-1.381,1.119-2.5,2.5-2.5s2.5,1.119,2.5,2.5v31.469 C155.464,252.81,154.345,253.929,152.964,253.929z"/><path d="M195.485,191.899h-14.247c-1.889,0-3.574-1.198-4.195-2.982l-4.649-13.366c-0.092-0.264-0.139-0.542-0.139-0.821v-10.932 c0-0.867,0.449-1.673,1.188-2.128c0.738-0.454,1.66-0.496,2.435-0.105c3.78,1.9,7.836,2.864,12.055,2.864 c4.474,0,8.913-1.13,12.841-3.268c0.774-0.422,1.714-0.404,2.473,0.046c0.758,0.451,1.223,1.268,1.223,2.149v11.373 c0,0.279-0.047,0.558-0.139,0.821l-4.649,13.366C199.06,190.701,197.374,191.899,195.485,191.899z M181.635,186.899h13.454 l4.38-12.593v-7.041c-3.668,1.422-7.591,2.163-11.536,2.163c-3.683,0-7.26-0.618-10.678-1.843v6.721L181.635,186.899z"/><path d="M245.64,256H131.084c-1.966,0-3.867-0.819-5.218-2.247s-2.062-3.372-1.953-5.334l2.817-50.597 c0.347-6.22,4.639-11.42,10.679-12.94l22.681-5.708l13.56-6.687c0.643-0.317,1.39-0.341,2.054-0.071 c0.663,0.272,1.178,0.815,1.413,1.492l4.519,12.991h13.454l4.519-12.991c0.235-0.677,0.75-1.22,1.413-1.492 c0.664-0.27,1.411-0.246,2.054,0.071l13.56,6.687l22.681,5.708c6.04,1.521,10.332,6.721,10.679,12.939v0.001l2.817,50.597 c0.11,1.961-0.602,3.905-1.952,5.333C249.508,255.181,247.605,256,245.64,256z M173.323,178.223l-11.261,5.553 c-0.158,0.078-0.324,0.139-0.495,0.183l-22.938,5.773c-3.907,0.983-6.683,4.347-6.907,8.369l-2.817,50.596 c-0.033,0.605,0.177,1.181,0.594,1.621c0.416,0.44,0.979,0.683,1.585,0.683H245.64c0.606,0,1.17-0.242,1.586-0.683 s0.627-1.016,0.593-1.62l-2.817-50.598c-0.225-4.021-3-7.385-6.907-8.368l-22.938-5.773c-0.171-0.044-0.337-0.104-0.495-0.183 l-11.261-5.553l-3.719,10.693c-0.623,1.785-2.309,2.983-4.196,2.983h-14.247c-1.889,0-3.574-1.198-4.195-2.982L173.323,178.223z"/><path d="M148.022,120.777H27.935c-1.036,0-1.966-0.64-2.336-1.608c-0.369-0.968-0.104-2.064,0.669-2.755l35.562-31.803 c0.567-0.507,1.335-0.729,2.083-0.602c2.223,0.374,4.454,0.564,6.633,0.564c21.938,0,39.786-17.849,39.786-39.787 c0-0.75-0.025-1.493-0.065-2.233c-0.042-0.758,0.264-1.494,0.829-2l8.916-7.974c0.949-0.85,2.385-0.85,3.334,0l46.138,41.261 c0.642,0.574,0.942,1.438,0.797,2.287c-0.146,0.849-0.719,1.562-1.516,1.89c-10.604,4.347-17.456,14.518-17.456,25.91v13.535 c0.033,0.682-0.212,1.372-0.729,1.89c-0.069,0.069-0.143,0.135-0.218,0.194c-0.214,0.172-0.417,0.354-0.616,0.543 C149.279,120.531,148.663,120.777,148.022,120.777z M34.48,115.777h111.827v-11.85c0-12.126,6.579-23.075,17.05-28.856 l-41.68-37.274l-6.367,5.694c0.014,0.446,0.021,0.875,0.021,1.296c0,24.695-20.091,44.787-44.786,44.787 c-2.062,0-4.164-0.15-6.264-0.448L34.48,115.777z"/><path d="M138.237,189.752c-0.551,0-1.093-0.183-1.537-0.528c-0.607-0.474-0.963-1.201-0.963-1.972v-48.423 c0-1.381,1.119-2.5,2.5-2.5h0.264c0.896,0,1.625-0.729,1.625-1.624v-0.496c0-1.381,1.119-2.5,2.5-2.5h3.725 c0.821,0,1.591,0.403,2.058,1.08c1.84,2.665,4.865,4.257,8.094,4.257c0.472,0,0.986-0.046,1.572-0.141 c0.698-0.108,1.404,0.075,1.954,0.513c0.551,0.438,0.891,1.087,0.938,1.789c0.637,9.486,6.351,18.053,14.912,22.357 c0.844,0.424,1.377,1.288,1.377,2.233v10.932c0,0.952-0.541,1.821-1.395,2.242l-13.798,6.804 c-0.158,0.078-0.324,0.139-0.495,0.183l-22.72,5.719C138.646,189.728,138.441,189.752,138.237,189.752z M140.737,140.94v43.104 l19.353-4.871l12.165-5.999v-7.878c-8.633-4.882-14.568-13.531-16.009-23.253c-4.322-0.075-8.381-2.036-11.133-5.335h-0.297 C144.19,138.675,142.671,140.245,140.737,140.94z M160.957,181.533h0.01H160.957z"/><path d="M155.41,185.429c-1.381,0-2.5-1.119-2.5-2.5v-31.161c0-1.381,1.119-2.5,2.5-2.5s2.5,1.119,2.5,2.5v31.161 C157.91,184.31,156.791,185.429,155.41,185.429z"/><path d="M196.784,152.019c-0.802,0-1.59-0.385-2.073-1.101c-1.475-2.182-3.924-3.484-6.552-3.484s-5.078,1.303-6.553,3.484 c-0.773,1.146-2.329,1.445-3.471,0.672c-1.145-0.773-1.445-2.327-0.672-3.471c2.406-3.561,6.404-5.686,10.695-5.686 s8.288,2.125,10.694,5.686c0.773,1.144,0.473,2.697-0.672,3.471C197.753,151.88,197.266,152.019,196.784,152.019z"/><path d="M70.545,89.573c-24.695,0-44.787-20.091-44.787-44.786S45.85,0,70.545,0s44.787,20.092,44.787,44.787 S95.24,89.573,70.545,89.573z M70.545,5C48.606,5,30.758,22.849,30.758,44.787s17.849,39.786,39.787,39.786 s39.787-17.848,39.787-39.786S92.483,5,70.545,5z"/><path d="M19.62,126.318c-2.212,0-4.414-0.903-6.001-2.678c-2.957-3.307-2.673-8.403,0.634-11.36l35.438-31.692 c0.77-0.688,1.884-0.834,2.806-0.362c3.6,1.841,7.44,3.114,11.414,3.784c0.947,0.159,1.72,0.848,1.986,1.771 c0.268,0.923-0.019,1.917-0.734,2.558l-40.184,35.936C23.447,125.644,21.529,126.318,19.62,126.318z M51.773,85.434 l-34.187,30.573c-1.252,1.12-1.36,3.049-0.241,4.3c1.121,1.253,3.049,1.359,4.3,0.24l36.576-32.709 C56.017,87.205,53.862,86.402,51.773,85.434z"/><path d="M167.815,78.204c-0.604,0-1.199-0.219-1.666-0.637l-44.472-39.771l-7.249,6.483c-0.718,0.643-1.736,0.812-2.624,0.446 c-0.888-0.367-1.485-1.211-1.539-2.171c-0.225-4.035-1.062-7.996-2.485-11.771c-0.365-0.967-0.098-2.058,0.672-2.746l7.862-7.031 c3.059-2.734,7.669-2.734,10.726,0l0,0l56.548,50.57c0.772,0.69,1.038,1.787,0.668,2.755c-0.369,0.969-1.299,1.608-2.335,1.608 h-2.627c-3.626,0-7.169,0.698-10.53,2.076C168.457,78.143,168.135,78.204,167.815,78.204z M121.678,31.943 c0.596,0,1.191,0.212,1.666,0.637l45.003,40.245c2.358-0.838,4.786-1.398,7.26-1.678l-51.898-46.413 c-1.158-1.033-2.902-1.033-4.061,0l-6.611,5.913c0.729,2.182,1.285,4.413,1.668,6.679l5.307-4.746 C120.485,32.155,121.082,31.943,121.678,31.943z"/><path d="M58.045,40.94c-1.381,0-2.5-1.119-2.5-2.5v-9.803c0-8.271,6.729-15,15-15s15,6.729,15,15c0,1.381-1.119,2.5-2.5,2.5 s-2.5-1.119-2.5-2.5c0-5.514-4.486-10-10-10s-10,4.486-10,10v9.803C60.545,39.821,59.426,40.94,58.045,40.94z"/><path d="M198.239,131.422c-0.481,0-0.969-0.139-1.397-0.429c-1.145-0.772-1.445-2.326-0.672-3.471 c1.322-1.957,3.52-3.126,5.88-3.126c2.359,0,4.558,1.168,5.881,3.125c0.773,1.144,0.473,2.698-0.671,3.472 c-1.142,0.771-2.697,0.474-3.472-0.671c-0.392-0.58-1.042-0.926-1.738-0.926s-1.346,0.346-1.737,0.925 C199.83,131.036,199.041,131.422,198.239,131.422z"/><path d="M179.078,131.422c-0.803,0-1.591-0.386-2.073-1.101c-0.392-0.579-1.041-0.925-1.737-0.925s-1.347,0.346-1.738,0.926 c-0.773,1.146-2.33,1.443-3.472,0.671c-1.144-0.773-1.444-2.328-0.671-3.472c1.323-1.957,3.521-3.125,5.881-3.125 c2.36,0,4.558,1.169,5.88,3.126c0.773,1.145,0.473,2.698-0.672,3.471C180.047,131.283,179.56,131.422,179.078,131.422z"/><path d="M121.822,100c-8.271,0-15-6.729-15-15s6.729-15,15-15s15,6.729,15,15S130.094,100,121.822,100z M121.822,75 c-5.514,0-10,4.486-10,10s4.486,10,10,10s10-4.486,10-10S127.336,75,121.822,75z"/><path d="M84.563,69.335H56.526c-3.54,0-6.421-2.881-6.421-6.421V42.362c0-3.54,2.881-6.421,6.421-6.421h28.037 c3.54,0,6.421,2.881,6.421,6.421v20.552C90.984,66.454,88.104,69.335,84.563,69.335z M56.526,40.941 c-0.771,0-1.421,0.65-1.421,1.421v20.552c0,0.771,0.65,1.421,1.421,1.421h28.037c0.771,0,1.421-0.65,1.421-1.421V42.362 c0-0.771-0.65-1.421-1.421-1.421H56.526z"/><path d="M70.545,59.638c-4.136,0-7.5-3.364-7.5-7.5s3.364-7.5,7.5-7.5s7.5,3.364,7.5,7.5S74.681,59.638,70.545,59.638z M70.545,49.638c-1.379,0-2.5,1.121-2.5,2.5s1.121,2.5,2.5,2.5s2.5-1.121,2.5-2.5S71.924,49.638,70.545,49.638z"/></g></svg>