<svg xmlns="http://www.w3.org/2000/svg"  viewBox="0 0 256 256" width="256px" height="256px"><circle cx="131.032" cy="124.488" r="55" fill="#ffea92"/><path fill="#f9a7a7" d="M142.845,244.588l27.743-17.589c1.624-1.029,2.105-3.18,1.076-4.804l-0.343-0.54 c-1.029-1.624-3.18-2.105-4.804-1.076l-31.628,20.052l1.608,2.536C137.859,245.312,140.7,245.948,142.845,244.588z"/><path fill="#f9cfcf" d="M72.013,57.095c11.152,0,20.193,9.041,20.193,20.193V89.14h0.982c1.732,0,3.136,1.404,3.136,3.136l0,0 c0,1.732-1.404,3.136-3.136,3.136h-1.533c-1.737,7.475-7.603,13.363-15.082,15.091v2.776c-1.687-0.57-3.489-0.893-5.368-0.893 H61.026c-0.727,0-1.435,0.074-2.131,0.184v-6.392c-4.328-3.704-7.074-9.201-7.074-15.344V77.287 C51.82,66.135,60.861,57.095,72.013,57.095z"/><path fill="#f9a7a7" d="M20.049,114.143h22.737c2.598,0,4.704,2.106,4.704,4.704v3.393l0,0v33.139 c-2.994,2.307-5.714,4.951-8.097,7.882v-41.02H20.049c-2.236,0-4.049-1.813-4.049-4.049 C16,115.956,17.812,114.143,20.049,114.143z"/><path fill="#3762cc" d="M39.393,165.261c-0.225,0-0.45-0.038-0.669-0.115c-0.798-0.283-1.331-1.038-1.331-1.885V124.24H20.049 c-3.335,0-6.049-2.713-6.049-6.048c0-3.335,2.714-6.049,6.049-6.049h22.737c3.696,0,6.704,3.007,6.704,6.704v36.532 c0,0.621-0.288,1.206-0.779,1.584c-2.878,2.217-5.491,4.76-7.767,7.559C40.558,164.999,39.982,165.261,39.393,165.261z M20.049,116.143c-1.13,0-2.049,0.919-2.049,2.049c0,1.129,0.919,2.048,2.049,2.048h19.344c1.104,0,2,0.896,2,2v35.831 c1.297-1.292,2.665-2.516,4.098-3.664v-35.561c0-1.491-1.213-2.704-2.704-2.704H20.049z M47.49,155.379h0.01H47.49z"/><path fill="#3762cc" d="M84.823,89.304L84.823,89.304c1.029,0,1.862-0.834,1.862-1.862v-3.104c0-1.029-0.834-1.862-1.862-1.862h0 c-1.029,0-1.862,0.834-1.862,1.862v3.104C82.96,88.47,83.794,89.304,84.823,89.304z"/><path fill="#a4c9ff" d="M148.194,214.577l12.845-2.188c1.138-0.194,2.292,0.233,3.062,1.133l2.22,2.594 c0.558,0.652,0.867,1.497,0.867,2.374l0,0c0,1.25-0.626,2.408-1.649,3.05l-19.98,12.528c-1.128,0.708-2.466,0.955-3.757,0.694 l0,0c-1.562-0.315-2.91-1.343-3.677-2.804l-2.252-4.287c-0.678-1.29-0.355-2.906,0.76-3.802L148.194,214.577z"/><path fill="#3762cc" d="M142.815,236.863c-0.47,0-0.941-0.046-1.41-0.141c-2.16-0.437-4.001-1.834-5.052-3.835l-2.252-4.286 c-1.127-2.146-0.589-4.792,1.279-6.292l11.561-9.29c0.266-0.213,0.581-0.355,0.917-0.413l12.845-2.188 c1.843-0.314,3.682,0.36,4.918,1.805l2.22,2.593c0.868,1.016,1.347,2.32,1.347,3.674c0,1.926-0.991,3.744-2.588,4.744 l-19.979,12.527C145.463,236.487,144.148,236.863,142.815,236.863z M149.042,216.461l-11.156,8.965 c-0.368,0.295-0.475,0.872-0.243,1.313l2.252,4.286c0.489,0.931,1.328,1.578,2.303,1.774c0.787,0.159,1.604,0.007,2.298-0.428 l19.98-12.528c0.439-0.275,0.712-0.794,0.712-1.355c0-0.401-0.137-0.782-0.386-1.073l-2.221-2.593 c-0.312-0.365-0.764-0.539-1.206-0.462L149.042,216.461z"/><path fill="#4671c6" d="M110.411,164.306c4.1,0,8.121,1.231,11.629,3.558c3.246,2.154,5.942,5.174,7.838,8.778l0,0.001 l20.516,35.982c0.41,0.718,0.255,1.661-0.357,2.177L137.02,225.78c-0.685,0.578-1.673,0.401-2.156-0.385l-17.181-27.993l0,0 l-1.858-2.822c-0.845-1.284-2.201-2.044-3.644-2.044H60.389c-7.124,0-12.899-6.339-12.899-14.158v-14.072H110.411z"/><path fill="#3762cc" d="M136.105,228.12c-0.178,0-0.357-0.014-0.535-0.043c-0.993-0.16-1.871-0.757-2.411-1.638l-17.18-27.991 l-1.824-2.769c-0.472-0.716-1.209-1.144-1.974-1.144H60.39c-8.216,0-14.899-7.249-14.899-16.159v-14.071c0-1.104,0.896-2,2-2 h62.921c4.494,0,8.897,1.346,12.735,3.892c3.516,2.333,6.456,5.623,8.502,9.514l20.483,35.924 c0.883,1.546,0.536,3.565-0.806,4.697l-13.017,10.977C137.684,227.836,136.902,228.12,136.105,228.12z M49.49,166.306v12.071 c0,6.704,4.89,12.159,10.899,12.159h51.792c2.113,0,4.101,1.101,5.314,2.944l1.858,2.822l16.89,27.517l12.311-10.382 l-20.412-35.803c-1.769-3.359-4.25-6.14-7.208-8.103c-3.18-2.109-6.818-3.225-10.523-3.225H49.49z M148.658,213.617h0.01H148.658 z"/><path fill="#6bdddd" d="M60.245,192.536h27.732v-63.85c0-9.003-7.298-16.301-16.301-16.301H60.645 c-7.265,0-13.155,5.89-13.155,13.155v54.241C47.49,186.825,53.201,192.536,60.245,192.536z"/><path fill="#3762cc" d="M87.978,194.536H60.245c-8.136,0-14.755-6.619-14.755-14.755V125.54c0-8.356,6.798-15.155,15.154-15.155 h11.031c10.092,0,18.302,8.21,18.302,18.301v63.85C89.978,193.64,89.082,194.536,87.978,194.536z M60.645,114.385 c-6.15,0-11.154,5.004-11.154,11.155v54.241c0,5.93,4.824,10.755,10.755,10.755h25.732v-61.85 c0-7.886-6.416-14.301-14.302-14.301H60.645z"/><circle cx="73.921" cy="197.1" r="48.608" fill="#ffea92"/><path fill="#3762cc" d="M73.921,247.708c-27.905,0-50.608-22.703-50.608-50.608c0-27.905,22.703-50.608,50.608-50.608 s50.608,22.703,50.608,50.608C124.529,225.005,101.826,247.708,73.921,247.708z M73.921,150.492 c-25.7,0-46.608,20.908-46.608,46.608s20.908,46.608,46.608,46.608s46.608-20.909,46.608-46.608S99.621,150.492,73.921,150.492z"/><circle cx="73.921" cy="197.1" r="37.691" fill="#a4c9ff"/><circle cx="68.872" cy="89.727" r="7.149" fill="#f9cfcf"/><path fill="#3762cc" d="M76.573,115.278c-0.216,0-0.432-0.035-0.641-0.105c-1.546-0.523-3.137-0.788-4.728-0.788h-10.18 c-0.547,0-1.142,0.052-1.817,0.159c-0.577,0.091-1.166-0.074-1.612-0.454c-0.445-0.38-0.701-0.936-0.701-1.521v-5.497 c-4.507-4.196-7.074-10.062-7.074-16.239V77.288c0-12.237,9.955-22.193,22.192-22.193s22.193,9.956,22.193,22.193v9.953 c2.346,0.474,4.118,2.551,4.118,5.035c0,2.832-2.304,5.136-5.136,5.136h-0.005c-2.162,6.944-7.684,12.468-14.61,14.62v1.247 c0,0.645-0.311,1.25-0.834,1.625C77.395,115.15,76.986,115.278,76.573,115.278z M61.025,110.385h10.18 c1.128,0,2.254,0.104,3.368,0.311v-0.193c0-0.931,0.643-1.739,1.55-1.949c6.691-1.545,12.023-6.881,13.584-13.594 c0.211-0.906,1.019-1.547,1.948-1.547h1.533c0.626,0,1.136-0.51,1.136-1.136s-0.51-1.136-1.136-1.136h-0.982 c-1.104,0-2-0.896-2-2V77.288c0-10.032-8.161-18.193-18.193-18.193c-10.031,0-18.192,8.161-18.192,18.193v13.545 c0,5.319,2.323,10.358,6.374,13.824c0.444,0.38,0.7,0.935,0.7,1.52v4.208C60.938,110.385,60.981,110.385,61.025,110.385z"/><path fill="#4671c6" d="M48.2,63.413l0.001,0.002c3.603-5.504,10.039-9.172,17.384-9.172c1.562,0,2.829,1.199,2.829,2.677v0.562 c0-0.661,0.203-1.276,0.548-1.788l0-0.001c0,0,0.097-0.198,0.385-0.467c0.38-0.384,0.854-0.677,1.387-0.839 c0.748-0.3,1.794-0.548,3.234-0.608v-0.001c0.003,0,0.006,0,0.008,0c1.496-0.062,3.417,0.078,5.882,0.577 c1.794,0.196,3.507,0.654,5.1,1.333c0.006,0.002,0.012,0.003,0.018,0.005l-0.001,0.002c0.905,0.387,1.769,0.848,2.588,1.37 c0.356,0.218,0.535,0.354,0.536,0.355c4.6,3.173,7.609,8.422,7.609,14.366v6.43c0,0.298-0.246,0.54-0.549,0.54H68.413v13.939 v5.259l-3.225,6.582c-0.092,0.187-0.284,0.305-0.495,0.305h-2.197h-0.785h-5.395c-0.847,0-1.68-0.121-2.474-0.349 c-0.025-0.01-0.875-0.369-1.219-0.921c-0.814-1.303-2.73-4.372-4.474-7.176c-2.588-4.161-4.057-8.914-4.173-13.79 C43.658,69.249,48.2,63.413,48.2,63.413z"/><path fill="#3762cc" d="M64.693,106.844h-8.377c-1.021,0-2.039-0.144-3.026-0.427c-0.075-0.021-0.15-0.048-0.223-0.079 c-0.343-0.144-1.508-0.691-2.142-1.705c-0.813-1.304-2.73-4.374-4.476-7.179c-2.805-4.51-4.352-9.627-4.474-14.798 c-0.321-13.459,4.136-19.792,4.61-20.427c4.14-6.254,11.232-9.985,18.997-9.985c1.13,0,2.171,0.378,2.995,1.01 c0.439-0.318,0.948-0.579,1.486-0.752c1.066-0.415,2.345-0.657,3.803-0.72c0.008,0,0.016-0.001,0.024-0.001l0,0 c1.811-0.078,3.917,0.125,6.274,0.597c1.923,0.219,3.795,0.712,5.564,1.467c0.021,0.009,0.043,0.018,0.063,0.028 c0.973,0.418,1.93,0.926,2.843,1.508c0.294,0.18,0.49,0.315,0.622,0.414c5.29,3.661,8.447,9.638,8.447,15.994v6.43 c0,1.4-1.144,2.54-2.549,2.54H70.413v17.198c0,0.305-0.069,0.606-0.204,0.88l-3.226,6.582 C66.55,106.299,65.673,106.844,64.693,106.844z M54.536,102.612c0.583,0.154,1.182,0.232,1.78,0.232h7.475l2.622-5.352V78.758 c0-1.104,0.896-2,2-2h25.294v-4.97c0-5.052-2.521-9.807-6.745-12.72c-0.025-0.018-0.052-0.037-0.076-0.056 c-0.041-0.03-0.163-0.116-0.367-0.241c-0.771-0.492-1.545-0.901-2.33-1.237c-0.016-0.006-0.03-0.013-0.045-0.02 c-1.432-0.607-2.946-1.001-4.503-1.171c-0.06-0.007-0.12-0.016-0.179-0.028c-2.078-0.421-3.892-0.599-5.403-0.539 c-0.032,0.002-0.071,0.002-0.1,0.002c-1.213,0.055-2.027,0.283-2.481,0.465c-0.054,0.021-0.107,0.041-0.162,0.057 c-0.205,0.062-0.395,0.177-0.548,0.332c0,0-0.068,0.069-0.096,0.097c-0.017,0.027-0.034,0.055-0.052,0.081 c-0.138,0.204-0.207,0.43-0.207,0.671c0,1.104-0.896,2-2,2s-2-0.896-2-2v-0.562c0-0.367-0.38-0.677-0.829-0.677 c-6.448,0-12.321,3.091-15.711,8.268c-0.037,0.057-0.077,0.111-0.119,0.164c-0.388,0.555-4.059,6.137-3.779,17.886 c0.105,4.458,1.444,8.878,3.872,12.781c1.715,2.757,3.596,5.77,4.431,7.107C54.334,102.495,54.439,102.561,54.536,102.612z M70.75,56.588C70.75,56.588,70.75,56.588,70.75,56.588S70.75,56.588,70.75,56.588z M70.752,56.583 c0,0.001-0.001,0.002-0.001,0.002C70.751,56.585,70.752,56.584,70.752,56.583z M70.754,56.58c0,0.001-0.001,0.002-0.001,0.003 C70.753,56.582,70.754,56.581,70.754,56.58z"/><circle cx="68.872" cy="89.727" r="7.149" fill="#f9cfcf"/><path fill="#3762cc" d="M140.396,247.306c-0.483,0-0.972-0.054-1.455-0.162c-1.72-0.385-3.188-1.417-4.131-2.906l-1.608-2.536 c-0.283-0.448-0.378-0.991-0.263-1.508c0.116-0.518,0.434-0.968,0.881-1.252l31.628-20.052c1.236-0.784,2.707-1.04,4.133-0.719 c1.429,0.32,2.647,1.177,3.432,2.414l0.343,0.54c1.617,2.552,0.857,5.945-1.694,7.564l-27.743,17.589l-0.001,0 C142.847,246.956,141.633,247.306,140.396,247.306z M142.846,244.588h0.01H142.846z M137.651,241.249l0.537,0.847 c0.371,0.587,0.949,0.993,1.626,1.145c0.678,0.153,1.375,0.031,1.961-0.341l27.742-17.589c0.69-0.438,0.896-1.354,0.458-2.044 l-0.343-0.54c-0.212-0.334-0.541-0.566-0.927-0.652c-0.386-0.087-0.783-0.017-1.116,0.194L137.651,241.249z"/><path fill="#3762cc" d="M73.921,236.791c-21.886,0-39.69-17.805-39.69-39.691c0-21.885,17.805-39.69,39.69-39.69 s39.69,17.805,39.69,39.69C113.611,218.985,95.807,236.791,73.921,236.791z M73.921,161.409c-19.68,0-35.69,16.011-35.69,35.69 c0,19.68,16.011,35.691,35.69,35.691s35.69-16.011,35.69-35.691C109.611,177.42,93.601,161.409,73.921,161.409z"/><path fill="#e0ebfc" d="M73.921,216.56c-10.73,0-19.459-8.73-19.459-19.46c0-10.73,8.729-19.459,19.459-19.459 S93.38,186.37,93.38,197.1C93.38,207.83,84.651,216.56,73.921,216.56z"/><path fill="#f9cfcf" d="M25.729,188.694l3.45-9.02l14.045-42.619c0.001,0.001,0.001,0.002,0.002,0.003l13.434,11.861 c0.068,0.06,0.142,0.109,0.217,0.156L41.08,183.236l-0.344,10.308c-0.012,0.368-0.081,0.733-0.204,1.08l-0.917,2.592 c-0.598,1.691-2.349,2.683-4.107,2.327l-7.106-1.438c-1.657-0.335-2.857-1.778-2.884-3.468l-0.071-4.333 C25.436,189.754,25.533,189.207,25.729,188.694z"/><path fill="#3762cc" d="M36.209,201.614c-0.363,0-0.73-0.036-1.098-0.11l-7.106-1.438c-2.557-0.518-4.444-2.787-4.488-5.395 l-0.071-4.333c-0.013-0.809,0.127-1.602,0.416-2.357v0l3.449-9.02l14.014-42.531c0.217-0.66,0.761-1.159,1.437-1.32 c0.645-0.154,1.323,0.023,1.811,0.468l13.412,11.842c0.862,0.531,1.134,1.575,0.709,2.494l-15.627,33.795l-0.331,9.904 c-0.019,0.57-0.125,1.137-0.318,1.681l-0.916,2.591C40.7,200.144,38.537,201.614,36.209,201.614z M27.598,189.408 c-0.105,0.277-0.157,0.568-0.152,0.865l0.071,4.332c0.013,0.745,0.552,1.393,1.282,1.541l7.105,1.438 c0.781,0.158,1.56-0.287,1.824-1.033l0.917-2.592c0.056-0.156,0.086-0.315,0.091-0.476l0.345-10.312 c0.009-0.267,0.071-0.53,0.184-0.772l15.16-32.785l-10.251-9.051L31.078,180.3L27.598,189.408z"/><path fill="#6bdddd" d="M43.226,137.057l13.434,11.861c0.649,0.573,1.64,0.512,2.213-0.138l16.686-18.899 c3.848-4.359,3.435-11.012-0.924-14.861l0,0c-4.359-3.848-11.012-3.435-14.861,0.924l-16.686,18.899 C42.515,135.493,42.577,136.484,43.226,137.057z"/><path fill="#3762cc" d="M57.692,151.311c-0.87,0-1.699-0.313-2.356-0.895l-13.433-11.86c-0.715-0.63-1.141-1.502-1.2-2.453 c-0.06-0.952,0.256-1.869,0.887-2.583l16.687-18.898c2.215-2.509,5.274-4.004,8.614-4.212c3.345-0.21,6.561,0.897,9.069,3.113 c5.178,4.573,5.671,12.505,1.099,17.683l-16.687,18.899c-0.631,0.714-1.502,1.141-2.453,1.2 C57.843,151.309,57.768,151.311,57.692,151.311z M57.983,147.419h0.011H57.983z M44.874,135.844l12.786,11.289l16.4-18.575 c3.112-3.525,2.776-8.925-0.749-12.038c-1.707-1.507-3.899-2.26-6.173-2.119c-2.273,0.141-4.356,1.16-5.864,2.867L44.874,135.844 z M44.55,135.558L44.55,135.558C44.551,135.558,44.551,135.558,44.55,135.558z"/><path fill="#e0ebfc" d="M134.891,240.631l6.413-4.066l-19.584-30.666c-0.615,3.364-1.571,6.607-2.84,9.69l17.123,26.812l0.008-0.005 L134.891,240.631z"/><path fill="#3762cc" d="M136.005,244.397c-0.661,0-1.308-0.324-1.688-0.92l-17.123-26.812c-0.351-0.549-0.412-1.235-0.164-1.838 c1.223-2.969,2.139-6.095,2.723-9.289c0.148-0.809,0.776-1.444,1.583-1.603c0.807-0.162,1.628,0.194,2.07,0.886l19.584,30.667 c0.286,0.448,0.382,0.992,0.267,1.511c-0.115,0.519-0.433,0.97-0.881,1.255l-4.725,2.995l0.049,0.076 c0.285,0.45,0.379,0.995,0.261,1.514s-0.438,0.97-0.891,1.252C136.739,244.299,136.37,244.397,136.005,244.397z M121.117,215.377 l14.372,22.505l3.049-1.933l-15.949-24.975C122.165,212.468,121.674,213.938,121.117,215.377z"/><g><path fill="#f9a7a7" d="M131.077,160.189c-5.739,0-9.749-6.178-5.901-12.419c0.117-0.189,0.275-0.361,0.454-0.493 c6.171-4.537,12.776-0.454,12.776,5.486C138.407,156.934,135.152,160.189,131.077,160.189z M126.314,88.787h8.815 c0.957,0,1.725,0.789,1.699,1.745l-1.226,45.93c-0.025,0.921-0.778,1.655-1.699,1.655h-6.355c-0.921,0-1.675-0.734-1.699-1.654 l-1.234-45.93C124.589,89.577,125.357,88.787,126.314,88.787z"/></g><g><path fill="#4671c6" d="M222.103,70.189H185.43h-36.673c-1.739,0-3.12,1.451-3.059,3.19c1.543,44.248,39.732,13.549,39.732,13.549 s38.189,30.699,39.732-13.549C225.223,71.64,223.842,70.189,222.103,70.189z"/></g><g><path fill="#e0ebfc" d="M158.767,90.69c-5.669-2.556-8.193-9.224-5.637-14.893l20.531,9.256 C171.105,90.723,164.437,93.246,158.767,90.69z"/></g><g><path fill="#e0ebfc" d="M212.093,90.69c-5.669,2.556-12.337,0.032-14.893-5.637l20.531-9.256 C220.287,81.467,217.763,88.135,212.093,90.69z"/></g><g><path fill="#a4c9ff" d="M158.767,90.69c-5.669-2.556-8.193-9.224-5.637-14.893l20.531,9.256 C171.105,90.723,164.437,93.246,158.767,90.69z"/></g><g><path fill="#a4c9ff" d="M212.093,90.69c-5.669,2.556-12.337,0.032-14.893-5.637l20.531-9.256 C220.287,81.467,217.763,88.135,212.093,90.69z"/></g><g><path fill="#4671c6" d="M199.06,10.292h-2.826c-2.923,0-5.699,1.28-7.597,3.503v0c-1.683,1.971-4.729,1.971-6.412,0v0 c-1.898-2.223-4.674-3.503-7.597-3.503h-2.826c-3.161,0-6.001,1.933-7.16,4.875l-9.634,24.451h24.303h12.24h24.303l-9.634-24.451 C205.061,12.225,202.221,10.292,199.06,10.292z"/></g><g><polygon fill="#e0ebfc" points="215.853,39.617 185.43,39.617 155.007,39.617 150.855,47.777 185.43,47.777 220.006,47.777"/></g><g><path fill="#4671c6" d="M220.006,47.777H185.43h-34.576l-18.043,6.546c-1.171,0.425-1.952,1.538-1.952,2.784v0 c0,1.636,1.326,2.962,2.962,2.962h51.608h51.608c1.636,0,2.962-1.326,2.962-2.962v0c0-1.246-0.78-2.359-1.952-2.784 L220.006,47.777z"/></g><g><path fill="#3762cc" d="M237.038,62.069H133.822c-2.736,0-4.962-2.226-4.962-4.962c0-2.08,1.313-3.954,3.269-4.664l17.301-6.277 l3.751-7.371l9.6-24.362c1.47-3.73,5.011-6.141,9.021-6.141h2.826c3.514,0,6.837,1.532,9.118,4.205c0.855,1,2.513,1.002,3.371,0 c2.28-2.672,5.604-4.204,9.117-4.204h2.826c4.01,0,7.551,2.411,9.021,6.141l9.6,24.362l3.751,7.371l17.3,6.277 c0.001,0,0.001,0,0.001,0c1.955,0.71,3.269,2.584,3.269,4.664C242,59.843,239.774,62.069,237.038,62.069z M171.801,12.292 c-2.355,0-4.436,1.416-5.3,3.608l-9.634,24.451c-0.022,0.059-0.049,0.117-0.078,0.174l-4.152,8.16 c-0.229,0.452-0.623,0.8-1.101,0.973l-18.043,6.546c-0.378,0.138-0.633,0.501-0.633,0.904c0,0.53,0.432,0.962,0.962,0.962h103.216 c0.53,0,0.962-0.432,0.962-0.962c0-0.403-0.255-0.767-0.634-0.904l-18.042-6.546c-0.478-0.173-0.871-0.521-1.101-0.973 l-4.152-8.16c-0.029-0.057-0.056-0.115-0.078-0.174L204.359,15.9c-0.864-2.192-2.944-3.608-5.3-3.608h-2.826 c-2.341,0-4.556,1.021-6.075,2.801c-1.184,1.386-2.906,2.18-4.728,2.18s-3.545-0.794-4.728-2.18 c-1.521-1.781-3.735-2.802-6.076-2.802H171.801z"/></g><g><path fill="#3762cc" d="M161.401,99.29c-2.32,0-4.59-0.405-6.704-1.374c-6.841-3.133-10.541-11.365-10.998-24.467 c-0.049-1.395,0.458-2.715,1.425-3.717c0.961-0.995,2.252-1.543,3.634-1.543h73.345c1.382,0,2.673,0.548,3.634,1.543 c0.967,1.001,1.473,2.322,1.425,3.717c-0.457,13.103-4.157,21.334-10.998,24.467c-11.012,5.043-26.262-5.178-30.732-8.474 C181.819,92.105,171.168,99.289,161.401,99.29z M148.758,72.189c-0.388,0-0.641,0.202-0.756,0.322 c-0.12,0.124-0.319,0.393-0.305,0.798c0.399,11.465,3.315,18.52,8.666,20.97c10.536,4.824,27.644-8.773,27.814-8.911 c0.73-0.588,1.774-0.588,2.505-0.001c0.146,0.117,12.531,9.942,22.702,9.944c1.803,0,3.534-0.308,5.117-1.034 c5.348-2.452,8.262-9.506,8.661-20.968c0.015-0.406-0.185-0.674-0.305-0.798c-0.115-0.12-0.368-0.322-0.756-0.322H148.758z"/></g></svg>