<svg xmlns="http://www.w3.org/2000/svg"  viewBox="0 0 512 512" width="256px" height="256px"><path fill="#f06423" d="M256,408c-4.418,0-8-3.582-8-8s3.582-8,8-8c13.233,0,24-10.767,24-24v-24c0-4.418,3.582-8,8-8s8,3.582,8,8v24 C296,390.056,278.056,408,256,408z"/><path fill="#5f78be" d="M384,512H128c-8.837,0-16-7.163-16-16V368c0-8.837,7.163-16,16-16h256c8.837,0,16,7.163,16,16v128 C400,504.837,392.837,512,384,512z"/><path fill="#73cddc" d="M368,400c-8.836,0-16-7.164-16-16l0,0c0-4.418-3.582-8-8-8h-57.015C306.67,386.915,320,407.897,320,432 s-13.33,45.085-33.015,56H344c4.418,0,8-3.582,8-8c0-8.836,7.164-16,16-16c4.418,0,8-3.582,8-8v-48 C376,403.582,372.418,400,368,400z"/><path fill="#73cddc" d="M192,432c0-24.103,13.33-45.085,33.015-56H168c-4.418,0-8,3.582-8,8l0,0c0,8.836-7.164,16-16,16 c-4.418,0-8,3.582-8,8v48c0,4.418,3.582,8,8,8c8.836,0,16,7.164,16,16c0,4.418,3.582,8,8,8h57.015 C205.33,477.085,192,456.103,192,432z"/><circle cx="256" cy="400" r="16" fill="#46508c"/><path fill="#faa51e" d="M256,408c-22.056,0-40-17.944-40-40c0-16.111,9.589-30.577,24.429-36.854c4.6-1.945,7.571-6.258,7.571-10.985 V304c0-4.418,3.582-8,8-8s8,3.582,8,8v16.161c0,11.17-6.806,21.266-17.338,25.722C237.755,349.649,232,358.331,232,368 c0,13.233,10.767,24,24,24c4.418,0,8,3.582,8,8S260.418,408,256,408z"/><rect width="144" height="256" x="184" y="72" fill="#46508c" transform="rotate(90 256 200)"/><path fill="#73cddc" d="M176,240h-48c-8.837,0-16,7.163-16,16v16h80v-16C192,247.163,184.837,240,176,240z"/><path fill="#73cddc" d="M280,240h-48c-8.837,0-16,7.163-16,16v16h80v-16C296,247.163,288.837,240,280,240z"/><path fill="#73cddc" d="M384,240h-48c-8.837,0-16,7.163-16,16v16h80v-16C400,247.163,392.837,240,384,240z"/><path fill="#5f78be" d="M400,272H112v16c0,8.837,7.163,16,16,16h256c8.837,0,16-7.163,16-16V272z"/><rect width="80" height="48" x="112" y="176" fill="#5f78be" transform="rotate(90 152 200)"/><rect width="80" height="48" x="216" y="176" fill="#379682" transform="rotate(90 256 200)"/><rect width="80" height="48" x="320" y="176" fill="#5f78be" transform="rotate(90 360 200)"/><path fill="#73cddc" d="M256,0L256,0c-10.386,0-20.491,3.369-28.8,9.6L118.4,91.2c-4.029,3.022-6.4,7.764-6.4,12.8v24h288v-24 c0-5.036-2.371-9.778-6.4-12.8L284.8,9.6C276.491,3.369,266.386,0,256,0z"/><path fill="#5f78be" d="M241.6,28.8l-76.8,57.6c-1.343,1.007-2.133,2.588-2.133,4.267v0c0,2.946,2.388,5.333,5.333,5.333h176 c2.946,0,5.333-2.388,5.333-5.333v0c0-1.679-0.79-3.259-2.133-4.267l-76.8-57.6c-4.154-3.116-9.207-4.8-14.4-4.8h0 C250.807,24,245.754,25.684,241.6,28.8z"/><path fill="#5f78be" d="M176,160h-48c-8.837,0-16-7.163-16-16v-16h80v16C192,152.837,184.837,160,176,160z"/><path fill="#379682" d="M280,160h-48c-8.837,0-16-7.163-16-16v-16h80v16C296,152.837,288.837,160,280,160z"/><path fill="#5f78be" d="M384,160h-48c-8.837,0-16-7.163-16-16v-16h80v16C400,152.837,392.837,160,384,160z"/><path fill="#73cddc" d="M152,240h-24v-64h8c8.837,0,16,7.163,16,16V240z"/><path fill="#82cdaa" d="M256,240h-24v-64h8c8.837,0,16,7.163,16,16V240z"/><path fill="#73cddc" d="M360,240h-24v-64h8c8.837,0,16,7.163,16,16V240z"/><circle cx="256" cy="176" r="96" fill="#faa51e"/><path fill="#46508c" d="M280,184c9.715-7.298,16-18.914,16-32c0-22.091-17.909-40-40-40s-40,17.909-40,40c0,13.086,6.285,24.702,16,32 c-17.673,0-32,14.327-32,32v37.977C215.762,265.317,235.1,272,256,272s40.238-6.683,56-18.023V216C312,198.327,297.673,184,280,184 z"/><g><path fill="#f06423" d="M256,96c44.112,0,80,35.888,80,80s-35.888,80-80,80s-80-35.888-80-80S211.888,96,256,96 M256,80 c-53.019,0-96,42.98-96,96s42.981,96,96,96s96-42.98,96-96S309.019,80,256,80L256,80z"/></g><g><path fill="#d7e6f0" d="M236.712,140.712C233.936,141.967,232,144.755,232,148c0,4.418,3.582,8,8,8c3.245,0,6.033-1.936,7.288-4.712 L236.712,140.712z"/><path fill="#d7e6f0" d="M275.288,140.712l-10.575,10.575c1.255,2.777,4.042,4.712,7.288,4.712c4.418,0,8-3.582,8-8 C280,144.755,278.064,141.967,275.288,140.712z"/></g><g><path fill="#d7e6f0" d="M239.361,168c3.91,4.873,9.905,8,16.639,8s12.729-3.127,16.639-8H239.361z"/></g></svg>