<svg xmlns="http://www.w3.org/2000/svg"  viewBox="0 0 100 100" width="100px" height="100px"><path fill="#ee3e54" d="M13,27c-1.105,0-2,0.895-2,2s0.895,2,2,2s2-0.895,2-2S14.105,27,13,27z"/><path fill="#f1bc19" d="M77,12c-0.551,0-1,0.449-1,1s0.449,1,1,1s1-0.449,1-1S77.551,12,77,12z"/><path fill="#fce0a2" d="M50,13c-20.434,0-37,16.566-37,37s16.566,37,37,37s37-16.566,37-37S70.434,13,50,13z"/><path fill="#f1bc19" d="M83,11c-2.211,0-4,1.789-4,4s1.789,4,4,4s4-1.789,4-4S85.211,11,83,11z"/><path fill="#ee3e54" d="M87,22c-1.105,0-2,0.895-2,2s0.895,2,2,2s2-0.895,2-2S88.105,22,87,22z"/><path fill="#fbcd59" d="M81,74c-1.105,0-2,0.895-2,2s0.895,2,2,2s2-0.895,2-2S82.105,74,81,74z M15,59 c-2.211,0-4,1.789-4,4s1.789,4,4,4s4-1.789,4-4S17.211,59,15,59z"/><path fill="#ee3e54" d="M25,85c-1.105,0-2,0.895-2,2s0.895,2,2,2s2-0.895,2-2S26.105,85,25,85z"/><path fill="#fff" d="M18.5,41c-1.379,0-2.5,1.121-2.5,2.5s1.121,2.5,2.5,2.5s2.5-1.121,2.5-2.5S19.879,41,18.5,41z"/><path fill="#f1bc19" d="M21,65c-0.551,0-1,0.449-1,1s0.449,1,1,1s1-0.449,1-1S21.551,65,21,65z"/><path fill="#fff" d="M80,33c-0.551,0-1,0.449-1,1s0.449,1,1,1s1-0.449,1-1S80.551,33,80,33z"/><rect width="8.6" height="8.6" x="45.7" y="60.7" fill="#ceccbe"/><path fill="#472b29" d="M53.6,61.4v7.2h-7.2v-7.2H53.6 M55,60H45v10h10V60L55,60z"/><path fill="#ceccbe" d="M38.742,72.3c0.292-2.032,2.045-3.6,4.157-3.6h14.201c2.112,0,3.865,1.567,4.157,3.6H38.742z"/><path fill="#472b29" d="M57.101,69.4c1.471,0,2.732,0.912,3.249,2.2h-20.7c0.517-1.288,1.778-2.2,3.249-2.2H57.101 M57.101,68H42.899C40.193,68,38,70.193,38,72.899V73h24v-0.101C62,70.193,59.807,68,57.101,68L57.101,68z"/><path fill="#ceccbe" d="M28.854,63.3c-2.842,0-5.154-2.312-5.154-5.154V33.854c0-2.842,2.313-5.154,5.154-5.154h42.291 c2.842,0,5.154,2.312,5.154,5.154v24.292c0,2.842-2.313,5.154-5.154,5.154H28.854z"/><path fill="#472b29" d="M71.146,29.4c2.456,0,4.454,1.998,4.454,4.454v24.292c0,2.456-1.998,4.454-4.454,4.454H28.854 c-2.456,0-4.454-1.998-4.454-4.454V33.854c0-2.456,1.998-4.454,4.454-4.454H71.146 M71.146,28H28.854 C25.634,28,23,30.634,23,33.854v24.292C23,61.366,25.634,64,28.854,64h42.292C74.366,64,77,61.366,77,58.146V33.854 C77,30.634,74.366,28,71.146,28L71.146,28z"/><g><rect width="50.928" height="23" x="24.514" y="34" fill="#78cdd4"/></g><g><path fill="#472b29" d="M57.5,35h-33c-0.276,0-0.5-0.224-0.5-0.5s0.224-0.5,0.5-0.5h33c0.276,0,0.5,0.224,0.5,0.5 S57.776,35,57.5,35z"/></g><g><path fill="#472b29" d="M64.5,35h-4c-0.276,0-0.5-0.224-0.5-0.5s0.224-0.5,0.5-0.5h4c0.276,0,0.5,0.224,0.5,0.5 S64.776,35,64.5,35z"/></g><g><path fill="#472b29" d="M31.5,57h-7c-0.276,0-0.5-0.224-0.5-0.5s0.224-0.5,0.5-0.5h7c0.276,0,0.5,0.224,0.5,0.5 S31.776,57,31.5,57z"/></g><g><path fill="#472b29" d="M61.5,57h-24c-0.276,0-0.5-0.224-0.5-0.5s0.224-0.5,0.5-0.5h24c0.276,0,0.5,0.224,0.5,0.5 S61.776,57,61.5,57z"/></g><g><path fill="#472b29" d="M35.5,57h-2c-0.276,0-0.5-0.224-0.5-0.5s0.224-0.5,0.5-0.5h2c0.276,0,0.5,0.224,0.5,0.5 S35.776,57,35.5,57z"/></g><g><path fill="#472b29" d="M75.5,57h-11c-0.276,0-0.5-0.224-0.5-0.5s0.224-0.5,0.5-0.5h11c0.276,0,0.5,0.224,0.5,0.5 S75.776,57,75.5,57z"/></g><g><path fill="#472b29" d="M75.5,35h-8c-0.276,0-0.5-0.224-0.5-0.5s0.224-0.5,0.5-0.5h8c0.276,0,0.5,0.224,0.5,0.5 S75.776,35,75.5,35z"/></g><g><circle cx="58.313" cy="59.329" r="1.265" fill="#ee3e54"/><path fill="#472b29" d="M58.313,60.719c-0.767,0-1.391-0.624-1.391-1.39s0.624-1.39,1.391-1.39s1.39,0.624,1.39,1.39 S59.08,60.719,58.313,60.719z M58.313,58.189c-0.629,0-1.141,0.511-1.141,1.14s0.512,1.14,1.141,1.14c0.628,0,1.14-0.511,1.14-1.14 S58.941,58.189,58.313,58.189z"/></g><g><circle cx="62.739" cy="59.329" r="1.265" fill="#f1bc19"/><path fill="#472b29" d="M62.739,60.719c-0.767,0-1.391-0.624-1.391-1.39s0.624-1.39,1.391-1.39s1.39,0.624,1.39,1.39 S63.506,60.719,62.739,60.719z M62.739,58.189c-0.629,0-1.141,0.511-1.141,1.14s0.512,1.14,1.141,1.14 c0.628,0,1.14-0.511,1.14-1.14S63.367,58.189,62.739,58.189z"/></g><g><circle cx="67.165" cy="59.329" r="1.265" fill="#88ae45"/><path fill="#472b29" d="M67.165,60.719c-0.767,0-1.39-0.624-1.39-1.39s0.623-1.39,1.39-1.39s1.39,0.624,1.39,1.39 S67.932,60.719,67.165,60.719z M67.165,58.189c-0.628,0-1.14,0.511-1.14,1.14s0.512,1.14,1.14,1.14s1.14-0.511,1.14-1.14 S67.793,58.189,67.165,58.189z"/></g><g><path fill="#836f61" d="M50,43c-5,0-12-1-15-2v3c2.811,3.278,4,8,8,8s5-4,7-4s3,4,7,4s5.189-4.722,8-8v-3 C62,42,55,43,50,43z M46.937,46.513c-0.373,1.082-1.238,2.366-3.247,2.487c-3.149,0.189-4.255-2.392-4.584-3.99 c-0.104-0.505,0.415-0.945,1.013-0.873l5.504,0.668C46.577,44.922,47.208,45.727,46.937,46.513z M60.895,45.01 c-0.329,1.598-1.435,4.178-4.584,3.99c-2.009-0.121-2.874-1.406-3.247-2.487c-0.271-0.786,0.36-1.591,1.315-1.707l5.504-0.668 C60.479,44.065,60.999,44.505,60.895,45.01z"/><path fill="#472b29" d="M57,52.5c-2.557,0-3.971-1.477-5.106-2.664C51.179,49.09,50.615,48.5,50,48.5 s-1.179,0.59-1.894,1.336C46.971,51.023,45.557,52.5,43,52.5c-3.059,0-4.575-2.434-6.182-5.012 c-0.672-1.078-1.366-2.193-2.198-3.163c-0.18-0.21-0.155-0.525,0.055-0.705c0.209-0.18,0.524-0.156,0.705,0.054 c0.881,1.028,1.596,2.175,2.287,3.285C39.186,49.396,40.496,51.5,43,51.5c2.13,0,3.327-1.251,4.384-2.355 C48.193,48.299,48.958,47.5,50,47.5s1.807,0.799,2.616,1.645C53.673,50.249,54.87,51.5,57,51.5c2.504,0,3.814-2.104,5.333-4.541 c0.691-1.11,1.406-2.257,2.287-3.285c0.182-0.209,0.497-0.233,0.705-0.054c0.21,0.18,0.234,0.495,0.055,0.705 c-0.832,0.97-1.526,2.084-2.198,3.163C61.575,50.066,60.059,52.5,57,52.5z M56.637,49.51c-0.116,0-0.234-0.003-0.356-0.011 c-1.789-0.107-3.1-1.11-3.69-2.823c-0.165-0.479-0.104-0.985,0.171-1.423c0.319-0.511,0.901-0.863,1.557-0.943l5.504-0.668 c0.484-0.056,0.958,0.108,1.269,0.446c0.263,0.285,0.37,0.659,0.294,1.025l0,0C61.167,46.165,60.193,49.51,56.637,49.51z M60.012,44.63c-0.022,0-0.046,0.001-0.07,0.004l-5.503,0.668c-0.359,0.043-0.67,0.223-0.831,0.48 c-0.078,0.125-0.155,0.326-0.072,0.567c0.463,1.343,1.407,2.067,2.806,2.151c2.866,0.166,3.773-2.176,4.064-3.591l0,0 c0.003-0.019,0.015-0.074-0.052-0.146C60.294,44.698,60.172,44.63,60.012,44.63z M43.364,49.51c-3.559,0-4.531-3.345-4.748-4.398 c-0.076-0.366,0.031-0.739,0.294-1.024c0.311-0.337,0.79-0.501,1.268-0.446l5.505,0.668c0.655,0.08,1.237,0.433,1.558,0.944 c0.274,0.438,0.334,0.944,0.169,1.422c-0.591,1.713-1.901,2.716-3.689,2.823C43.599,49.506,43.479,49.51,43.364,49.51z M39.988,44.63c-0.16,0-0.282,0.068-0.343,0.134c-0.065,0.072-0.054,0.127-0.051,0.146c0.291,1.415,1.208,3.758,4.064,3.592 c1.397-0.084,2.342-0.808,2.805-2.151l0,0c0.083-0.24,0.007-0.44-0.072-0.566c-0.161-0.257-0.471-0.437-0.83-0.48l-5.504-0.668 C40.034,44.631,40.011,44.63,39.988,44.63z M50,43.5c-4.838,0-11.921-0.947-15.158-2.026c-0.262-0.087-0.403-0.37-0.316-0.632 c0.088-0.262,0.373-0.403,0.633-0.316C37.954,41.458,44.896,42.5,50,42.5s12.046-1.042,14.842-1.974 c0.263-0.087,0.545,0.054,0.633,0.316c0.087,0.262-0.055,0.545-0.316,0.632C61.921,42.553,54.838,43.5,50,43.5z"/><circle cx="42.5" cy="45.5" r="1.5" fill="#472b29"/><circle cx="57.5" cy="45.5" r="1.5" fill="#472b29"/></g></svg>