<svg id="Capa_1" enable-background="new 0 0 512.156 512.156" height="512" viewBox="0 0 512.156 512.156" width="512" xmlns="http://www.w3.org/2000/svg"><g><path d="m1.282 142.221c-.664 0-1.202.538-1.202 1.202v367.532c0 .664.538 1.202 1.202 1.202h509.592c.664 0 1.202-.538 1.202-1.202v-367.533c0-.664-.538-1.202-1.202-1.202h-509.592z" fill="#d3effb"/><path d="m510.874 142.221h-40.005v270.649c0 43.455-35.227 78.682-78.682 78.682h-392.107v19.402c0 .664.538 1.202 1.202 1.202h509.592c.664 0 1.202-.538 1.202-1.202v-367.532c0-.663-.538-1.201-1.202-1.201z" fill="#b1e4f9"/><circle cx="256.078" cy="128.356" fill="#ffd064" r="128.356"/><path d="m291.889 5.062c31.174 23.418 51.338 60.699 51.338 102.691 0 70.889-57.467 128.356-128.356 128.356-12.429 0-24.445-1.767-35.811-5.062 21.453 16.116 48.12 25.666 77.018 25.666 70.889 0 128.356-57.467 128.356-128.356 0-58.461-39.082-107.793-92.545-123.295z" fill="#ffc250"/><g fill="#665e66"><path d="m141.245 284.442h-83.221c-.583 0-1.056-.473-1.056-1.056v-26.333c0-.583.473-1.056 1.056-1.056h83.221c.583 0 1.056.473 1.056 1.056v26.333c0 .583-.472 1.056-1.056 1.056z"/><path d="m255.022 398.219h-196.998c-.583 0-1.056-.473-1.056-1.056v-26.333c0-.583.473-1.056 1.056-1.056h196.998c.583 0 1.056.473 1.056 1.056v26.333c0 .583-.473 1.056-1.056 1.056z"/><path d="m56.969 313.942v26.333c0 .583.473 1.056 1.056 1.056h253.886c.583 0 1.056-.473 1.056-1.056v-26.333c0-.583-.473-1.056-1.056-1.056h-253.887c-.583 0-1.055.473-1.055 1.056z"/><path d="m454.131 312.886h-111.665c-.583 0-1.056.473-1.056 1.056v26.333c0 .583.473 1.056 1.056 1.056h111.665c.583 0 1.056-.473 1.056-1.056v-26.333c0-.583-.472-1.056-1.056-1.056z"/></g><path d="m239.117 33.923 1.805-3.61c.46-.919 1.685-1.118 2.411-.391 8.161 8.16 19.229 12.745 30.769 12.745h26.952c-1.207-23.598-20.745-42.667-44.976-42.667-26 0-46.599 21.955-44.943 47.902l.5 7.845c11.775-2.821 21.922-10.705 27.482-21.824z" fill="#e7a52e"/><path d="m274.102 42.666c-11.541 0-22.609-4.585-30.769-12.745-.727-.727-1.952-.528-2.411.391l-1.805 3.61c-5.56 11.12-15.706 19.004-27.481 21.824l2.074 32.5c1.426 22.352 19.971 39.752 42.369 39.752 22.398 0 40.943-17.399 42.369-39.752l2.574-40.345c.113-1.766.121-3.513.033-5.236h-26.953z" fill="#fff1dd"/><path d="m256.078 170.665c16.5 0 30.793-9.446 37.769-23.224l-.433-.108c-7.838-1.959-13.336-9.002-13.336-17.08v-9.685c-6.843 4.696-15.118 7.432-24 7.432-8.881 0-17.157-2.736-24-7.432v9.685c0 8.079-5.498 15.121-13.336 17.08l-.433.108c6.976 13.779 21.269 23.224 37.769 23.224z" fill="#ffe4c1"/><path d="m291.889 5.062c31.174 23.418 51.338 60.699 51.338 102.691 0 70.889-57.467 128.356-128.356 128.356-12.429 0-24.445-1.767-35.811-5.062 21.453 16.116 48.12 25.666 77.018 25.666 70.889 0 128.356-57.467 128.356-128.356 0-58.461-39.082-107.793-92.545-123.295z" fill="#ffc250"/><path d="m319.742 153.915-25.895-6.474c-6.976 13.779-21.269 23.224-37.769 23.224s-30.793-9.446-37.769-23.224l-25.895 6.474c-14.302 3.576-24.335 16.426-24.335 31.168v36.717c22.978 21.647 53.939 34.913 87.999 34.913s65.021-13.266 87.999-34.913v-36.717c0-14.743-10.033-27.593-24.335-31.168z" fill="#61a2f9"/><path d="m332.116 160.071c-20.026 44.811-64.989 76.039-117.245 76.039-12.429 0-24.445-1.767-35.811-5.062 21.453 16.116 48.12 25.666 77.018 25.666 34.058 0 65.018-13.265 87.995-34.909.001-.001.003-.003.004-.004v-36.717c0-9.961-4.58-19.057-11.961-25.013z" fill="#5490f9"/><g><path d="m253.155 87.726h-1.077c-4.267 0-7.726-3.459-7.726-7.726s3.459-7.726 7.726-7.726h.274v-8.274c0-4.267 3.459-7.726 7.726-7.726s7.726 3.459 7.726 7.726v9.077c0 8.077-6.572 14.649-14.649 14.649z" fill="#ffe4c1"/></g><path d="m192.352 239.801c4.953 2.838 10.113 5.356 15.453 7.524v-39.327c0-4.267-3.459-7.726-7.726-7.726s-7.726 3.459-7.726 7.726v31.803z" fill="#5490f9"/><path d="m192.352 239.8c4.953 2.838 10.113 5.356 15.453 7.525v-11.407c-5.241-.284-10.398-.883-15.453-1.778z" fill="#4a81f6"/><path d="m304.351 247.326c5.339-2.169 10.5-4.686 15.453-7.525v-31.803c0-4.267-3.459-7.726-7.726-7.726s-7.726 3.459-7.726 7.726v39.328z" fill="#4a81f6"/><path d="m311.117 461.472c1.319 4.058-.902 8.417-4.961 9.735l-2.153.699 1.331 1.832c2.508 3.452 1.742 8.284-1.71 10.792-1.371.996-2.96 1.476-4.535 1.476-2.389 0-4.745-1.105-6.258-3.186l-1.33-1.831-1.33 1.831c-1.512 2.081-3.868 3.186-6.258 3.186-1.574 0-3.163-.48-4.535-1.476-3.452-2.509-4.218-7.34-1.71-10.792l1.331-1.832-2.153-.699c-4.058-1.318-6.28-5.677-4.961-9.735 1.318-4.058 5.677-6.283 9.735-4.961l2.153.7v-2.264c0-4.267 3.459-7.726 7.726-7.726s7.726 3.459 7.726 7.726v2.264l2.153-.7c4.061-1.322 8.42.902 9.739 4.961zm40.737-4.961-2.153.7v-2.264c0-4.267-3.459-7.726-7.726-7.726s-7.726 3.459-7.726 7.726v2.264l-2.153-.7c-4.06-1.322-8.417.902-9.735 4.961-1.319 4.058.902 8.417 4.961 9.735l2.153.699-1.331 1.832c-2.508 3.452-1.742 8.284 1.71 10.792 1.371.996 2.96 1.476 4.535 1.476 2.389 0 4.745-1.105 6.258-3.186l1.33-1.831 1.33 1.831c1.512 2.081 3.868 3.186 6.257 3.186 1.574 0 3.163-.48 4.535-1.476 3.452-2.509 4.218-7.34 1.71-10.792l-1.331-1.832 2.153-.699c4.058-1.318 6.28-5.677 4.961-9.735-1.321-4.059-5.68-6.283-9.738-4.961zm-100.946 0-2.153.699v-2.264c0-4.267-3.459-7.726-7.726-7.726s-7.726 3.459-7.726 7.726v2.264l-2.153-.7c-4.058-1.322-8.417.902-9.735 4.961-1.319 4.058.902 8.417 4.961 9.735l2.153.699-1.331 1.832c-2.508 3.452-1.742 8.284 1.71 10.792 1.371.996 2.96 1.476 4.535 1.476 2.389 0 4.745-1.105 6.257-3.186l1.33-1.831 1.33 1.831c1.512 2.081 3.868 3.186 6.257 3.186 1.574 0 3.163-.48 4.535-1.476 3.452-2.509 4.218-7.34 1.71-10.792l-1.331-1.832 2.152-.699c4.058-1.318 6.28-5.677 4.961-9.735s-5.679-6.282-9.736-4.96zm151.419 0-2.153.7v-2.264c0-4.267-3.459-7.726-7.726-7.726s-7.726 3.459-7.726 7.726v2.264l-2.153-.7c-4.06-1.322-8.417.902-9.735 4.961-1.319 4.058.902 8.417 4.961 9.735l2.153.699-1.331 1.832c-2.508 3.452-1.742 8.284 1.71 10.792 1.371.996 2.96 1.476 4.535 1.476 2.389 0 4.745-1.105 6.257-3.186l1.33-1.831 1.33 1.831c1.512 2.081 3.868 3.186 6.257 3.186 1.574 0 3.163-.48 4.535-1.476 3.452-2.509 4.218-7.34 1.71-10.792l-1.331-1.832 2.153-.699c4.058-1.318 6.28-5.677 4.961-9.735-1.32-4.059-5.679-6.283-9.737-4.961zm60.208 4.961c-1.319-4.058-5.678-6.283-9.735-4.961l-2.153.7v-2.264c0-4.267-3.459-7.726-7.726-7.726s-7.726 3.459-7.726 7.726v2.264l-2.153-.7c-4.06-1.322-8.418.902-9.735 4.961-1.319 4.058.902 8.417 4.961 9.735l2.153.699-1.331 1.832c-2.508 3.452-1.742 8.284 1.71 10.792 1.371.996 2.96 1.476 4.535 1.476 2.389 0 4.745-1.105 6.257-3.186l1.33-1.831 1.33 1.831c1.512 2.081 3.868 3.186 6.257 3.186 1.574 0 3.163-.48 4.535-1.476 3.452-2.509 4.218-7.34 1.71-10.792l-1.331-1.832 2.153-.699c4.057-1.318 6.278-5.677 4.959-9.735z" fill="#ffd064"/><path d="m430.798 484.53c1.371.996 2.96 1.476 4.535 1.476 2.389 0 4.745-1.105 6.257-3.186l1.33-1.831 1.33 1.831c1.512 2.081 3.868 3.186 6.257 3.186 1.574 0 3.163-.48 4.535-1.476 3.452-2.509 4.218-7.34 1.71-10.792l-1.331-1.832 2.153-.699c4.058-1.318 6.28-5.677 4.961-9.735-.785-2.417-2.649-4.183-4.884-4.937-7.265 10.87-17.165 19.829-28.786 25.964.5.768 1.147 1.46 1.933 2.031z" fill="#ffc250"/></g></svg>