<svg clip-rule="evenodd" fill-rule="evenodd" stroke-linejoin="round" stroke-miterlimit="2" viewBox="0 0 510 510" xmlns="http://www.w3.org/2000/svg"><g><g><g><g><g><g><circle cx="35.572" cy="179.133" fill="#ffd064" r="18.827"/><path d="m30.572 197.288c7.967-2.193 13.827-9.495 13.827-18.155 0-8.659-5.86-15.961-13.827-18.154 1.593-.438 3.269-.672 5-.672 10.391 0 18.827 8.436 18.827 18.826 0 10.391-8.436 18.827-18.827 18.827-1.731 0-3.407-.234-5-.672z" fill="#ffc338"/></g><g><circle cx="33.812" cy="255.117" fill="#ffd064" r="18.812"/><path d="m28.812 273.257c7.959-2.192 13.812-9.488 13.812-18.14 0-8.651-5.853-15.947-13.812-18.139 1.593-.438 3.269-.673 5-.673 10.383 0 18.812 8.43 18.812 18.812 0 10.383-8.429 18.813-18.812 18.813-1.731 0-3.407-.235-5-.673z" fill="#ffc338"/></g><g><circle cx="33.812" cy="333.714" fill="#ffd064" r="18.812"/><path d="m28.812 351.854c7.959-2.192 13.812-9.488 13.812-18.14 0-8.651-5.853-15.947-13.812-18.139 1.593-.438 3.269-.673 5-.673 10.383 0 18.812 8.43 18.812 18.812 0 10.383-8.429 18.813-18.812 18.813-1.731 0-3.407-.235-5-.673z" fill="#ffc338"/></g><g><circle cx="476.188" cy="333.714" fill="#ffd064" r="18.812"/><path d="m471.188 351.854c7.959-2.192 13.812-9.488 13.812-18.14 0-8.651-5.853-15.947-13.812-18.139 1.592-.438 3.269-.673 5-.673 10.383 0 18.812 8.43 18.812 18.812 0 10.383-8.429 18.813-18.812 18.813-1.731 0-3.408-.235-5-.673z" fill="#ffc338"/></g><g><circle cx="476.188" cy="255.117" fill="#ffd064" r="18.812"/><path d="m471.188 273.257c7.959-2.192 13.812-9.488 13.812-18.14 0-8.651-5.853-15.947-13.812-18.139 1.592-.438 3.269-.673 5-.673 10.383 0 18.812 8.43 18.812 18.812 0 10.383-8.429 18.813-18.812 18.813-1.731 0-3.408-.235-5-.673z" fill="#ffc338"/></g><g><circle cx="476.188" cy="179.133" fill="#ffd064" r="18.812"/><path d="m471.188 197.273c7.959-2.192 13.812-9.488 13.812-18.14 0-8.651-5.853-15.947-13.812-18.139 1.592-.438 3.269-.673 5-.673 10.383 0 18.812 8.43 18.812 18.812 0 10.383-8.429 18.813-18.812 18.813-1.731 0-3.408-.235-5-.673z" fill="#ffc338"/></g></g></g></g><g><path d="m254.979 95.052-122.555 52.493v105.752c0 71.848 52.068 134.168 122.555 147.227 70.529-13.059 122.597-75.379 122.597-147.227v-105.752z" fill="#8ac9fe"/><path d="m268.496 397.362c52.962-23.608 89.198-76.915 89.198-136.853v-105.752l-121.075-51.841 18.36-7.864 122.597 52.493v105.752c0 67.176-45.515 126.022-109.08 144.065z" fill="#60b7ff"/></g><g><path d="m282.634 230.806h23.329v-38.417c0-28.033-22.919-50.973-50.952-50.973s-50.974 22.94-50.974 50.973v38.417h23.351v-38.417c0-15.171 12.473-27.644 27.623-27.644 15.149 0 27.623 12.473 27.623 27.644z" fill="#a79ba7"/><g><path d="m192.621 213.797h124.779c5.137 0 9.302 4.187 9.302 9.302v99.184c0 5.137-4.165 9.302-9.302 9.302h-124.779c-5.136 0-9.323-4.165-9.323-9.302v-99.184c0-5.115 4.187-9.302 9.323-9.302z" fill="#ffd064"/><path d="m307.24 213.797h10.16c5.137 0 9.302 4.187 9.302 9.302v99.184c0 5.137-4.165 9.302-9.302 9.302h-10.16c5.136 0 9.301-4.165 9.301-9.302v-99.184c0-5.115-4.165-9.302-9.301-9.302z" fill="#ffc338"/></g><path d="m255.011 237.299c10.013 0 18.128 8.136 18.128 18.149 0 6.539-3.432 12.258-8.611 15.452v27.666c0 5.244-4.295 9.517-9.517 9.517-5.244 0-9.517-4.273-9.517-9.517v-27.666c-5.18-3.194-8.633-8.913-8.633-15.452 0-10.013 8.136-18.149 18.15-18.149z" fill="#f5b829"/></g></g><path d="m59.408 263.117c-3.406 10.896-13.584 18.813-25.596 18.813-14.798 0-26.812-12.015-26.812-26.813s12.014-26.812 26.812-26.812c12.012 0 22.19 7.917 25.596 18.812h66.716v-26.619h-11.762c-2.122 0-4.157-.843-5.657-2.343l-31.022-31.022h-16.499c-3.407 10.904-13.591 18.827-25.612 18.827-14.806 0-26.826-12.021-26.826-26.827s12.02-26.826 26.826-26.826c12.021 0 22.205 7.923 25.612 18.826h19.813c2.122 0 4.156.843 5.657 2.344l31.021 31.021h8.449v-55.563c0-3.201 1.908-6.094 4.85-7.354l120.856-51.765c2.011-.861 4.287-.862 6.298 0l120.898 51.765c2.942 1.26 4.851 4.153 4.851 7.354v55.563h8.448l31.021-31.021c1.501-1.501 3.535-2.344 5.657-2.344h21.589c3.406-10.895 13.584-18.812 25.596-18.812 14.798 0 26.812 12.014 26.812 26.812s-12.014 26.813-26.812 26.813c-12.012 0-22.19-7.917-25.597-18.813h-18.274l-31.022 31.022c-1.5 1.5-3.535 2.343-5.657 2.343h-11.761v26.619h66.715c3.406-10.895 13.584-18.812 25.596-18.812 14.798 0 26.812 12.014 26.812 26.812s-12.014 26.813-26.812 26.813c-12.012 0-22.19-7.917-25.596-18.813h-67.033c-.643 9.995-2.252 19.773-4.74 29.233h16.819c2.122 0 4.157.843 5.657 2.343l31.022 31.021h18.275c3.406-10.895 13.584-18.812 25.596-18.812 14.798 0 26.812 12.014 26.812 26.812s-12.014 26.813-26.812 26.813c-12.012 0-22.19-7.917-25.596-18.813h-21.589c-2.122 0-4.156-.842-5.657-2.343l-31.021-31.021h-18.659c-18.998 49.584-62.83 87.85-117.23 97.922-.963.179-1.951.179-2.914 0-54.367-10.073-98.191-48.338-117.188-97.922h-18.659l-31.021 31.021c-1.501 1.501-3.535 2.343-5.657 2.343h-21.589c-3.406 10.896-13.584 18.813-25.596 18.813-14.798 0-26.812-12.015-26.812-26.813s12.014-26.812 26.812-26.812c12.012 0 22.19 7.917 25.597 18.812h18.274l31.022-31.021c1.5-1.5 3.535-2.343 5.657-2.343h16.819c-2.487-9.46-4.096-19.238-4.739-29.233zm-25.596-18.812c-5.967 0-10.812 4.845-10.812 10.812 0 5.968 4.845 10.813 10.812 10.813 5.968 0 10.812-4.845 10.812-10.813 0-5.967-4.844-10.812-10.812-10.812zm221.168-138.432-112.856 48.338v99.009c0 66.519 47.852 124.278 112.857 137.042 65.043-12.764 112.896-70.523 112.896-137.042v-99.008zm59.235 98.962h3.494c9.546 0 17.348 7.839 17.348 17.488v101.183c0 9.69-7.802 17.488-17.348 17.488h-125.397c-9.54 0-17.369-7.803-17.369-17.488v-101.183c0-9.644 7.829-17.488 17.369-17.488h3.473v-13.84c0-33.03 26.687-60 59.226-60s59.204 26.969 59.204 60zm-102.43 0h7.466v-13.84c0-19.901 16.183-36.201 35.76-36.201s35.76 16.3 35.76 36.201v13.84h7.444v-13.84c0-24.164-19.399-44-43.204-44-23.806 0-43.226 19.835-43.226 44zm23.466 0h39.52v-13.84c0-11.052-8.888-20.201-19.76-20.201s-19.76 9.149-19.76 20.201zm-42.939 16c-.782 0-1.369.697-1.369 1.488v101.183c0 .794.587 1.488 1.369 1.488h125.397c.778 0 1.348-.698 1.348-1.488v-101.183c0-.786-.57-1.488-1.348-1.488zm62.699 7.974c14.446 0 26.217 11.851 26.217 26.515 0 7.833-3.339 14.851-8.653 19.693v24.294c0 9.791-7.959 17.709-17.564 17.709-9.645 0-17.564-7.918-17.564-17.709v-24.292c-5.32-4.842-8.675-11.862-8.675-19.695 0-14.662 11.795-26.515 26.239-26.515zm0 16c-5.683 0-10.239 4.747-10.239 10.515 0 3.797 1.957 7.128 4.92 8.982 2.336 1.463 3.755 4.025 3.755 6.781v28.224c0 .909.668 1.709 1.564 1.709.892 0 1.564-.8 1.564-1.709v-28.224c0-2.756 1.419-5.318 3.755-6.781 2.962-1.854 4.898-5.187 4.898-8.982 0-5.766-4.537-10.515-10.217-10.515zm-221.199 78.093c-5.967 0-10.812 4.845-10.812 10.812 0 5.968 4.845 10.813 10.812 10.813 5.968 0 10.812-4.845 10.812-10.813 0-5.967-4.844-10.812-10.812-10.812zm1.76-154.595c-5.975 0-10.826 4.851-10.826 10.826 0 5.976 4.851 10.827 10.826 10.827 5.976 0 10.827-4.851 10.827-10.827 0-5.975-4.851-10.826-10.827-10.826zm440.616 75.998c-5.968 0-10.812 4.845-10.812 10.812 0 5.968 4.844 10.813 10.812 10.813 5.967 0 10.812-4.845 10.812-10.813 0-5.967-4.845-10.812-10.812-10.812zm0-75.984c-5.968 0-10.812 4.845-10.812 10.812 0 5.968 4.844 10.813 10.812 10.813 5.967 0 10.812-4.845 10.812-10.813 0-5.967-4.845-10.812-10.812-10.812zm0 154.581c-5.968 0-10.812 4.845-10.812 10.812 0 5.968 4.844 10.813 10.812 10.813 5.967 0 10.812-4.845 10.812-10.813 0-5.967-4.845-10.812-10.812-10.812zm-99.695-227.355c-4.411.199-8.153-3.22-8.352-7.631s3.22-8.154 7.631-8.353c13.667-.616 27.077 4.044 37.034 14.002 9.958 9.957 14.617 23.367 14 37.034-.199 4.411-3.941 7.83-8.352 7.631s-7.83-3.942-7.631-8.352c.415-9.211-2.619-18.289-9.33-24.999-6.711-6.712-15.789-9.748-25-9.332zm79.213 33.748c-.199 4.411-3.941 7.83-8.352 7.631s-7.83-3.942-7.631-8.353c.75-16.608-4.774-32.952-16.874-45.053-12.099-12.099-28.444-17.622-45.052-16.873-4.411.199-8.153-3.221-8.352-7.632s3.221-8.153 7.631-8.352c21.065-.949 41.741 6.198 57.087 21.544 15.346 15.347 22.494 36.024 21.543 57.088zm-76.605-91.547c-4.411.199-8.153-3.221-8.352-7.632-.199-4.41 3.221-8.153 7.631-8.352 28.46-1.282 56.407 8.353 77.14 29.087 20.734 20.734 30.368 48.679 29.086 77.139-.199 4.411-3.942 7.831-8.352 7.632-4.411-.199-7.831-3.941-7.632-8.352 1.082-24.004-6.928-47.618-24.416-65.105-17.487-17.488-41.102-25.499-65.105-24.417zm-223.758 376.705c4.41-.199 8.153 3.22 8.352 7.631s-3.22 8.154-7.631 8.353c-13.667.616-27.077-4.044-37.034-14.002-9.958-9.957-14.617-23.367-14-37.034.199-4.411 3.941-7.83 8.352-7.631s7.83 3.942 7.631 8.352c-.415 9.211 2.619 18.289 9.33 24.999 6.711 6.712 15.788 9.748 25 9.332zm-79.214-33.748c.2-4.411 3.942-7.83 8.353-7.631s7.83 3.942 7.631 8.353c-.75 16.608 4.774 32.952 16.874 45.053 12.099 12.099 28.444 17.622 45.052 16.873 4.411-.199 8.153 3.221 8.352 7.632s-3.221 8.153-7.631 8.352c-21.065.949-41.741-6.198-57.087-21.544-15.346-15.347-22.494-36.024-21.544-57.088zm76.606 91.547c4.411-.199 8.153 3.221 8.352 7.632.199 4.41-3.221 8.153-7.631 8.352-28.46 1.282-56.407-8.353-77.14-29.087-20.734-20.734-30.368-48.679-29.086-77.139.199-4.411 3.941-7.831 8.352-7.632s7.831 3.941 7.632 8.352c-1.082 24.004 6.928 47.618 24.416 65.105 17.487 17.488 41.102 25.499 65.105 24.417z"/></g></svg>